<svg xmlns="http://www.w3.org/2000/svg" height="77.043" viewBox="0 0 249.35938 77.042969" width="249.36"><g transform="matrix(1.25 0 0 -1.25 -258.5 534.8)"><g transform="translate(.93656 .70242)"><path d="m144.33 1.291v0.00195c-0.0954 0-0.1888-0.00104-0.28515 0-1.8707 0-45.266 0.00391-45.266 0.00391l9.4394 8.4688-14.874 37.746s33.607 0.01172 36.721 0.01172c9.7529 0 12.9-2.0972 16.025-11.225 1.4208-5.9647 0.82475-9.9089-4.4219-12.268 7.5926-0.90844 9.274-6.2302 11.262-11.66 2.5128-7.8349-1.3652-11.08-8.5996-11.08zm-25.908 9.5 19.734 0.01563c0.99844 0 1.515 0.7606 1.1524 1.7031l-2.2129 5.6777c-0.36128 0.93829-1.4636 1.6953-2.4648 1.6953l-16.422-0.0078 2.5664-6.7051-2.3535-2.3789zm-3.3 17.207 16.67 0.002c0.99987 0 1.5164 0.76055 1.1523 1.7012l-2.502 6.4375c-0.36665 0.93876-1.4713 1.7012-2.4707 1.7012l-16.734 0.0039 3.8809-9.8457zm-97.147 36.529c-3.1202 0-5.4609 2.3541-5.4609 5.2578v0.0293c0 2.9037 2.3115 5.2285 5.4316 5.2285 3.1207 0 5.4609-2.3541 5.4609-5.2578v-0.0293c0-2.9035-2.311-5.2285-5.4316-5.2285zm20.514 0.02734c-2.4271 0-3.9141 1.3586-3.9141 3.2363v0.0293c0 2.0658 1.6619 2.6728 3.8145 3.1641 1.3868 0.3321 1.7188 0.549 1.7188 0.98242v0.0293c0 0.43319-0.4044 0.69336-1.1699 0.69336-1.1703 0-2.2679-0.42038-3.2793-1.2148l-1.5605 1.8633c1.2568 1.1127 2.947 1.6758 4.7383 1.6758 2.4562 0 4.0879-1.2272 4.0879-3.293v-0.0293c0-1.8926-1.4444-2.6426-3.7559-3.1484-1.4156-0.31756-1.7637-0.52007-1.7637-0.98242v-0.0293c0-0.3756 0.33269-0.65039 1.0117-0.65039 0.89575 0 1.9074 0.33358 2.832 0.99805l1.4023-1.9805c-1.0981-0.88141-2.4433-1.3438-4.1621-1.3438zm30.816 0c-2.427 0-3.916 1.3586-3.916 3.2363v0.0293c0 2.0658 1.6619 2.6728 3.8145 3.1641 1.387 0.3321 1.7188 0.549 1.7188 0.98242v0.0293c0 0.43319-0.40438 0.69336-1.1699 0.69336-1.1701 0-2.2679-0.42038-3.2793-1.2148l-1.5605 1.8633c1.2565 1.1127 2.947 1.6758 4.7383 1.6758 2.456 0 4.0879-1.2272 4.0879-3.293v-0.0293c0-1.8926-1.4445-2.6426-3.7559-3.1484-1.4159-0.31756-1.7617-0.52007-1.7617-0.98242v-0.0293c0-0.3756 0.33269-0.65039 1.0117-0.65039 0.89554 0 1.9076 0.33358 2.832 0.99805l1.4004-1.9805c-1.0981-0.88141-2.441-1.3438-4.1602-1.3438zm140.42 0c-2.4271 0-3.916 1.3586-3.916 3.2363v0.0293c0 2.0658 1.6619 2.6728 3.8144 3.1641 1.3868 0.3321 1.7188 0.549 1.7188 0.98242v0.0293c0 0.43319-0.40415 0.69336-1.1699 0.69336-1.17 0-2.2684-0.42038-3.2793-1.2148l-1.5606 1.8633c1.257 1.1127 2.947 1.6758 4.7383 1.6758 2.4557 0 4.0898-1.2272 4.0898-3.293v-0.0293c0-1.8926-1.4445-2.6426-3.7559-3.1484-1.4157-0.31756-1.7637-0.52007-1.7637-0.98242v-0.0293c0-0.3756 0.33269-0.65039 1.0117-0.65039 0.8955 0 1.9074 0.33358 2.832 0.99805l1.4004-1.9805c-1.0979-0.88141-2.4411-1.3438-4.1602-1.3438zm-117.76 0.10156-4.2891 10.186h2.9316l0.72266-1.8203h3.9141l0.72266 1.8203h3.0059l-4.3047-10.186h-2.7031zm-91.982 0.07227v10.113h5.2148c2.4122 0 3.8281-1.0554 3.8281-2.7891v-0.0293c0-1.3724-0.77994-2.0642-2.0078-2.4688 0.89552-0.38993 1.5605-1.0836 1.5605-2.2539v-0.0293c0-0.69339-0.24612-1.2276-0.65039-1.6465-0.5839-0.577-1.48-0.895-2.7513-0.895h-5.1855zm27.551 0v10.113h2.8008v-10.113h-2.8008zm19.445 0v10.113h8.2051v-2.3848h-5.4316v-1.6035h4.8535v-2.209h-4.8535v-1.5469h5.3594v-2.3691h-8.1328zm30.092 0v2.457h3.0195v7.6562h2.8027v-7.6562h3.0332v-2.457h-8.8555zm23.65 0v2.457h3.0195v7.6562h2.8027v-7.6562h3.0332v-2.457h-8.8555zm12.525 0v10.113h8.2051v-2.3848h-5.4316v-1.6035h4.8535v-2.209h-4.8535v-1.5469h5.3594v-2.3691h-8.1328zm18.578 0v5.6777c0 3.1639 1.8058 4.623 4.666 4.623 2.8751 0 4.7383-1.4452 4.7383-4.6953v-5.6055h-2.8301v5.6914c0 1.4159-0.73756 2.082-1.8789 2.082-1.1268 0-1.8633-0.69515-1.8633-2.1543v-5.6191h-2.832zm13.869 0v10.113h2.7734v-5.5488l4.334 5.5488h2.4414v-10.113h-2.7734v5.3457l-4.1602-5.3457h-2.6152zm14.158 0v10.113h2.8027v-10.113h-2.8027zm6.3867 0 4.0879 10.186h2.5996l4.1035-10.186h-3.0625l-2.3125 6.4004-2.2969-6.4004h-3.1191zm14.301 0v10.113h8.207v-2.3848h-5.4336v-1.6035h4.8555v-2.209h-4.8555v-1.5469h5.3613v-2.3691h-8.1348zm12.498 0v10.113h2.8027v-3.0625h1.2422l2.0371 3.0625h3.2207l-2.4121-3.5254c1.2568-0.53425 2.0801-1.5611 2.0801-3.1211v-0.02734c0-0.99702-0.30417-1.7634-0.89649-2.3555-0.67903-0.67906-1.7471-1.084-3.293-1.084h-4.7812zm25.238 0v10.113h2.8027v-10.113h-2.8027zm6.4863 0v2.457h3.0195v7.6562h2.8027v-7.6562h3.0332v-2.457h-8.8555zm12.078 0 3.8574 6.3281v3.7852h2.8008v-3.8281l3.8438-6.2852h-3.1348l-2.0957 3.6836-2.0801-3.6836h-3.1914zm-234.13 2.2539h1.834c0.82334 0 1.2715 0.30378 1.2715 0.86719v0.0293c0 0.59252-0.4915 0.88086-1.3438 0.88086h-1.7617v-1.7773zm15.227 0.07227c1.5459 0 2.5859 1.257 2.5859 2.7305v0.0293c0 1.4589-1.0251 2.7012-2.5566 2.7012-1.5456 0-2.6016-1.2714-2.6016-2.7305v-0.0293c0-1.4592 1.0266-2.7012 2.5723-2.7012zm177.9 0.08594h1.8477c0.92465 0 1.5176 0.40606 1.5176 1.2148v0.02734c0 0.73688-0.56297 1.1992-1.502 1.1992h-1.8633v-2.4414zm-102.54 0.83984 1.127 2.8594h-2.2695l1.1426-2.8594zm-90.582 2.7441h2.1367c0.939 0 1.373 0.36133 1.373 0.91016v0.0293c0 0.59206-0.47715 0.92383-1.3438 0.92383h-2.166v-1.8633z" transform="matrix(.8 0 0 -.8 206.81 426.24)" fill="#0033a0"/><path d="m144.33 0-48.928 0.0058594 11.278 10.123-15.235 38.676s35.508 0.01172 38.621 0.01172c5.5064 0 8.7616-0.69934 11.236-2.418 2.5161-1.7487 4.2581-4.5527 6.0137-9.6797l0.0195-0.06055 0.0137-0.05859c0.84052-3.5285 0.92404-6.0469 0.26758-8.168-0.4687-1.5102-1.3186-2.7836-2.5742-3.8398 2.109-0.73685 3.8228-1.9493 5.1973-3.668 1.7436-2.1774 2.7375-4.9081 3.7012-7.5488l0.20312-0.56055 0.0117-0.02344 0.006-0.02539c1.27-3.9303 1.08-7.05-0.54-9.2719-1.69-2.3177-4.82-3.4941-9.29-3.4941zm0 1.293c7.2344 0 11.112 3.2432 8.5996 11.078-1.9878 5.4299-3.6691 10.754-11.262 11.662 5.2466 2.3587 5.8427 6.3009 4.4219 12.266-3.1254 9.1274-6.2725 11.225-16.025 11.225-3.1134 0-36.721-0.01172-36.721-0.01172l14.877-37.746-9.439-8.4691s43.395-0.00195 45.266-0.00195c0.0964-0.00125 0.18971-0.00195 0.28515-0.00195zm-25.908 9.498 2.3535 2.3789-2.5664 6.707 16.422 0.0059c1.0013 0 2.1036-0.75702 2.4648-1.6953l2.2129-5.6777c0.36265-0.94252-0.15391-1.7031-1.1524-1.7031l-19.734-0.01563zm3.1055 1.2969 16.549 0.01172-2.1875 5.6172c-0.17133 0.44259-0.7922 0.87305-1.2578 0.87305v0.002l-14.539-0.0059 2.1914-5.7363-0.75586-0.76172zm-6.4121 15.908-3.8809 9.8457 16.734-0.0039c0.9994 0 2.1041-0.76242 2.4707-1.7012l2.502-6.4375c0.36409-0.94062-0.15246-1.7012-1.1523-1.7012v0.002l-16.674-0.0039zm0.88086 1.293 15.717 0.002-2.4805 6.3789c-0.17275 0.44234-0.79878 0.875-1.2637 0.875v0.002h-14.832l2.8594-7.2578z" fill-opacity=".94118" transform="matrix(.8 0 0 -.8 206.81 426.24)" fill="#d64309"/></g></g></svg>
