<?xml version="1.0" encoding="UTF-8" standalone="no"?>
<svg
   xmlns:dc="http://purl.org/dc/elements/1.1/"
   xmlns:cc="http://creativecommons.org/ns#"
   xmlns:rdf="http://www.w3.org/1999/02/22-rdf-syntax-ns#"
   xmlns:svg="http://www.w3.org/2000/svg"
   xmlns="http://www.w3.org/2000/svg"
   viewBox="0 0 3553.1868 1806.5867"
   height="1806.5867"
   width="3553.1868"
   xml:space="preserve"
   id="svg2"
   version="1.1"><metadata
     id="metadata8"><rdf:RDF><cc:Work
         rdf:about=""><dc:format>image/svg+xml</dc:format><dc:type
           rdf:resource="http://purl.org/dc/dcmitype/StillImage" /></cc:Work></rdf:RDF></metadata><defs
     id="defs6" /><g
     transform="matrix(1.3333333,0,0,-1.3333333,0,1806.5867)"
     id="g10"><g
       transform="scale(0.1)"
       id="g12"><g
         transform="scale(1.5656)"
         id="g14"><path
           id="path16"
           style="fill:#2f2e2f;fill-opacity:1;fill-rule:nonzero;stroke:none"
           d="m 16294.3,2664.6 5.7,-210.56 h -25 c -25.1,135.45 -58.1,157.07 -235.6,157.07 v -628.22 c -1.1,-7.22 -1.3,-14.44 -0.6,-21.65 0.6,-7.22 2.1,-14.31 4.4,-21.21 2.2,-6.9 5.3,-13.48 9.1,-19.67 3.8,-6.14 8.3,-11.82 13.4,-17 5.2,-5.11 10.9,-9.58 17,-13.41 6.2,-3.83 12.8,-6.89 19.6,-9.13 7,-2.3 14,-3.77 21.3,-4.41 7.2,-0.64 14.4,-0.38 21.6,0.64 v -29.64 h -325.5 v 29.64 c 7.2,-1.02 14.4,-1.28 21.7,-0.64 7.2,0.64 14.3,2.11 21.2,4.41 6.9,2.24 13.4,5.3 19.6,9.13 6.2,3.83 11.9,8.3 17,13.41 5.2,5.18 9.6,10.86 13.5,17 3.8,6.19 6.8,12.77 9.1,19.67 2.3,6.9 3.8,13.99 4.4,21.21 0.6,7.21 0.4,14.43 -0.6,21.65 v 628.22 c -177.6,0 -210.6,-22.74 -235.7,-157.07 h -27.2 l 5.7,210.56 h 630.5 -4.6" /></g><g
         transform="scale(1.49531)"
         id="g18"><path
           id="path20"
           style="fill:#2f2e2f;fill-opacity:1;fill-rule:nonzero;stroke:none"
           d="m 15917.5,2806.53 c -210.9,0 -382.5,-173.95 -382.5,-443.27 0,-269.31 171.6,-443.25 382.5,-443.25 210.9,0 382.5,172.74 382.5,443.25 0,270.52 -170.4,443.27 -382.5,443.27 z m 0,-834.09 c -159.7,0 -251.5,153.68 -251.5,393.23 0,239.5 91.8,393.19 251.5,393.19 159.7,0 252.6,-153.69 252.6,-393.19 0,-239.55 -91.7,-395.64 -252.6,-395.64 v 2.41" /></g><g
         transform="scale(1.6349)"
         id="g22"><path
           id="path24"
           style="fill:#2f2e2f;fill-opacity:1;fill-rule:nonzero;stroke:none"
           d="m 16215,1865 -276.9,697.56 h -26.1 c 0,0 -232.2,-605.93 -260.5,-676.82 -2,-11.13 -5.7,-21.71 -11,-31.74 -5.3,-9.97 -12,-18.91 -20.1,-26.86 -8.1,-7.89 -17.3,-14.37 -27.4,-19.45 -10.1,-5.07 -20.7,-8.5 -31.9,-10.21 v -28.38 h 218 v 28.38 c -8.1,-0.49 -15.9,0.55 -23.6,3.06 -7.6,2.5 -14.6,6.36 -20.7,11.56 -6.2,5.13 -11.2,11.25 -15,18.34 -3.9,7.1 -6.3,14.62 -7.3,22.58 -1.5,9.85 -1.5,19.63 0,29.48 l 52.4,140.56 h 271.4 l 50,-136.22 c 4.8,-11.19 7.6,-22.81 8.8,-34.86 -0.7,-8.44 -3,-16.4 -7,-23.86 -4,-7.46 -9.2,-13.82 -15.8,-19.08 -6.6,-5.26 -14,-9.05 -22.2,-11.19 -8.1,-2.21 -16.4,-2.7 -24.8,-1.47 v -28.32 h 274.7 v 29.42 c -19.5,2.08 -36.9,9.23 -52.3,21.41 -15.4,12.23 -26.3,27.58 -32.7,46.11 z m -435.9,218 115.4,312.8 120,-320.38 h -231.1 l -4.3,7.58" /></g><g
         transform="scale(1.35036)"
         id="g26"><path
           id="path28"
           style="fill:#2f2e2f;fill-opacity:1;fill-rule:nonzero;stroke:none"
           d="m 16260.5,2387.37 c -7,-27.18 -18.3,-52.43 -33.8,-75.76 -15.6,-23.32 -34.6,-43.39 -57,-60.2 -22.5,-16.81 -47.1,-29.4 -73.9,-37.77 -26.7,-8.37 -54.1,-12.07 -82.2,-11.03 h -150.4 c -55.4,0 -79.1,18.51 -79.1,64.64 v 337.84 h 204.5 c 17.5,0 34.4,-3.33 50.5,-10.07 16.1,-6.67 30.4,-16.22 42.8,-28.58 12.4,-12.37 21.9,-26.66 28.6,-42.81 6.7,-16.22 10.1,-33.03 10.1,-50.5 h 31.6 v 331.18 h -34.3 c 0.7,-8.44 0.6,-16.89 -0.4,-25.34 -1.1,-8.4 -2.9,-16.64 -5.7,-24.68 -2.8,-8.02 -6.3,-15.68 -10.7,-22.98 -4.4,-7.27 -9.5,-14.03 -15.2,-20.22 -5.8,-6.22 -12.2,-11.78 -19.2,-16.67 -6.9,-4.87 -14.3,-8.99 -22,-12.31 -7.9,-3.33 -16,-5.84 -24.3,-7.48 -8.3,-1.65 -16.7,-2.4 -25.2,-2.26 h -211.1 v 316.69 c 0.3,6.08 1.7,11.84 4.6,17.24 2.8,5.46 6.5,9.99 11.4,13.68 4.8,3.72 10.3,6.18 16.2,7.47 6,1.3 12,1.26 17.9,-0.14 h 182.1 c 11,1.29 21.8,1.44 32.8,0.43 11,-0.96 21.7,-3.08 32.2,-6.33 10.5,-3.21 20.6,-7.51 30.2,-12.85 9.7,-5.32 18.6,-11.6 27,-18.78 8.3,-7.2 15.8,-15.17 22.4,-23.93 6.7,-8.78 12.4,-18.12 17.1,-28.07 4.7,-9.94 8.3,-20.29 10.8,-30.98 2.6,-10.7 4,-21.54 4.3,-32.53 h 37 l -7.9,213.73 H 15540 v -34.31 c 8.1,1.25 16.4,1.5 24.6,0.75 8.3,-0.75 16.3,-2.5 24.3,-5.2 7.7,-2.71 15.2,-6.29 22.2,-10.8 6.9,-4.47 13.3,-9.73 18.9,-15.77 5.8,-6.01 10.7,-12.64 14.8,-19.87 4.1,-7.19 7.2,-14.81 9.5,-22.79 2.3,-7.98 3.6,-16.1 3.9,-24.41 0.3,-8.27 -0.5,-16.49 -2.1,-24.62 v -632.03 c 1.5,-8.07 2.1,-16.29 1.6,-24.51 -0.3,-8.22 -1.7,-16.29 -4,-24.22 -2.3,-7.92 -5.6,-15.48 -9.7,-22.58 -4,-7.19 -8.9,-13.7 -14.6,-19.7 -5.7,-6 -12,-11.26 -18.8,-15.78 -7,-4.44 -14.3,-8.07 -22.1,-10.81 -7.8,-2.81 -15.8,-4.59 -23.9,-5.4 -8.3,-0.89 -16.5,-0.82 -24.6,0.29 v -34.36 h 699.3 l 60.7,246.82 h -39.5 v -1.33" /></g><g
         transform="scale(1.41015)"
         id="g30"><path
           id="path32"
           style="fill:#2f2e2f;fill-opacity:1;fill-rule:nonzero;stroke:none"
           d="m 16262.1,2977.28 26.6,-299.44 h -32.9 c -44.2,147.82 -126.4,237.53 -228.7,237.53 -8.5,0.89 -17,0.86 -25.5,-0.18 -8.5,-0.99 -16.8,-2.91 -24.9,-5.79 -8.1,-2.84 -15.7,-6.58 -22.9,-11.12 -7.3,-4.57 -14,-9.89 -20,-15.94 -6,-6.07 -11.4,-12.72 -15.9,-19.95 -4.6,-7.26 -8.3,-14.9 -11.2,-22.98 -2.8,-8.06 -4.7,-16.36 -5.8,-24.85 -1,-8.51 -1.1,-17.03 -0.1,-25.53 4.4,-38.38 17.9,-73.3 40.4,-104.73 22.4,-31.45 51,-55.5 85.9,-72.2 l 146.6,-98.53 c 37.7,-26.17 67.7,-59.36 89.9,-99.57 22.2,-40.21 34.3,-83.25 36.4,-129.13 0,-16.6 -1.6,-33.05 -4.8,-49.29 -3.3,-16.31 -8,-32.12 -14.4,-47.44 -6.3,-15.32 -14.1,-29.93 -23.3,-43.68 -9.3,-13.83 -19.8,-26.53 -31.5,-38.3 -11.7,-11.7 -24.5,-22.19 -38.3,-31.41 -13.8,-9.22 -28.3,-17.02 -43.6,-23.4 -15.4,-6.32 -31.2,-11.14 -47.5,-14.33 -16.3,-3.26 -32.7,-4.89 -49.3,-4.89 -64.8,10.07 -128.4,25.24 -190.8,45.45 -11.4,-1.84 -21.1,-7.02 -29.1,-15.46 -8,-8.43 -12.6,-18.43 -13.8,-29.99 h -18.9 l -38,302.02 h 32.9 c 55.6,-154.17 136.5,-245.15 252.7,-245.15 10,-0.35 19.9,0.28 29.9,1.99 9.8,1.77 19.5,4.46 28.7,8.22 9.3,3.76 18.1,8.37 26.5,13.97 8.3,5.61 15.9,12.06 23,19.29 6.9,7.16 13.1,15.04 18.4,23.55 5.3,8.51 9.7,17.44 13.1,26.87 3.4,9.43 5.8,19.15 7.2,29.08 1.4,9.92 1.7,19.92 1,29.92 0.1,16.95 -2.1,33.62 -6.6,50.07 -4.5,16.31 -11.1,31.77 -19.7,46.38 -8.7,14.61 -19.2,27.72 -31.4,39.43 -12.2,11.77 -25.9,21.62 -40.8,29.64 l -179.5,126.36 c -18.2,11.35 -34.6,24.85 -49.2,40.57 -14.7,15.7 -27,33.03 -37,52.02 -10,19.02 -17.3,38.96 -22,59.93 -4.6,20.94 -6.5,42.12 -5.5,63.57 -0.9,15.04 -0.2,29.98 2,44.88 2.3,14.92 6,29.41 11.3,43.52 5.2,14.09 11.9,27.53 20,40.24 8.1,12.71 17.4,24.42 27.9,35.19 10.5,10.79 22.1,20.36 34.6,28.71 12.6,8.36 25.8,15.32 39.8,20.91 14,5.58 28.4,9.66 43.3,12.22 14.8,2.58 29.7,3.58 44.8,3.02 60.6,0 126.3,-40.42 166.7,-40.42 5.6,-0.34 11.1,0.44 16.3,2.32 5.3,1.89 9.9,4.77 14,8.6 4.1,3.81 7.1,8.3 9.4,13.43 2.2,5.14 3.3,10.49 3.3,16.07 h 32.9 l -2.6,-1.27" /></g><g
         transform="scale(1.27635)"
         id="g34"><path
           id="path36"
           style="fill:#2f2e2f;fill-opacity:1;fill-rule:nonzero;stroke:none"
           d="m 15974.8,3268.45 v -36.3 c 9.1,-0.26 18.3,-1.52 27.2,-3.75 9.1,-2.19 17.7,-5.37 26,-9.43 8.3,-4.08 16.1,-8.97 23.4,-14.72 7.2,-5.71 13.8,-12.16 19.7,-19.32 5.8,-7.12 10.9,-14.79 15.2,-23 4.2,-8.22 7.5,-16.82 9.9,-25.74 2.4,-8.9 3.9,-17.99 4.3,-27.24 0.5,-9.23 -0.1,-18.42 -1.5,-27.55 v -527.71 l -520.7,714.76 h -222 v -36.3 c 19,0.39 37.2,-3.38 54.6,-11.17 17.3,-7.83 32.2,-19.01 44.5,-33.5 l 29.3,-39.08 v -671.49 c 0,-114.47 -39,-174.49 -129.8,-174.49 v -36.35 h 319.7 v 36.35 c -8.9,-0.15 -17.7,0.55 -26.4,2.28 -8.7,1.72 -17.1,4.38 -25.3,7.91 -8.1,3.61 -15.8,7.91 -22.9,13.16 -7.3,5.25 -13.8,11.13 -19.7,17.79 -5.9,6.66 -11.1,13.86 -15.4,21.54 -4.4,7.76 -7.8,15.91 -10.4,24.37 -2.6,8.54 -4.2,17.24 -4.9,26.09 -0.7,8.85 -0.5,17.63 0.8,26.4 v 619.9 l 598.9,-811.15 h 20.9 v 806.95 c 0,127.05 51.6,174.49 129.8,174.49 v 36.3 h -319.7 -5.5" /></g><g
         transform="scale(1.1889)"
         id="g38"><path
           id="path40"
           style="fill:#2f2e2f;fill-opacity:1;fill-rule:nonzero;stroke:none"
           d="m 15955.4,3508.88 v -38.98 c 9.8,-0.28 19.7,-1.62 29.3,-4.02 9.6,-2.36 18.9,-5.77 27.8,-10.13 8.9,-4.38 17.3,-9.63 25.1,-15.8 7.8,-6.13 14.9,-13.06 21.2,-20.74 6.3,-7.64 11.7,-15.87 16.3,-24.69 4.5,-8.83 8.1,-18.06 10.7,-27.64 2.5,-9.55 4.1,-19.3 4.6,-29.24 0.5,-9.91 -0.1,-19.77 -1.7,-29.58 v -566.53 l -559,767.35 H 15287 v -38.98 c 20.3,0.42 39.9,-3.63 58.5,-11.98 18.7,-8.42 34.6,-20.42 47.9,-35.97 l 31.4,-41.96 V 2659.1 c 0,-122.88 -42,-187.31 -139.4,-187.31 v -39.03 h 344.7 v 39.03 c -9.6,-0.34 -19.1,0.42 -28.5,2.19 -9.5,1.76 -18.6,4.54 -27.5,8.32 -8.8,3.71 -17.1,8.41 -24.9,13.97 -7.8,5.55 -15,11.94 -21.3,19.09 -6.4,7.15 -12,14.89 -16.8,23.22 -4.7,8.41 -8.5,17.15 -11.3,26.32 -2.8,9.17 -4.6,18.59 -5.4,28.1 -0.8,9.58 -0.4,19.09 0.8,28.59 v 665.49 l 643.1,-870.8 h 22.4 v 866.3 c 0,136.4 55.4,187.32 139.3,187.32 v 38.98 h -343.2 -1.4" /></g><g
         transform="scale(1.05849)"
         id="g42"><path
           id="path44"
           style="fill:#2f2e2f;fill-opacity:1;fill-rule:nonzero;stroke:none"
           d="m 16300,4289.63 v 43.78 h -373.7 l -486.5,-1306.27 -489.9,1306.27 h -380.5 v -43.78 c 168.4,0 203.7,-87.51 203.7,-245.75 v -983.11 c 0,-227.21 -64,-286.16 -207,-286.16 v -43.74 h 493.2 v 45.44 c -138.1,0 -203.7,58.86 -203.7,286.16 v 1026.84 l 505,-1360.14 h 47.2 l 518.5,1385.38 V 3062.47 c 0,-227.3 -52.3,-286.16 -195.3,-286.16 v -43.83 h 565.6 v 43.83 c -138,0 -191.9,58.86 -191.9,286.16 v 1009.99 c -2.7,13.93 -3.7,27.9 -3.1,42.04 0.6,14.1 2.8,27.99 6.6,41.6 3.8,13.59 9.1,26.6 15.9,38.98 6.8,12.41 14.9,23.87 24.4,34.37 9.4,10.5 20,19.81 31.6,27.89 11.6,8.08 23.9,14.71 37,19.96 13.2,5.19 26.8,8.86 40.8,10.96 13.9,2.05 27.9,2.55 42.1,1.37" /></g><g
         transform="scale(1.09871)"
         id="g46"><path
           id="path48"
           style="fill:#2f2e2f;fill-opacity:1;fill-rule:nonzero;stroke:none"
           d="m 16147.6,3603.91 c -1.5,10.25 -1.8,20.54 -0.9,30.87 0.9,10.29 3,20.36 6.3,30.22 3.2,9.8 7.6,19.18 13,27.98 5.4,8.78 11.9,16.88 19.1,24.23 7.4,7.29 15.4,13.67 24.2,19.13 8.9,5.41 18.2,9.76 28.1,13.06 9.7,3.25 19.8,5.31 30.2,6.23 10.3,0.89 20.6,0.59 30.9,-0.92 v 42.18 h -467.1 v -42.18 c 10.2,1.51 20.5,1.81 30.8,0.92 10.4,-0.92 20.4,-2.98 30.2,-6.23 9.9,-3.3 19.2,-7.61 28.1,-13.06 8.7,-5.46 16.8,-11.84 24.2,-19.13 7.3,-7.35 13.6,-15.4 19.1,-24.23 5.5,-8.8 9.7,-18.13 13,-27.98 3.3,-9.86 5.4,-19.93 6.3,-30.22 0.9,-10.33 0.6,-20.62 -0.9,-30.87 v -776.78 c 1.5,-10.29 1.8,-20.57 0.9,-30.85 -0.9,-10.38 -3,-20.39 -6.3,-30.31 -3.3,-9.74 -7.5,-19.12 -13,-27.94 -5.5,-8.74 -11.8,-16.84 -19.1,-24.22 -7.4,-7.28 -15.5,-13.65 -24.2,-19.11 -8.9,-5.46 -18.2,-9.83 -28.1,-13.02 -9.8,-3.36 -19.8,-5.36 -30.2,-6.27 -10.3,-0.91 -20.6,-0.64 -30.8,0.91 v -42.24 h 468.6 v 40.6 c -10.2,-1.46 -20.5,-1.82 -30.8,-0.91 -10.3,0.91 -20.4,3 -30.3,6.28 -9.8,3.19 -19.1,7.55 -27.9,13.01 -8.8,5.46 -16.9,11.83 -24.2,19.12 -7.4,7.37 -13.8,15.47 -19.1,24.21 -5.5,8.82 -9.9,18.2 -13.1,28.03 -3.2,9.83 -5.4,19.93 -6.2,30.22 -0.9,10.28 -0.7,20.57 0.8,30.85 v 778.42 h -1.6" /></g><path
         id="path50"
         style="fill:#2f2e2f;fill-opacity:1;fill-rule:nonzero;stroke:none"
         d="m 13023.3,4194.88 c -315.4,0 -572,-260.15 -572,-662.88 0,-402.7 256.6,-662.8 572,-662.8 315.4,0 572,260.1 572,662.8 0,402.73 -254.8,662.88 -572,662.88 z m 0,-1247.28 c -238.7,0 -377.7,229.8 -377.7,588 0,358.16 137.2,587.97 377.7,587.97 240.5,0 376,-229.81 376,-587.97 0,-358.2 -135.5,-591.6 -376,-591.6 v 3.6" /><path
         id="path52"
         style="fill:#2f2e2f;fill-opacity:1;fill-rule:nonzero;stroke:none"
         d="m 14703.6,4171.69 h -930.2 v -46.34 c 11.1,1.55 22.1,1.75 33.2,0.58 11,-1.1 21.8,-3.57 32.3,-7.3 10.4,-3.71 20.3,-8.6 29.6,-14.69 9.3,-6.08 17.8,-13.18 25.4,-21.3 7.5,-8.11 14.1,-17.01 19.5,-26.73 5.5,-9.65 9.7,-19.85 12.7,-30.54 3,-10.72 4.7,-21.6 5.2,-32.7 0.3,-11.12 -0.6,-22.14 -2.8,-33.01 V 3106.2 c 2.2,-10.9 3.1,-21.9 2.8,-33 -0.5,-11.1 -2.2,-22 -5.2,-32.8 -3,-10.6 -7.2,-20.8 -12.7,-30.5 -5.4,-9.7 -12,-18.6 -19.5,-26.7 -7.6,-8.1 -16.1,-15.2 -25.4,-21.3 -9.3,-6.1 -19.2,-11 -29.6,-14.7 -10.5,-3.7 -21.3,-6.1 -32.3,-7.3 -11.1,-1.1 -22.1,-1 -33.2,0.6 v -46.4 h 495.4 v 44.6 c -11.2,-1.5 -22.4,-1.7 -33.7,-0.6 -11.2,1.1 -22.1,3.5 -32.9,7.2 -10.6,3.6 -20.7,8.4 -30.3,14.4 -9.6,6 -18.4,13 -26.3,21.1 -7.9,8 -14.8,16.8 -20.7,26.5 -5.9,9.6 -10.6,19.8 -14.2,30.5 -3.5,10.7 -5.8,21.7 -6.7,32.9 -1.1,11.3 -0.7,22.5 0.9,33.7 v 413.4 h 265.4 c 23.7,0 46.4,-4.5 68.2,-13.6 21.9,-9 41.1,-21.9 57.9,-38.6 16.7,-16.7 29.5,-36 38.6,-57.8 9,-21.9 13.6,-44.6 13.6,-68.2 h 42.7 v 447.22 h -42.7 c 0.9,-11.4 0.7,-22.81 -0.6,-34.22 -1.4,-11.34 -4,-22.47 -7.7,-33.33 -3.8,-10.83 -8.6,-21.17 -14.5,-31.03 -5.8,-9.81 -12.7,-18.94 -20.5,-27.31 -7.8,-8.4 -16.4,-15.9 -25.8,-22.5 -9.4,-6.58 -19.4,-12.14 -29.9,-16.63 -10.5,-4.49 -21.5,-7.88 -32.7,-10.1 -11.2,-2.22 -22.6,-3.24 -34.1,-3.05 h -276.1 v 427.64 c -0.6,8.9 0.8,17.45 4.4,25.61 3.5,8.18 8.7,15.14 15.6,20.79 6.9,5.66 14.7,9.42 23.4,11.31 8.7,1.83 17.5,1.63 26.1,-0.68 h 256.5 c 14.8,1.74 29.6,1.93 44.3,0.58 14.8,-1.37 29.4,-4.21 43.5,-8.56 14.2,-4.35 27.9,-10.15 40.9,-17.35 13,-7.2 25,-15.65 36.3,-25.36 11.2,-9.76 21.4,-20.53 30.3,-32.38 9,-11.79 16.7,-24.44 23,-37.88 6.4,-13.44 11.3,-27.35 14.7,-41.8 3.5,-14.44 5.4,-29.08 5.8,-43.98 h 42.8 l -10.7,285.1" /><path
         id="path54"
         style="fill:#2f2e2f;fill-opacity:1;fill-rule:nonzero;stroke:none"
         d="m 10430.8,4169.9 10.7,-329.64 h -42.8 c -39.2,210.3 -90.9,245.91 -368.8,245.91 V 3102.6 c -1.7,-11.3 -2,-22.6 -1,-33.9 1,-11.3 3.3,-22.4 6.8,-33.2 3.6,-10.8 8.4,-21 14.4,-30.8 6,-9.6 13,-18.5 21,-26.5 8.1,-8.1 16.9,-15.1 26.6,-21.1 9.7,-5.9 19.9,-10.7 30.7,-14.3 10.8,-3.6 21.9,-5.9 33.3,-6.9 11.3,-1 22.6,-0.6 33.9,1 v -46.3 h -514.98 v 46.3 c 11.26,-1.6 22.56,-2 33.92,-1 11.32,1 22.39,3.3 33.19,6.9 10.81,3.6 21.05,8.4 30.74,14.3 9.68,6 18.54,13 26.6,21.1 8.06,8 15.07,16.9 21.04,26.5 5.96,9.8 10.76,20 14.34,30.8 3.57,10.8 5.85,21.9 6.86,33.2 1,11.3 0.66,22.6 -0.98,33.9 v 983.57 c -277.97,0 -329.65,-35.61 -368.84,-245.91 h -42.76 l 8.92,329.64 h 987.15" /><path
         id="path56"
         style="fill:#2f2e2f;fill-opacity:1;fill-rule:nonzero;stroke:none"
         d="m 11417.9,4123.57 v 46.33 h 392 v -46.33 c -36.9,-7.4 -70.8,-21.81 -101.8,-43.15 -30.9,-21.36 -56.4,-47.93 -76.4,-79.78 L 11316.3,3475 v -372.4 c -2.2,-11.9 -2.8,-23.9 -2,-36 0.9,-12.1 3.2,-23.9 7,-35.4 3.8,-11.5 9,-22.4 15.6,-32.6 6.5,-10.2 14.2,-19.4 23.1,-27.7 8.9,-8.2 18.7,-15.3 29.3,-21.1 10.6,-5.7 21.9,-10.1 33.6,-13.1 11.8,-3 23.7,-4.4 35.8,-4.4 12.1,0 24.1,1.6 35.8,4.6 v -46.3 H 10960 v 46.3 c 11.7,-3 23.6,-4.6 35.8,-4.6 12.1,0 24,1.4 35.8,4.4 11.7,3 22.9,7.4 33.6,13.1 10.6,5.8 20.4,12.9 29.3,21.1 8.8,8.3 16.6,17.5 23.1,27.7 6.6,10.2 11.7,21.1 15.6,32.6 3.8,11.5 6.1,23.3 7,35.4 0.8,12.1 0.1,24.1 -2.1,36 V 3459 l -338.5,534.54 c -18.4,33.62 -43.2,61.56 -74.5,83.78 -31.3,22.24 -65.9,36.44 -103.7,42.72 v 49.86 h 506.1 v -46.33 c -12.4,2.66 -24.9,3.04 -37.3,1.11 -12.6,-1.94 -24.3,-6.05 -35.3,-12.27 -11,-6.25 -20.5,-14.22 -28.6,-23.97 -8.1,-9.72 -14.1,-20.58 -18.2,-32.58 1.6,-23.42 8.2,-45.38 19.6,-65.91 l 244.1,-418.75 253,438.39 c 7.1,12.7 10.7,26.37 10.7,40.97 0,32.03 -21.4,73.01 -117.6,73.01" /><path
         id="path58"
         style="fill:#2f2e2f;fill-opacity:1;fill-rule:nonzero;stroke:none"
         d="m 8390.59,4198.4 37.4,-422.25 h -53.44 c -64.15,208.45 -178.18,334.95 -322.53,334.95 -12,1.26 -23.99,1.21 -35.99,-0.25 -11.99,-1.4 -23.68,-4.1 -35.06,-8.17 -11.37,-4 -22.17,-9.27 -32.37,-15.68 -10.23,-6.44 -19.6,-13.94 -28.16,-22.48 -8.52,-8.56 -16.01,-17.93 -22.46,-28.13 -6.43,-10.24 -11.67,-21.01 -15.7,-32.36 -4.04,-11.41 -6.77,-23.12 -8.2,-35.09 -1.39,-11.99 -1.49,-24.01 -0.24,-36 6.31,-54.12 25.3,-103.36 56.97,-147.68 31.65,-44.35 72.08,-78.26 121.21,-101.81 l 206.7,-138.95 c 53.22,-36.9 95.5,-83.7 126.85,-140.4 31.31,-56.7 48.44,-117.4 51.33,-182.1 0,-23.4 -2.27,-46.6 -6.83,-69.5 -4.57,-23 -11.34,-45.3 -20.29,-66.9 -8.95,-21.6 -19.94,-42.2 -32.94,-61.6 -12.99,-19.5 -27.77,-37.4 -44.32,-54 -16.54,-16.5 -34.54,-31.3 -53.99,-44.3 -19.45,-13 -39.99,-24 -61.62,-33 -21.61,-8.9 -43.89,-15.7 -66.84,-20.2 -22.95,-4.6 -46.12,-6.9 -69.53,-6.9 -81.67,15 -161.85,35.8 -240.54,62.4 -15.77,-3.1 -29.11,-10.5 -39.99,-22.4 -10.87,-11.8 -17.13,-25.8 -18.83,-41.8 h -51.65 l -53.47,425.9 h 46.34 c 78.41,-217.4 192.45,-345.7 356.37,-345.7 14.14,-0.5 28.17,0.4 42.12,2.9 13.93,2.4 27.46,6.2 40.58,11.5 13.15,5.3 25.59,11.8 37.33,19.8 11.72,7.9 22.52,16.9 32.34,27.1 9.86,10.1 18.53,21.2 26.01,33.2 7.51,12 13.67,24.7 18.51,38 4.83,13.3 8.22,26.9 10.17,40.9 1.95,14 2.41,28.1 1.4,42.2 -0.06,24.1 -3.38,47.8 -9.94,71 -6.57,23.2 -16.13,45.1 -28.69,65.7 -12.56,20.5 -27.7,39 -45.33,55.5 -17.63,16.4 -37.17,30.2 -58.58,41.3 l -253.01,178.1 c -25.71,16.01 -48.89,35.04 -69.48,57.22 -20.64,22.13 -38,46.59 -52.07,73.39 -14.11,26.78 -24.46,54.89 -31.03,84.46 -6.59,29.54 -9.19,59.41 -7.8,89.64 -1.26,21.22 -0.28,42.29 2.84,63.31 3.17,21.02 8.47,41.46 15.9,61.37 7.42,19.85 16.85,38.8 28.22,56.74 11.41,17.91 24.51,34.44 39.36,49.66 14.86,15.16 31.13,28.65 48.79,40.45 17.66,11.78 36.35,21.6 56.06,29.48 19.75,7.86 40.06,13.62 60.99,17.25 20.92,3.62 42.01,5.02 63.23,4.23 87.32,0 178.18,-57.01 235.2,-57.01 7.88,-0.48 15.52,0.64 22.93,3.28 7.39,2.68 13.97,6.72 19.71,12.14 5.75,5.37 10.17,11.69 13.3,18.94 3.11,7.25 4.65,14.79 4.65,22.65 h 46.32 1.79" /><path
         id="path60"
         style="fill:#2f2e2f;fill-opacity:1;fill-rule:nonzero;stroke:none"
         d="m 9087.29,3957.87 c -1.96,11.9 -2.43,23.82 -1.44,35.82 1.02,12.02 3.48,23.71 7.37,35.11 3.89,11.35 9.13,22.14 15.68,32.24 6.56,10.1 14.23,19.24 23.04,27.44 8.83,8.21 18.52,15.22 29.09,21.02 10.52,5.8 21.65,10.24 33.29,13.29 11.64,3.06 23.46,4.69 35.5,4.78 12.05,0.15 23.92,-1.21 35.65,-4 v 46.33 h -520.3 v -46.33 c 11.26,1.68 22.56,1.97 33.9,1.01 11.32,-1.01 22.41,-3.29 33.21,-6.87 10.8,-3.57 21.04,-8.36 30.73,-14.35 9.7,-5.98 18.57,-13 26.61,-21 8.05,-8.09 15.05,-16.92 21.03,-26.64 5.98,-9.66 10.77,-19.89 14.33,-30.73 3.57,-10.81 5.88,-21.89 6.87,-33.2 1,-11.35 0.68,-22.66 -0.97,-33.92 V 3104.4 c 1.65,-11.3 1.97,-22.6 0.97,-33.9 -0.99,-11.3 -3.3,-22.4 -6.87,-33.2 -3.56,-10.8 -8.35,-21.1 -14.33,-30.8 -5.98,-9.6 -12.98,-18.5 -21.03,-26.6 -8.04,-8 -16.91,-15 -26.61,-21 -9.69,-6 -19.93,-10.8 -30.73,-14.3 -10.8,-3.6 -21.89,-5.9 -33.21,-6.9 -11.34,-1 -22.64,-0.6 -33.9,1 v -46.4 h 520.3 v 44.6 c -11.73,-2.8 -23.6,-4.2 -35.65,-4 -12.04,0.1 -23.86,1.7 -35.5,4.8 -11.64,3.1 -22.77,7.5 -33.29,13.3 -10.57,5.8 -20.26,12.8 -29.09,21 -8.81,8.2 -16.48,17.4 -23.04,27.5 -6.55,10.1 -11.79,20.8 -15.68,32.2 -3.89,11.4 -6.35,23.1 -7.37,35.1 -0.99,12 -0.52,23.9 1.44,35.8 v 855.27" /><path
         id="path62"
         style="fill:#2f2e2f;fill-opacity:1;fill-rule:nonzero;stroke:none"
         d="m 6163.3,3223.8 c -9.29,-36.6 -24.39,-70.5 -45.29,-101.9 -20.92,-31.4 -46.45,-58.4 -76.57,-81.1 -30.13,-22.7 -63.15,-39.7 -99.11,-51.1 -35.92,-11.4 -72.74,-16.6 -110.43,-15.4 h -204.93 c -74.82,0 -106.88,25 -106.88,87.3 v 456.2 h 276.17 c 23.63,0 46.35,-4.5 68.18,-13.6 21.83,-9 41.11,-21.9 57.82,-38.6 16.69,-16.7 29.57,-36 38.61,-57.8 9.03,-21.9 13.57,-44.6 13.57,-68.2 h 42.78 v 447.22 h -42.78 c 0.99,-11.4 0.8,-22.81 -0.6,-34.22 -1.4,-11.34 -3.97,-22.47 -7.69,-33.33 -3.71,-10.83 -8.52,-21.17 -14.41,-31.03 -5.9,-9.81 -12.76,-18.94 -20.56,-27.31 -7.81,-8.4 -16.4,-15.9 -25.79,-22.5 -9.38,-6.58 -19.35,-12.14 -29.91,-16.63 -10.53,-4.49 -21.42,-7.88 -32.69,-10.1 -11.22,-2.22 -22.59,-3.24 -34.06,-3.05 h -285.09 v 427.64 c -0.6,8.9 0.86,17.45 4.42,25.61 3.55,8.18 8.77,15.14 15.66,20.79 6.88,5.66 14.69,9.42 23.41,11.31 8.72,1.83 17.39,1.63 26,-0.68 h 245.9 c 14.74,1.74 29.51,1.93 44.32,0.58 14.79,-1.37 29.3,-4.21 43.5,-8.56 14.18,-4.35 27.79,-10.15 40.79,-17.35 13,-7.2 25.11,-15.65 36.34,-25.36 11.22,-9.76 21.35,-20.53 30.35,-32.33 8.98,-11.84 16.64,-24.49 22.99,-37.93 6.35,-13.44 11.26,-27.35 14.71,-41.8 3.43,-14.44 5.36,-29.08 5.74,-43.98 h 42.78 l -10.69,288.68 h -921.21 v -46.35 c 11.09,1.7 22.21,1.98 33.37,0.97 11.16,-1.02 22.03,-3.33 32.61,-6.95 10.6,-3.68 20.61,-8.5 30.03,-14.6 9.4,-6.09 17.98,-13.18 25.67,-21.3 7.7,-8.12 14.33,-17.05 19.85,-26.82 5.56,-9.76 9.86,-20.02 12.92,-30.78 3.06,-10.77 4.77,-21.75 5.19,-32.96 0.38,-11.21 -0.56,-22.29 -2.83,-33.24 V 3109.7 c 2.27,-10.9 3.21,-22 2.83,-33.2 -0.42,-11.2 -2.13,-22.2 -5.19,-33 -3.06,-10.8 -7.36,-21 -12.92,-30.7 -5.52,-9.8 -12.15,-18.7 -19.85,-26.8 -7.69,-8.2 -16.27,-15.3 -25.67,-21.4 -9.42,-6 -19.43,-10.9 -30.03,-14.6 -10.58,-3.6 -21.45,-5.9 -32.61,-7 -11.16,-1 -22.28,-0.6 -33.37,1 v -46.3 h 944.37 l 83.76,333.2 h -53.48 v -7.1" /><path
         id="path64"
         style="fill:#2f2e2f;fill-opacity:1;fill-rule:nonzero;stroke:none"
         d="m 7380.3,2995.7 c -30.3,35.6 -313.61,424.1 -375.96,511.4 20.67,1.2 41.05,4.5 61.09,9.7 20.06,5.2 39.4,12.2 58.11,21.2 18.69,8.9 36.31,19.63 52.94,32 16.62,12.37 31.89,26.2 45.82,41.56 13.93,15.32 26.27,31.84 37,49.57 10.73,17.73 19.64,36.29 26.77,55.77 7.13,19.42 12.33,39.37 15.58,59.86 3.25,20.44 4.54,41.03 3.8,61.75 0,199.53 -149.68,333.18 -422.29,333.18 h -504.24 v -46.34 c 11.07,1.7 22.17,2.03 33.34,1.01 11.16,-1.01 22.03,-3.38 32.63,-7 10.6,-3.67 20.59,-8.51 30,-14.6 9.45,-6.03 17.99,-13.13 25.71,-21.3 7.7,-8.12 14.32,-17.05 19.85,-26.81 5.53,-9.73 9.83,-20.02 12.89,-30.79 3.06,-10.79 4.8,-21.74 5.19,-32.95 0.41,-11.22 -0.55,-22.29 -2.81,-33.25 V 3106.2 c 2.05,-11 2.82,-22 2.26,-33.1 -0.52,-11.2 -2.38,-22.1 -5.49,-32.8 -3.14,-10.6 -7.5,-20.8 -13.03,-30.4 -5.55,-9.7 -12.17,-18.5 -19.82,-26.7 -7.66,-8 -16.13,-15.1 -25.46,-21.2 -9.36,-6.1 -19.26,-10.9 -29.75,-14.7 -10.5,-3.7 -21.28,-6.2 -32.35,-7.3 -11.08,-1.2 -22.12,-1 -33.16,0.5 v -46.4 h 495.34 v 44.6 c -11.04,-1.5 -22.09,-1.6 -33.18,-0.4 -11.07,1.1 -21.84,3.5 -32.35,7.3 -10.49,3.7 -20.4,8.6 -29.74,14.6 -9.33,6.1 -17.8,13.2 -25.47,21.3 -7.65,8.1 -14.24,16.9 -19.81,26.6 -5.53,9.6 -9.87,19.8 -13.02,30.5 -3.11,10.7 -4.99,21.6 -5.51,32.7 -0.55,11.1 0.19,22.2 2.27,33.1 v 376 h 98 l 415.18,-591.6 h 279.74 v 42.7 c -52.88,2.1 -96.26,23.5 -130.07,64.2 z m -662.85,561.25 v 431.22 c 0,89.1 17.83,110.47 115.83,110.47 18.84,3.66 37.88,5.11 57.08,4.39 19.22,-0.78 38.06,-3.73 56.57,-8.84 18.52,-5.18 36.19,-12.38 53.04,-21.65 16.83,-9.22 32.36,-20.3 46.64,-33.2 14.27,-12.86 26.85,-27.21 37.77,-43.01 10.91,-15.8 19.89,-32.66 26.89,-50.53 7,-17.93 11.84,-36.39 14.55,-55.43 2.7,-19 3.17,-38.09 1.45,-57.21 0,-195.99 -147.89,-276.21 -368.84,-276.21 h -40.98" /><path
         id="path66"
         style="fill:#2f2e2f;fill-opacity:1;fill-rule:nonzero;stroke:none"
         d="m 3451.39,3959.66 c -1.65,11.26 -1.98,22.57 -0.98,33.91 0.98,11.31 3.27,22.38 6.86,33.21 3.57,10.77 8.36,21.07 14.35,30.74 5.96,9.65 12.97,18.55 21.02,26.62 8.04,8.01 16.9,15.02 26.59,21.02 9.7,5.99 19.94,10.72 30.73,14.35 10.84,3.57 21.9,5.84 33.23,6.85 11.33,0.97 22.64,0.64 33.89,-1.01 v 46.34 h -514.92 v -46.34 c 11.26,1.65 22.56,1.98 33.89,1.01 11.33,-1.01 22.4,-3.28 33.2,-6.85 10.83,-3.63 21.07,-8.36 30.76,-14.35 9.69,-6 18.55,-13.01 26.59,-21.02 8.06,-8.07 15.06,-16.97 21.03,-26.62 5.98,-9.67 10.74,-19.92 14.35,-30.74 3.58,-10.83 5.87,-21.9 6.86,-33.21 0.99,-11.34 0.67,-22.65 -0.99,-33.91 V 3106.2 c 1.64,-11.3 1.98,-22.6 0.99,-33.9 -0.99,-11.4 -3.28,-22.4 -6.86,-33.3 -3.61,-10.7 -8.37,-21 -14.35,-30.7 -5.97,-9.6 -12.97,-18.5 -21.03,-26.6 -8.04,-8 -16.9,-15 -26.59,-21 -9.69,-6 -19.93,-10.8 -30.76,-14.3 -10.8,-3.7 -21.87,-5.9 -33.2,-6.9 -11.33,-1 -22.63,-0.7 -33.89,1 v -46.4 h 514.92 v 44.6 c -11.25,-1.6 -22.56,-2 -33.89,-1 -11.33,1 -22.39,3.3 -33.23,6.9 -10.79,3.5 -21.03,8.3 -30.73,14.3 -9.69,6 -18.55,13 -26.59,21 -8.05,8.1 -15.06,17 -21.02,26.6 -5.99,9.7 -10.78,20 -14.35,30.8 -3.59,10.8 -5.88,21.9 -6.86,33.2 -1,11.3 -0.67,22.6 0.98,33.9 v 855.26 0" /><path
         id="path68"
         style="fill:#2f2e2f;fill-opacity:1;fill-rule:nonzero;stroke:none"
         d="m 4294.19,4125.35 v 46.34 h -468.62 v -46.34 c 18.39,-1.63 36.07,-6.04 53.08,-13.19 17.01,-7.11 32.54,-16.67 46.58,-28.66 14.06,-11.97 25.94,-25.75 35.71,-41.45 9.73,-15.67 16.88,-32.42 21.43,-50.31 L 4443.86,2871 h 30.3 c 0,0 368.83,1029.86 402.68,1120.74 8.34,34.46 25.44,63.84 51.31,88.09 25.87,24.26 56.3,39.43 91.23,45.52 v 46.34 h -356.37 v -46.34 c 14.97,2.62 29.76,1.98 44.46,-1.83 14.67,-3.88 27.9,-10.55 39.67,-20.11 11.81,-9.56 21.07,-21.12 27.84,-34.68 6.79,-13.58 10.44,-27.98 11,-43.16 -0.66,-17.25 -4.23,-33.87 -10.71,-49.86 l -274.4,-760.91 -318.94,764.48 c -7.14,18.31 -10.7,37.31 -10.7,57.01 0,58.77 42.76,89.06 122.96,89.06" /><path
         id="path70"
         style="fill:#2f2e2f;fill-opacity:1;fill-rule:nonzero;stroke:none"
         d="m 0,4540.53 c 138.977,0 212.031,-69.49 212.031,-269.05 V 3480.4 c -2.539,-20.5 -3.906,-41 -4.133,-61.5 -0.21,-20.6 0.735,-41.1 2.805,-61.6 2.102,-20.4 5.344,-40.7 9.707,-60.8 4.387,-20.1 9.883,-39.9 16.504,-59.4 6.602,-19.5 14.277,-38.5 23.059,-57.1 8.765,-18.6 18.523,-36.7 29.324,-54.2 10.801,-17.5 22.566,-34.3 35.254,-50.5 12.715,-16.2 26.262,-31.6 40.715,-46.3 14.441,-14.6 29.636,-28.4 45.632,-41.4 15.997,-12.9 32.665,-24.9 50.008,-35.9 17.348,-11.1 35.285,-21.1 53.762,-30.2 18.484,-9 37.402,-17 56.777,-23.9 19.375,-6.8 39.082,-12.6 59.121,-17.3 20.032,-4.7 40.274,-8.2 60.684,-10.6 20.449,-2.4 40.93,-3.6 61.516,-3.7 20.562,-0.1 41.082,1 61.511,3.2 19.493,-1.4 39.024,-1.8 58.543,-1.1 19.524,0.7 38.977,2.5 58.332,5.3 19.328,2.8 38.457,6.6 57.395,11.4 18.923,4.9 37.543,10.7 55.833,17.6 18.3,6.9 36.18,14.7 53.62,23.5 17.46,8.8 34.4,18.5 50.81,29.1 16.4,10.6 32.19,22.1 47.35,34.4 15.18,12.4 29.62,25.4 43.39,39.3 13.75,13.9 26.72,28.5 38.91,43.7 12.17,15.4 23.5,31.2 33.96,47.7 10.46,16.6 20.02,33.6 28.65,51.1 8.64,17.5 16.31,35.5 23,53.8 6.7,18.4 12.38,37 17.06,56 4.69,19 8.34,38.2 10.95,57.5 2.61,19.4 4.18,38.8 4.69,58.4 0.52,19.5 0,39 -1.59,58.5 v 862.41 c -4.19,14.73 -6.41,29.81 -6.7,45.13 -0.27,15.37 1.39,30.5 5.03,45.39 3.62,14.93 9.08,29.12 16.38,42.6 7.29,13.54 16.18,25.86 26.66,37.07 10.49,11.21 22.21,20.87 35.21,29.04 12.98,8.16 26.79,14.6 41.43,19.19 14.65,4.59 29.62,7.25 44.94,7.96 15.33,0.74 30.49,-0.47 45.5,-3.66 v 46.34 h -513.15 v -46.34 c 142.55,0 203.11,-64.14 206.69,-235.19 3.56,-171.05 12.47,-625.41 12.47,-890.94 1.08,-29.8 -0.94,-59.4 -6.1,-88.8 -5.18,-29.5 -13.37,-58 -24.56,-85.7 -11.21,-27.7 -25.17,-53.9 -41.89,-78.6 -16.74,-24.7 -35.88,-47.4 -57.41,-68.1 -21.53,-20.7 -44.98,-38.9 -70.38,-54.7 -25.36,-15.7 -52.11,-28.6 -80.21,-38.7 -28.1,-10.1 -56.942,-17.1 -86.539,-21.2 -29.59,-3.9 -59.289,-4.8 -89.055,-2.5 -30.828,-2.2 -61.543,-1.1 -92.129,3.4 -30.586,4.5 -60.32,12.2 -89.199,23.2 -28.898,11 -56.27,24.9 -82.09,41.9 -25.859,17 -49.543,36.5 -71.101,58.7 -21.555,22.1 -40.469,46.4 -56.743,72.6 -16.257,26.3 -29.468,54.1 -39.668,83.2 -10.195,29.2 -17.128,59.2 -20.781,89.9 -3.648,30.7 -3.933,61.4 -0.867,92.2 v 890.88 c -3.555,14.19 -5.293,28.65 -5.266,43.34 0.024,14.64 1.836,29.08 5.411,43.29 3.605,14.2 8.871,27.78 15.8,40.69 6.946,12.9 15.344,24.78 25.215,35.61 9.863,10.82 20.91,20.35 33.117,28.41 12.215,8.12 25.215,14.64 39.035,19.57 13.829,4.88 28.028,8.02 42.618,9.42 14.597,1.39 29.136,1.01 43.64,-1.21 v 35.67 H 0 v -46.34 0" /><path
         id="path72"
         style="fill:#2f2e2f;fill-opacity:1;fill-rule:nonzero;stroke:none"
         d="m 2426.85,4171.69 v -46.34 c 12.06,-0.29 23.96,-1.88 35.69,-4.74 11.71,-2.9 23,-7 33.82,-12.36 10.82,-5.37 20.93,-11.84 30.34,-19.38 9.4,-7.6 17.88,-16.09 25.44,-25.51 7.54,-9.43 13.99,-19.52 19.33,-30.35 5.34,-10.82 9.45,-22.13 12.33,-33.87 2.87,-11.69 4.43,-23.58 4.73,-35.67 0.26,-12.08 -0.78,-24.05 -3.12,-35.91 V 3254.1 l -664.6,912.27 h -288.67 v -46.33 c 24.31,0.43 47.52,-4.3 69.68,-14.3 22.14,-10.01 41.09,-24.21 56.84,-42.73 l 37.4,-49.9 V 3161.4 c 0,-146.1 -49.89,-222.7 -165.69,-222.7 v -46.4 h 408.03 v 46.4 c -11.41,-0.4 -22.72,0.5 -33.95,2.6 -11.22,2.1 -22.06,5.4 -32.57,9.9 -10.51,4.4 -20.39,10 -29.69,16.6 -9.28,6.6 -17.74,14.2 -25.37,22.7 -7.64,8.5 -14.28,17.7 -19.91,27.6 -5.6,10 -10.1,20.4 -13.46,31.3 -3.33,10.9 -5.48,22.1 -6.38,33.4 -0.91,11.4 -0.6,22.7 0.98,34 V 3908 l 764.38,-1035.3 h 30.3 v 1029.94 c 0,162.17 65.93,222.71 165.72,222.71 v 46.34 h -411.6" /><path
         id="path74"
         style="fill:#841f32;fill-opacity:1;fill-rule:nonzero;stroke:none"
         d="m 3431.78,1572 h 475.74 c 50.81,0.1 101.13,-4.9 150.98,-14.7 49.84,-9.9 98.23,-24.5 145.2,-43.9 46.94,-19.4 91.54,-43.2 133.83,-71.4 42.26,-28.2 81.34,-60.3 117.29,-96.2 35.96,-35.9 68.05,-75 96.28,-117.2 28.25,-42.3 52.1,-86.8 71.54,-133.8 19.47,-46.9 34.17,-95.3 44.07,-145.101 9.93,-49.898 14.88,-100.199 14.88,-151 0,-50.801 -4.95,-101.101 -14.88,-151 -9.9,-49.801 -24.6,-98.097 -44.03,-145.101 -19.48,-46.899 -43.33,-91.496 -71.58,-133.797 -28.23,-42.203 -60.32,-81.203 -96.28,-117.102 -35.95,-36 -75.03,-68 -117.29,-96.199 C 4295.24,127.301 4250.64,103.5 4203.7,84 4156.73,64.6992 4108.34,50 4058.5,40.1992 4008.65,30.3008 3958.33,25.3984 3907.52,25.3984 H 3431.78 Z M 3891.49,305.098 c 32.41,0 64.5,3.203 96.28,9.504 31.8,6.398 62.66,15.699 92.59,28.097 29.96,12.399 58.4,27.602 85.33,45.699 26.95,17.903 51.88,38.403 74.81,61.301 22.91,22.899 43.37,47.899 61.37,74.801 18.02,26.898 33.22,55.398 45.61,85.398 12.39,29.903 21.78,60.704 28.11,92.5 6.29,31.801 9.46,63.903 9.46,96.301 0,32.403 -3.17,64.5 -9.46,96.301 -6.33,31.801 -15.72,62.699 -28.11,92.598 -12.39,29.902 -27.59,58.402 -45.61,85.302 -18,27 -38.46,51.9 -61.37,74.8 -22.93,22.9 -47.86,43.4 -74.81,61.4 -26.93,18 -55.37,33.2 -85.33,45.6 -29.93,12.4 -60.79,21.8 -92.59,28.1 -31.78,6.3 -63.87,9.5 -96.28,9.5 H 3750.71 V 305.098 h 140.78" /><path
         id="path76"
         style="fill:#841f32;fill-opacity:1;fill-rule:nonzero;stroke:none"
         d="m 5008.71,994.699 h 306.45 V 816.5 c 10.19,29.301 24.66,56.199 43.38,80.801 18.76,24.699 40.87,45.801 66.33,63.398 25.46,17.602 53,30.899 82.67,39.701 29.67,8.9 60,12.9 90.94,12.1 53.29,-0.1 103.17,-13.199 149.65,-39.199 l -99.75,-276.102 c -39.67,18 -81.25,25.699 -124.74,23.102 -138.97,0 -213.83,-64.102 -213.83,-270.801 V 25.3984 h -301.1 V 994.699" /><path
         id="path78"
         style="fill:#841f32;fill-opacity:1;fill-rule:nonzero;stroke:none"
         d="m 5983.34,1349.3 c -0.22,25.8 4.46,50.6 14.1,74.5 9.64,23.8 23.5,45 41.53,63.3 18.06,18.5 38.93,32.7 62.63,42.7 23.69,10.1 48.43,15.3 74.17,15.4 25.76,0.3 50.57,-4.4 74.47,-14 23.87,-9.7 45.01,-23.5 63.39,-41.6 18.36,-18 32.59,-38.9 42.68,-62.5 10.07,-23.8 15.21,-48.5 15.45,-74.3 0.25,-25.7 -4.47,-50.5 -14.1,-74.4 -9.61,-23.9 -23.46,-45 -41.51,-63.4 -18.05,-18.4 -38.92,-32.6 -62.62,-42.7 -23.72,-10 -48.42,-15.2 -74.17,-15.4 -12.79,-0.3 -25.47,0.7 -38.05,3 -12.58,2.3 -24.8,5.8 -36.69,10.6 -11.89,4.7 -23.16,10.6 -33.9,17.5 -10.7,7 -20.62,15 -29.72,23.9 -9.15,9 -17.29,18.7 -24.47,29.3 -7.17,10.6 -13.24,21.8 -18.2,33.6 -4.94,11.8 -8.67,23.9 -11.19,36.5 -2.53,12.5 -3.8,25.2 -3.8,38 z m 41,-356.402 h 306.47 V 25.3984 h -306.47 v 969.3006 -1.801" /><path
         id="path80"
         style="fill:#841f32;fill-opacity:1;fill-rule:nonzero;stroke:none"
         d="m 6592.74,994.699 h 338.54 l 137.21,-288.597 c 34.3,-83.204 61.01,-168.704 80.15,-256.602 17.6,87.602 42.53,173.199 74.86,256.602 l 131.83,288.597 h 311.85 L 7152.22,7.59766 h -24.95 L 6592.74,994.699" /><path
         id="path82"
         style="fill:#841f32;fill-opacity:1;fill-rule:nonzero;stroke:none"
         d="m 8399.48,260.602 c 89.53,-0.403 170.91,25.097 244.11,76.597 L 8821.78,148.301 C 8764.9,98.3984 8700.66,61.1016 8629.09,36.3984 8557.54,11.8008 8483.97,1.59766 8408.39,5.80078 8057.39,7.59766 7840,214.301 7840,511.898 c 0.19,34.301 3.84,68.2 10.91,101.801 7.12,33.602 17.5,66 31.19,97.5 13.71,31.5 30.45,61.199 50.22,89.301 19.73,28 42.12,53.801 67.1,77.301 25.01,23.5 52.13,44.301 81.35,62.199 29.21,18 59.96,32.898 92.18,44.602 32.26,11.699 65.36,20.098 99.3,25.098 33.94,5 68.04,6.5 102.3,4.6 356.37,0 534.55,-258.402 513.16,-598.698 h -739.46 c 8.36,-25.704 20.87,-49.204 37.6,-70.403 16.69,-21.301 36.56,-39 59.56,-53.199 23,-14.199 47.75,-24 74.25,-29.402 26.49,-5.399 53.09,-6.098 79.82,-1.996 z m 178.19,333.199 c 0.14,12.797 -1.12,25.5 -3.73,38.097 -2.61,12.602 -6.55,24.7 -11.76,36.403 -5.24,11.699 -11.67,22.699 -19.28,33 -7.64,10.398 -16.26,19.801 -25.91,28.199 -9.64,8.5 -20.07,15.801 -31.3,22 -11.21,6.199 -22.98,11.199 -35.29,14.801 -12.29,3.699 -24.82,6 -37.61,6.898 -12.8,1 -25.53,0.602 -38.24,-1.199 -26.89,3 -53.35,0.801 -79.39,-6.5 -26.06,-7.301 -49.74,-19.398 -71.03,-36 -21.34,-16.699 -38.71,-36.801 -52.15,-60.301 -13.44,-23.398 -21.93,-48.597 -25.51,-75.398 h 429.44 1.76" /><path
         id="path84"
         style="fill:#841f32;fill-opacity:1;fill-rule:nonzero;stroke:none"
         d="m 9206.65,994.699 h 306.48 V 836.102 c 14.48,27.898 32.56,53.199 54.21,75.898 21.68,22.602 46.08,41.898 73.19,57.699 27.13,15.699 55.93,27.403 86.36,35.001 30.45,7.6 61.36,10.8 92.73,9.6 211.98,0 356.38,-154.999 356.38,-429.402 V 25.3984 H 9869.5 V 559.898 c 2.49,11.602 3.61,23.204 3.3,35 -0.28,11.801 -1.95,23.403 -5.02,34.801 -3.04,11.301 -7.41,22.199 -13.06,32.5 -5.66,10.399 -12.45,19.903 -20.38,28.602 -7.92,8.801 -16.79,16.398 -26.54,23 -9.77,6.597 -20.19,12 -31.23,16.097 -11.03,4.102 -22.42,6.801 -34.11,8.204 -11.72,1.5 -23.41,1.5 -35.1,0 -13.15,1.296 -26.29,1.097 -39.39,-0.602 -13.09,-1.602 -25.84,-4.699 -38.26,-9.199 -12.42,-4.403 -24.19,-10.301 -35.33,-17.403 -11.11,-7.097 -21.33,-15.296 -30.61,-24.699 -9.3,-9.398 -17.44,-19.699 -24.44,-30.898 -7.01,-11.203 -12.71,-23 -17.09,-35.5 -4.39,-12.403 -7.35,-25.199 -8.9,-38.301 -1.5,-13.102 -1.59,-26.199 -0.21,-39.398 V 25.3984 H 9206.65 V 994.699" /><path
         id="path86"
         style="fill:#841f32;fill-opacity:1;fill-rule:nonzero;stroke:none"
         d="m 11225.4,388.898 v 356.403 h -142.5 v 249.398 h 142.5 V 1499 h 304.7 V 994.699 h 247.7 V 739.898 h -238.7 V 383.602 c 0,-98.102 32,-117.602 80.1,-117.602 40,2.301 75.6,16 107,40.898 L 11842,93.1016 C 11803.6,62.5 11761.2,39.5 11714.6,24.1992 11668,8.80078 11620.2,2.10156 11571.1,4 c -196,3.59766 -345.7,94.5 -345.7,384.898" /><path
         id="path88"
         style="fill:#841f32;fill-opacity:1;fill-rule:nonzero;stroke:none"
         d="m 12066.5,508.301 c -2.2,35.5 -0.8,70.797 4.2,106 4.9,35.199 13.2,69.5 25,103.097 11.7,33.5 26.7,65.602 44.9,96.102 18.1,30.5 39.1,59 62.9,85.301 23.9,26.398 50.1,50.097 78.6,71.297 28.6,21.101 59,39.202 91.2,54.302 32.1,15.1 65.5,26.8 100,35.2 34.5,8.5 69.6,13.4 105,14.9 35.5,1.4 70.9,-0.7 105.9,-6.3 35.1,-5.6 69.3,-14.6 102.6,-27 33.3,-12.4 65.1,-28 95.2,-46.7 30.2,-18.801 58.3,-40.301 84.2,-64.699 25.9,-24.301 49.1,-50.903 69.7,-79.903 20.6,-29 38.1,-59.699 52.5,-92.199 14.5,-32.5 25.6,-66 33.3,-100.699 7.8,-34.699 12,-69.801 12.8,-105.301 0.7,-35.5 -2,-70.801 -8.3,-105.699 -6.3,-35 -15.9,-69.102 -29,-102.102 -13.1,-33.097 -29.3,-64.5 -48.6,-94.296 -19.3,-29.801 -41.4,-57.403 -66.2,-82.801 -24.9,-25.5 -52,-48.199 -81.3,-68.1994 -29.4,-20 -60.5,-36.9024 -93.2,-50.7032 C 12775.2,34.0977 12741.4,23.6016 12706.6,16.5 12671.7,9.39844 12636.5,5.80078 12601,5.80078 12566.8,4 12532.7,5.60156 12498.8,10.6992 c -33.9,5.1016 -66.9,13.6016 -99.1,25.4024 -32.2,11.6992 -62.8,26.5976 -92,44.5976 -29.2,18 -56.3,38.6988 -81.2,62.1988 -25,23.5 -47.4,49.204 -67.2,77.301 -19.7,27.903 -36.4,57.602 -50.2,89 -13.7,31.403 -24.2,63.903 -31.4,97.399 -7.2,33.5 -10.9,67.402 -11.2,101.703 z m 751.9,0 c 2,15.5 2.3,31.199 1,46.797 -1.4,15.601 -4.3,30.902 -8.9,45.902 -4.6,15 -10.7,29.398 -18.4,43.098 -7.6,13.601 -16.7,26.402 -27,38.203 -10.4,11.699 -21.9,22.301 -34.5,31.597 -12.6,9.403 -26.1,17.204 -40.4,23.7 -14.3,6.5 -29.1,11.402 -44.4,14.703 -15.4,3.301 -30.9,4.898 -46.6,4.898 -15.7,0 -31.2,-1.597 -46.5,-4.898 -15.3,-3.301 -30.2,-8.203 -44.4,-14.703 -14.3,-6.496 -27.8,-14.297 -40.4,-23.7 -12.6,-9.296 -24.1,-19.898 -34.5,-31.597 -10.4,-11.801 -19.4,-24.602 -27,-38.203 -7.7,-13.7 -13.8,-28.098 -18.4,-43.098 -4.6,-15 -7.6,-30.301 -8.9,-45.902 -1.3,-15.598 -1,-31.297 1,-46.797 -2,-15.602 -2.3,-31.199 -1,-46.801 1.3,-15.602 4.3,-31 8.9,-46 4.6,-15 10.7,-29.301 18.4,-43 7.6,-13.699 16.6,-26.398 27,-38.199 10.4,-11.801 21.9,-22.301 34.5,-31.703 12.6,-9.297 26.1,-17.2 40.4,-23.598 14.2,-6.5 29.1,-11.402 44.4,-14.699 15.3,-3.301 30.8,-5 46.5,-5 15.7,0 31.2,1.699 46.6,5 15.3,3.297 30.1,8.199 44.4,14.699 14.3,6.398 27.8,14.301 40.4,23.598 12.6,9.402 24.1,19.902 34.5,31.703 10.3,11.801 19.4,24.5 27,38.199 7.7,13.699 13.8,28 18.4,43 4.6,15 7.5,30.398 8.9,46 1.3,15.602 1,31.199 -1,46.801" /><path
         id="path90"
         style="fill:#841f32;fill-opacity:1;fill-rule:nonzero;stroke:none"
         d="m 14110.2,1572 h 475.8 c 50.8,0.1 101.1,-4.9 151,-14.7 49.8,-9.9 98.2,-24.5 145.1,-43.9 47,-19.4 91.6,-43.2 133.9,-71.4 42.2,-28.2 81.3,-60.3 117.2,-96.2 36,-35.9 68.1,-75 96.3,-117.2 28.3,-42.3 52.1,-86.8 71.6,-133.8 19.4,-46.9 34.1,-95.3 44,-145.101 10,-49.898 14.9,-100.199 14.9,-151 0,-50.801 -4.9,-101.101 -14.8,-151 -10,-49.801 -24.7,-98.097 -44.1,-145.101 -19.5,-46.899 -43.3,-91.496 -71.6,-133.797 -28.2,-42.203 -60.3,-81.203 -96.3,-117.102 -35.9,-36 -75,-68 -117.2,-96.199 -42.3,-28.199 -86.9,-52 -133.9,-71.5 -46.9,-19.3008 -95.3,-34 -145.2,-43.8008 -49.8,-9.8984 -100.1,-14.8008 -150.9,-14.8008 h -475.8 z m 459.7,-1266.902 c 32.4,0 64.5,3.203 96.3,9.504 31.8,6.398 62.6,15.699 92.6,28.097 30,12.399 58.4,27.602 85.3,45.699 27,17.903 51.9,38.403 74.8,61.301 22.9,22.899 43.4,47.899 61.4,74.801 18,26.898 33.2,55.398 45.6,85.398 12.4,29.903 21.8,60.704 28.1,92.5 6.3,31.801 9.5,63.903 9.5,96.301 0,32.403 -3.2,64.5 -9.5,96.301 -6.3,31.801 -15.7,62.699 -28.1,92.598 -12.4,29.902 -27.6,58.402 -45.6,85.302 -18,27 -38.5,51.9 -61.4,74.8 -22.9,22.9 -47.8,43.4 -74.8,61.4 -26.9,18 -55.3,33.2 -85.3,45.6 -30,12.4 -60.8,21.8 -92.6,28.1 -31.8,6.3 -63.9,9.5 -96.3,9.5 h -137.2 V 305.098 h 140.8 -3.6" /><path
         id="path92"
         style="fill:#841f32;fill-opacity:1;fill-rule:nonzero;stroke:none"
         d="m 15710.3,1349.3 c 0,12.7 1.2,25.4 3.8,37.9 2.5,12.5 6.2,24.6 11.2,36.3 4.9,11.8 11,22.9 18.2,33.4 7.2,10.6 15.3,20.2 24.5,29.1 9.2,8.9 19.1,16.8 29.8,23.7 10.7,6.9 22,12.6 33.9,17.3 11.9,4.6 24.1,8.1 36.6,10.2 12.6,2.2 25.3,3.1 38,2.7 25.5,0 50,-4.8 73.6,-14.6 23.6,-9.8 44.4,-23.7 62.5,-41.7 18,-18.1 31.9,-38.8 41.7,-62.4 9.8,-23.6 14.7,-48.2 14.7,-73.7 0,-25.5 -4.9,-50 -14.7,-73.6 -9.8,-23.6 -23.7,-44.4 -41.7,-62.4 -18.1,-18.1 -38.9,-32 -62.5,-41.8 -23.6,-9.8 -48.1,-14.6 -73.6,-14.6 -12.9,-0.3 -25.6,0.8 -38.3,3.1 -12.6,2.3 -24.9,5.8 -36.9,10.6 -11.9,4.8 -23.2,10.8 -34,17.8 -10.8,7.1 -20.7,15.2 -29.8,24.2 -9.2,9.1 -17.3,18.9 -24.5,29.6 -7.1,10.7 -13.1,22 -18.1,33.9 -4.8,11.9 -8.5,24.1 -10.9,36.8 -2.5,12.6 -3.6,25.3 -3.5,38.2 z m 41,-356.402 h 306.5 V 25.3984 h -306.5 v 969.3006 -1.801" /><g
         transform="scale(1.05553)"
         id="g94"><path
           id="path96"
           style="fill:#841f32;fill-opacity:1;fill-rule:nonzero;stroke:none"
           d="m 15493.1,176.025 168.8,150.161 c 30.5,-29.842 65.5,-53.053 104.9,-69.729 39.2,-16.579 80.3,-25.391 123,-26.43 94.5,0 124.9,16.864 124.9,55.703 0,38.75 -55.7,59.119 -204.2,92.848 -17.9,1.891 -35.5,5.492 -52.8,10.61 -17.2,5.114 -33.9,11.746 -49.9,19.987 -16.1,8.149 -31.3,17.72 -45.7,28.615 -14.2,10.987 -27.4,23.114 -39.6,36.474 -12.1,13.356 -22.9,27.663 -32.4,43.01 -9.4,15.254 -17.5,31.356 -24.1,48.128 -6.6,16.768 -11.6,34.01 -15,51.633 -3.5,17.715 -5.3,35.527 -5.5,53.62 0,205.868 158.7,290.281 356.2,290.281 62.6,3.79 123.4,-5.399 182.2,-27.474 58.8,-22.075 110.6,-55.137 155.4,-99.098 L 16084,665.54 c -48.4,42.348 -104.7,65.37 -168.8,69.256 -65.9,0 -99.6,-16.961 -99.6,-54.098 0,-37.044 57.4,-57.413 182.3,-86.119 19,-0.567 37.8,-2.935 56.3,-7.01 18.7,-4.074 36.8,-9.758 54.3,-17.145 17.7,-7.298 34.3,-16.202 50.3,-26.623 16,-10.422 30.8,-22.168 44.7,-35.242 13.7,-13.171 26.2,-27.382 37.5,-42.825 11.2,-15.347 20.9,-31.642 29.2,-48.791 8.2,-17.145 14.8,-34.957 19.9,-53.242 5,-18.378 8.3,-37.041 9.9,-55.989 0,-168.827 -87.7,-305.62849 -376.4,-305.62849 -40.2,-3.69333 -80.3,-2.557204 -120.2,3.22334 -40,5.96555 -78.7,16.38685 -116.2,31.54505 -37.4,15.0657 -72.5,34.3909 -105.3,57.9794 -32.9,23.4957 -62.5,50.5927 -88.8,81.1937" /></g><g
         transform="scale(1.12899)"
         id="g98"><path
           id="path100"
           style="fill:#841f32;fill-opacity:1;fill-rule:nonzero;stroke:none"
           d="m 15466.7,453.411 c -0.2,30.472 2.7,60.587 8.8,90.523 6.1,29.852 15.1,58.815 27.2,86.892 11.9,27.991 26.7,54.474 44.2,79.451 17.5,24.977 37.3,47.92 59.6,68.825 22.2,20.902 46.3,39.326 72.3,55.179 26,15.857 53.3,28.967 82,39.239 28.8,10.276 58.2,17.539 88.4,21.701 30.2,4.252 60.5,5.225 90.9,3.19 34.7,1.858 69.2,-0.533 103.3,-7.262 34.1,-6.643 66.9,-17.539 98.2,-32.33 31.5,-14.971 60.6,-33.395 87.4,-55.539 26.8,-22.143 50.4,-47.207 71,-75.288 l -192.6,-157.839 c -18.6,27.991 -42.7,49.955 -72.3,65.901 -29.7,15.854 -61.3,23.912 -95,24.092 -13.3,0.353 -26.6,-0.619 -39.6,-3.014 -13.2,-2.48 -25.8,-6.2 -38.1,-11.424 -12.4,-5.138 -24,-11.515 -34.9,-19.22 -10.9,-7.619 -20.9,-16.387 -30,-26.13 -9,-9.833 -17,-20.462 -23.7,-31.977 -6.8,-11.514 -12.2,-23.648 -16.4,-36.315 -4.2,-12.667 -7,-25.597 -8.3,-38.883 -1.5,-13.286 -1.4,-26.572 0.1,-39.772 -1.6,-13.552 -1.9,-27.015 -0.8,-40.564 1.3,-13.466 3.9,-26.662 7.9,-39.596 4.1,-13.019 9.4,-25.33 16.1,-37.111 6.8,-11.868 14.7,-22.763 23.7,-32.863 9,-10.096 19,-19.13 30,-27.101 11,-7.972 22.8,-14.615 35.2,-20.019 12.4,-5.491 25.3,-9.477 38.6,-12.224 13.3,-2.658 26.7,-3.896 40.2,-3.63 33.5,-0.09 65.5,6.82 95.9,20.902 30.3,14.085 56.2,33.924 77.8,59.611 l 183.1,-157.839 c -21.6,-26.04 -45.9,-49.249 -72.9,-69.531 -27,-20.3721 -56,-37.2912 -87,-50.8403 -30.9,-13.5526 -63,-23.3857 -96.3,-29.496 -33.3,-6.02375 -66.7,-8.14815 -100.6,-6.38012 -30.4,-1.94794 -60.7,-0.79579 -90.9,3.45652 -30.2,4.3387 -59.7,11.6911 -88.4,22.0536 -28.7,10.366 -56.1,23.4722 -82.2,39.5056 -25.9,15.9434 -50,34.4537 -72.2,55.3587 -22.3,20.992 -42,43.935 -59.5,68.998 -17.5,24.981 -32.3,51.553 -44.2,79.631 -12.1,28.077 -21.1,57.04 -27.2,86.979 -6,29.849 -9,60.141 -8.8,90.699" /></g><g
         transform="scale(1.20888)"
         id="g102"><path
           id="path104"
           style="fill:#841f32;fill-opacity:1;fill-rule:nonzero;stroke:none"
           d="m 15415.9,420.471 c -1.8,29.366 -0.6,58.564 3.5,87.684 4,29.118 11,57.492 20.7,85.284 9.7,27.711 22.1,54.266 37.1,79.496 15,25.23 32.4,48.805 52.1,70.562 19.7,21.837 41.3,41.441 65,58.977 23.7,17.455 48.7,32.429 75.4,44.918 26.6,12.492 54.1,22.17 82.8,29.121 28.5,7.031 57.5,11.083 86.8,12.324 29.4,1.156 58.6,-0.579 87.6,-5.212 29.1,-4.634 57.4,-12.076 84.9,-22.335 27.5,-10.256 53.8,-23.162 78.8,-38.63 24.9,-15.552 48.2,-33.337 69.6,-53.52 21.3,-20.102 40.5,-42.107 57.6,-66.096 17,-23.989 31.5,-49.384 43.5,-76.268 11.9,-26.884 21.1,-54.596 27.5,-83.299 6.4,-28.704 10,-57.74 10.6,-87.106 0.6,-29.366 -1.7,-58.567 -6.9,-87.436 -5.2,-28.952 -13.2,-57.161 -23.9,-84.459 -10.9,-27.379 -24.3,-53.355 -40.2,-78.003 -16,-24.652 -34.3,-47.484 -54.9,-68.494 -20.5,-21.094 -42.9,-39.8707 -67.2,-56.4148 -24.4,-16.5442 -50,-30.526 -77,-41.9422 -27.2,-11.4161 -55.1,-20.0986 -83.9,-25.973 -28.8,-5.87452 -57.9,-8.85054 -87.3,-8.85054 -28.4,-1.48962 -56.5,-0.16479 -84.5,4.05204 -28.1,4.2201 -55.4,11.2513 -82,21.0131 -26.6,9.6777 -52,22.0018 -76.2,36.8916 -24.1,14.8897 -46.5,32.0123 -67.2,51.4518 -20.6,19.439 -39.1,40.701 -55.4,63.944 -16.4,23.081 -30.3,47.648 -41.7,73.622 -11.3,25.976 -20,52.86 -25.9,80.568 -5.9,27.712 -9,55.756 -9.3,84.13 z m 622,0 c 1.7,12.822 1.9,25.809 0.9,38.711 -1.2,12.906 -3.7,25.563 -7.4,37.971 -3.9,12.408 -8.9,24.319 -15.2,35.651 -6.4,11.251 -13.8,21.84 -22.4,31.602 -8.6,9.677 -18.1,18.447 -28.6,26.138 -10.4,7.777 -21.5,14.23 -33.3,19.604 -11.8,5.377 -24.1,9.432 -36.8,12.162 -12.7,2.731 -25.5,4.052 -38.5,4.052 -13,0 -25.8,-1.321 -38.5,-4.052 -12.7,-2.73 -24.9,-6.785 -36.8,-12.162 -11.8,-5.374 -23,-11.827 -33.4,-19.604 -10.4,-7.691 -19.9,-16.461 -28.4,-26.138 -8.6,-9.762 -16.1,-20.351 -22.5,-31.602 -6.2,-11.332 -11.4,-23.243 -15.2,-35.651 -3.7,-12.408 -6.2,-25.065 -7.3,-37.971 -1.1,-12.902 -0.8,-25.889 0.8,-38.711 -1.1,-12.657 -0.9,-25.23 0.6,-37.887 1.5,-12.573 4.2,-24.9 8.3,-36.975 4,-11.995 9.3,-23.495 15.7,-34.413 6.5,-10.919 14,-21.094 22.5,-30.442 8.6,-9.345 18,-17.701 28.3,-25.146 10.4,-7.445 21.4,-13.649 33,-18.777 11.5,-5.132 23.5,-9.019 36,-11.665 12.4,-2.566 25,-3.887 37.7,-3.887 12.6,0 25.2,1.321 37.6,3.887 12.4,2.646 24.5,6.533 36.1,11.665 11.5,5.128 22.5,11.332 32.9,18.777 10.2,7.445 19.7,15.801 28.3,25.146 8.6,9.348 16,19.523 22.5,30.442 6.4,10.918 11.6,22.418 15.7,34.413 4,12.075 6.9,24.402 8.4,36.975 1.4,12.657 1.6,25.23 0.4,37.887 h -1.4" /></g><g
         transform="scale(1.28477)"
         id="g106"><path
           id="path108"
           style="fill:#841f32;fill-opacity:1;fill-rule:nonzero;stroke:none"
           d="m 15463.7,774.226 h 263.5 L 15834,549.595 c 26.9,-64.682 47.6,-131.31 62.4,-199.726 13.7,68.185 33.1,134.81 58.2,199.726 l 102.7,224.631 H 16300 L 15895,5.91365 h -22.2 L 15463.7,774.226" /></g><g
         transform="scale(1.36063)"
         id="g110"><path
           id="path112"
           style="fill:#841f32;fill-opacity:1;fill-rule:nonzero;stroke:none"
           d="m 15925.5,191.53 c 65.8,-0.442 125.6,18.374 179.4,56.295 l 130.9,-138.831 c -41.8,-36.6758 -89,-64.0872 -141.6,-82.2429 -52.6,-18.07808 -106.6,-25.5769 -162.2,-22.4878 -26.2,-2.93981 -52.5,-3.0891 -78.9,-0.51676 -26.3,2.64697 -52,7.86626 -77.2,15.95076 -25.2,8.0098 -49.2,18.5949 -72.2,31.6747 -23,13.1574 -44.3,28.5168 -64,46.1556 -19.8,17.5644 -37.4,37.0434 -53,58.3574 -15.6,21.385 -28.8,44.097 -39.6,68.201 -10.8,24.182 -18.9,49.095 -24.5,74.965 -5.5,25.873 -8.3,52.035 -8.3,78.422 0.1,25.206 2.8,50.195 8,74.89 5.2,24.621 12.8,48.507 22.9,71.658 10.1,23.077 22.3,44.979 36.9,65.632 14.5,20.579 31,39.541 49.3,56.812 18.4,17.272 38.3,32.485 59.8,45.714 21.5,13.229 44.1,24.107 67.8,32.777 23.7,8.601 48,14.774 73,18.449 24.9,3.674 50,4.777 75.2,3.381 261.8,0 392.8,-189.913 377.1,-440.018 h -543.5 c 6,-19.034 15.2,-36.38 27.4,-52.182 12.2,-15.801 26.8,-28.956 43.7,-39.466 16.9,-10.582 35.1,-17.86 54.7,-21.902 19.5,-4.114 39.2,-4.631 58.9,-1.688 z m 130.9,244.885 c 0.1,9.406 -0.8,18.592 -2.8,27.854 -1.8,9.112 -4.7,18.006 -8.5,26.533 -3.8,8.524 -8.5,16.608 -14,24.179 -5.5,7.57 -11.9,14.406 -18.8,20.653 -7.1,6.172 -14.7,11.538 -22.8,16.169 -8.2,4.556 -16.7,8.231 -25.7,10.95 -8.9,2.718 -18.1,4.484 -27.5,5.291 -9.3,0.809 -18.5,0.588 -27.9,-0.661 -19.8,2.205 -39.2,0.589 -58.3,-4.777 -19.1,-5.366 -36.6,-14.257 -52.2,-26.458 -15.7,-12.273 -28.5,-27.047 -38.3,-44.318 -9.9,-17.197 -16.2,-35.717 -18.8,-55.415 h 315.6 v 0" /></g><g
         transform="scale(1.42425)"
         id="g114"><path
           id="path116"
           style="fill:#841f32;fill-opacity:1;fill-rule:nonzero;stroke:none"
           d="M 15780.8,698.401 H 15996 V 573.284 c 7.1,20.572 17.3,39.458 30.5,56.8 13.2,17.274 28.7,32.089 46.5,44.445 17.9,12.359 37.2,21.695 58.1,27.874 20.8,6.25 42.1,9.059 63.8,8.497 37.4,-0.072 72.5,-9.268 105.1,-27.523 l -68.8,-196.383 c -25.8,13.62 -53.4,20.712 -82.6,21.272 -97.6,0 -150.1,-45.076 -150.1,-190.133 V 17.8328 h -215.2 V 698.401 h -2.5" /></g><g
         transform="scale(1.453)"
         id="g118"><path
           id="path120"
           style="fill:#841f32;fill-opacity:1;fill-rule:nonzero;stroke:none"
           d="m 16079.3,543.566 29.4,15.966 c 7.7,-16.655 19.4,-29.801 34.9,-39.436 15.7,-9.566 32.7,-13.972 51,-13.284 8.3,-1.032 16.5,-0.411 24.5,1.928 8.1,2.339 15.4,6.194 21.9,11.493 6.5,5.369 11.7,11.7 15.5,19.203 3.9,7.434 6.1,15.348 6.7,23.744 -1.5,17.273 -8.1,32.414 -19.6,45.354 -11.7,12.939 -25.9,21.128 -42.9,24.569 l -27,12.251 c -10.2,2.546 -19.8,6.608 -28.7,12.251 -8.9,5.713 -16.6,12.595 -23.3,20.784 -6.6,8.189 -11.8,17.206 -15.5,27.115 -3.7,9.843 -5.7,20.029 -6.1,30.559 0.2,11.356 2.5,22.161 7.2,32.414 4.6,10.324 11.1,19.204 19.5,26.844 8.4,7.568 17.9,13.077 28.7,16.655 10.7,3.578 21.7,4.885 32.9,3.852 18.7,0.965 36.2,-3.097 52.6,-12.181 16.3,-9.084 29.1,-21.746 38.1,-38.127 l -28.2,-17.138 c -5.8,11.493 -14.2,20.509 -25.3,27.185 -11.1,6.608 -23.1,9.775 -35.9,9.568 -6.8,0.962 -13.5,0.344 -20.1,-1.721 -6.5,-1.997 -12.3,-5.299 -17.4,-9.912 -5.1,-4.611 -9,-10.116 -11.7,-16.448 -2.6,-6.331 -3.8,-12.869 -3.5,-19.751 0.8,-14.867 6.2,-27.874 15.9,-39.092 9.9,-11.219 22.1,-18.169 36.8,-20.991 l 27,-12.251 c 11.4,-2.753 22.3,-7.364 32.3,-13.628 10,-6.331 18.9,-14.109 26.4,-23.263 7.5,-9.221 13.4,-19.337 17.6,-30.419 4.2,-11.149 6.5,-22.572 7,-34.479 -0.4,-12.869 -3.4,-25.12 -8.9,-36.753 -5.6,-11.63 -13.3,-21.679 -23.2,-30.075 -9.7,-8.396 -20.8,-14.453 -33.1,-18.168 -12.4,-3.718 -25,-4.888 -37.8,-3.304 -12.1,-0.689 -24,0.344 -35.9,3.097 -11.8,2.822 -22.9,7.293 -33.4,13.35 -10.4,6.127 -19.8,13.698 -28,22.575 -8.3,8.88 -15.1,18.789 -20.4,29.664 v 0" /></g><g
         transform="scale(1.48744)"
         id="g122"><path
           id="path124"
           style="fill:#841f32;fill-opacity:1;fill-rule:nonzero;stroke:none"
           d="M 15992.2,798.152 16149.1,604.06 16300,793.377 V 463.886 h -33.5 v 215.605 c 0,14.389 0,37.179 0,37.179 -7,-11.632 -14.6,-22.79 -22.8,-33.547 l -98.3,-119.806 -97,119.806 c -8.5,10.757 -16.5,21.915 -23.9,33.547 0,0 0,-22.79 0,-37.179 V 463.886 h -32.3 v 334.266" /></g><g
         transform="scale(1.17042)"
         id="g126"><path
           id="path128"
           style="fill:#841f32;fill-opacity:1;fill-rule:nonzero;stroke:none"
           d="M 11207.7,11561.3 H 8382.17 V 10073.9 H 8878.5 L 7136.88,7219.47 h -647 V 5732.13 H 9418.9 v 1487.34 h -525.2 l 886.01,1456.92 330.39,-509.99 H 9794.92 V 6648.57 H 12995 v 1502.59 h -330.4 l 299.9,510 901.3,-1426.45 h -479.6 V 5716.9 H 16300 v 1502.57 h -645.5 l -1743,2839.23 h 525.2 v 1517.8 h -2839.3 v -1502.6 h 450.6 l -660.7,-1067.17 -660.7,1067.17 h 481.1 v 1487.4" /></g><g
         transform="scale(1.25858)"
         id="g130"><path
           id="path132"
           style="fill:#841f32;fill-opacity:1;fill-rule:nonzero;stroke:none"
           d="m 16299.4,5545.83 c 0.6,-19.8 -0.8,-39.47 -4.2,-58.97 -3.3,-19.54 -8.5,-38.55 -15.5,-57.03 -7.2,-18.5 -16,-36.11 -26.6,-52.85 -10.6,-16.74 -22.7,-32.28 -36.4,-46.64 -13.6,-14.33 -28.6,-27.18 -44.8,-38.6 -16.1,-11.35 -33.3,-21.07 -51.5,-29.06 -18.1,-7.98 -36.8,-14.12 -56.1,-18.39 -19.4,-4.29 -39,-6.64 -58.7,-7.02 -19.8,-0.42 -39.5,1.12 -59,4.6 -19.5,3.5 -38.4,8.84 -56.9,16.09 -18.4,7.23 -35.9,16.2 -52.6,26.92 -16.7,10.71 -32.1,22.96 -46.3,36.69 -14.3,13.81 -27,28.8 -38.3,45.08 -11.2,16.32 -20.8,33.56 -28.7,51.74 -7.8,18.17 -13.8,36.95 -18,56.32 -4.1,19.37 -6.2,38.96 -6.5,58.75 -0.3,19.82 1.5,39.47 5,58.93 3.7,19.46 9.2,38.4 16.6,56.76 7.3,18.39 16.5,35.86 27.3,52.44 10.8,16.58 23.2,31.93 37.1,46.06 13.8,14.13 29,26.75 45.4,37.9 16.3,11.13 33.6,20.57 51.8,28.26 18.4,7.7 37.2,13.55 56.5,17.53 19.5,3.98 39,6.01 58.9,6.13 19.5,0.46 38.9,-1 58.1,-4.37 19.2,-3.38 37.9,-8.62 56.1,-15.72 18.2,-7.11 35.4,-15.91 51.9,-26.45 16.4,-10.56 31.6,-22.61 45.7,-36.17 14,-13.58 26.6,-28.39 37.6,-44.47 11.1,-16.06 20.5,-33.05 28.2,-51.01 7.7,-17.92 13.6,-36.43 17.6,-55.52 4,-19.1 6.2,-38.41 6.3,-57.93 z m -526.7,0 c -0.4,-15.11 0.6,-30.13 3.1,-45.03 2.6,-14.89 6.6,-29.41 12,-43.52 5.4,-14.09 12.2,-27.53 20.3,-40.27 8.2,-12.75 17.5,-24.55 28,-35.45 10.5,-10.91 21.9,-20.62 34.4,-29.23 12.4,-8.56 25.6,-15.85 39.5,-21.81 13.9,-5.94 28.2,-10.47 43,-13.55 14.8,-3.07 29.7,-4.64 44.9,-4.76 15,0 29.9,1.51 44.7,4.49 14.7,3 29,7.46 42.9,13.33 13.9,5.87 27,13.08 39.4,21.62 12.4,8.56 23.8,18.23 34.2,29.06 10.4,10.83 19.7,22.62 27.8,35.32 8.1,12.71 14.7,26.1 20.1,40.16 5.4,14.07 9.3,28.53 11.7,43.39 2.5,14.83 3.4,29.79 2.9,44.84 2.2,16 2.8,32.09 1.6,48.22 -1.2,16.14 -4.1,31.97 -8.7,47.49 -4.5,15.52 -10.7,30.37 -18.5,44.58 -7.7,14.2 -16.9,27.42 -27.5,39.64 -10.6,12.22 -22.3,23.2 -35.4,32.89 -12.9,9.72 -26.7,17.97 -41.4,24.7 -14.7,6.75 -29.9,11.87 -45.8,15.33 -15.7,3.47 -31.8,5.24 -47.9,5.3 -16.2,0.06 -32.2,-1.61 -48.1,-5 -15.8,-3.36 -31,-8.37 -45.8,-15.03 -14.7,-6.67 -28.6,-14.8 -41.6,-24.42 -13,-9.64 -24.8,-20.52 -35.5,-32.7 -10.7,-12.15 -19.9,-25.32 -27.8,-39.46 -7.9,-14.16 -14.1,-28.97 -18.8,-44.47 -4.6,-15.49 -7.7,-31.29 -8.9,-47.43 -1.3,-16.12 -0.9,-32.2 1.2,-48.23 z m 179.8,-159.98 h -67.9 v 298.72 c 37,6.4 74.3,9.21 111.9,8.48 36.1,3.04 70.1,-4.05 101.9,-21.22 19.6,-16.72 29,-37.96 28.3,-63.72 -1.3,-16.89 -7.6,-31.66 -18.9,-44.28 -11.4,-12.63 -25.3,-20.53 -42,-23.67 14.8,-5.93 27.1,-15.22 36.8,-27.95 9.6,-12.69 15.3,-26.97 17,-42.83 1.2,-29.14 7.7,-57 19.8,-83.53 h -70.7 c -11.1,22.46 -18.7,46.05 -22.7,70.77 -0.5,7.34 -2.4,14.25 -5.9,20.74 -3.4,6.49 -8.1,11.98 -13.9,16.46 -5.9,4.47 -12.4,7.55 -19.5,9.21 -7.2,1.66 -14.3,1.77 -21.6,0.33 h -32.6 v -117.51 z m 0,165.63 h 32.6 c 36.8,0 68,12.75 68,42.49 0,29.73 -19.8,45.31 -62.3,45.31 -12.3,1.39 -24.6,1.39 -36.8,0 v -83.54 l -1.5,-4.26" /></g></g></g></svg>