<?xml version="1.0" encoding="UTF-8" standalone="no"?>
<svg xmlns:rdf="http://www.w3.org/1999/02/22-rdf-syntax-ns#" xmlns="http://www.w3.org/2000/svg" xml:space="preserve" height="75.729" viewBox="0 0 291.66211 75.728524" width="291.66" version="1.1" xmlns:cc="http://creativecommons.org/ns#" xmlns:dc="http://purl.org/dc/elements/1.1/"><g transform="matrix(1.25 0 0 -1.25 -12.154 131.71)"><g transform="translate(.58920 .88380)"><path d="m76.227 41.357c-11.887 0-22.125 8.8623-22.125 22.184v0.05469c0.000001 11.665 9.3228 21.668 22.07 21.668 12.692 0 22.236-9.7776 22.236-21.955 0-12.172-9.5441-21.951-22.182-21.951zm85.787 0c-6.63 0-13.379 4.2902-13.32 12.178 0 7.9475 7.3789 10.405 10.691 11.488 5.4325 2.0037 9.4336 3.0918 9.4336 7.7793 0 3.7712-3.2588 6.7441-7.0312 6.7441-2.2288 0-6.6883-1.2541-7.1445-7.6016h-6.6914c0.10547 7.6629 4.8398 12.663 12.354 13.258 0.50092 0.03968 1.014 0.06055 1.5391 0.06055 9.0338 0 13.662-5.9466 13.662-12.807 0-6.8575-4.917-9.5461-10.176-11.777-6.8025-2.5138-9.9473-3.5459-9.9473-7.6621 0-3.5988 2.9743-5.9414 6.4043-5.9414 4.8612 0 5.8888 3.6564 6.3438 5.9414h6.6328c-0.5175-8.6862-7.3162-11.66-12.75-11.66zm72.643 0c-11.89 0-22.123 8.8623-22.123 22.184v0.05469c0 11.3 8.7482 21.041 20.881 21.639 0.39138 0.01928 0.78535 0.0293 1.1836 0.0293 12.692 0 22.24-9.7776 22.24-21.955 0-12.172-9.5479-21.951-22.182-21.951zm-222.5 0.80469v42.299h6.7441v-18.518h18.238v18.518h6.7461v-42.299h-6.7461v17.834h-18.238v-17.834h-6.7441zm96.305 0v26.406c-0.0575 5.1488 0.45586 9.3209 4.6309 13.037 2.4992 2.4522 6.1392 3.4131 9.0391 3.6152 0.41426 0.02887 0.81281 0.04297 1.1914 0.04297 4.1712 0 7.5482-1.4318 10.064-3.7168 3.7138-3.0862 4.6298-7.371 4.5723-12.979v-26.406h-6.6894v26.406c0 2.7462-0.00031 5.0897-1.6016 7.4922-1.145 1.9412-3.488 3.2578-6.4043 3.2578-2.915 0-5.2594-1.37-6.5156-3.375-1.545-2.455-1.5449-4.745-1.5449-7.375v-26.406h-6.7422zm73.387 0v5.9414h9.7148v36.357h6.7441v-36.357h9.7207v-5.9414h-26.18zm85.271 0v42.301h6.5156l-0.11523-32.242 22.125 32.242h6.1738v-42.301h-6.5156l0.11328 32.182-21.953-32.182h-6.3438zm-190.84 5.143c9.2612-0.000001 15.375 7.7712 15.375 16.062 0 8.2325-6.1146 15.951-15.318 15.951-6.2107 0-11.231-3.4029-13.762-8.3926-0.2301-0.45361-0.44092-0.92193-0.62891-1.4004-0.75194-1.9138-1.1582-4.0146-1.1582-6.2168v-0.05273c0-8.5175 6.2884-15.951 15.492-15.951zm158.43 0c9.2625-0.000001 15.377 7.7712 15.377 16.062 0 8.2325-6.1153 15.951-15.32 15.951-6.2098 0-11.23-3.4029-13.762-8.3926-0.23013-0.45361-0.43895-0.92193-0.62696-1.4004-0.75204-1.9138-1.1602-4.0146-1.1602-6.2168v-0.05273c0-8.5175 6.2897-15.951 15.492-15.951z" transform="matrix(.8 0 0 -.8 0 113)" fill="#c8102e"/><path d="m177.5 11.535c-2.805 0-5.6599 1.8162-5.6387 5.1562 0 3.3612 3.1216 4.4006 4.5254 4.8594 2.295 0.85 3.9922 1.306 3.9922 3.291 0 1.5962-1.3823 2.8535-2.9785 2.8535-0.94 0-2.8304-0.53234-3.0254-3.2148h-2.8301c0.0512 3.4575 2.3266 5.6367 5.8828 5.6367 3.8238 0 5.7812-2.5169 5.7812-5.4219 0-2.9-2.0829-4.038-4.3066-4.9805-2.8788-1.0638-4.207-1.5016-4.207-3.2441 0-1.5238 1.2551-2.5137 2.7051-2.5137 2.0575 0 2.495 1.5462 2.6875 2.5137h2.8047c-0.21375-3.6775-3.0976-4.9355-5.3926-4.9355zm-135.69 0.34v17.904h2.7539l-0.04687-13.645 9.3633 13.645h2.6113v-17.904h-2.7578l0.04687 13.619-9.291-13.619h-2.6797zm173.43 0v2.5156h4.1152v15.389h2.8496v-15.389h4.1152v-2.5156h-11.08zm-201.71 0.002v11.176c-0.0225 2.1762 0.19398 3.9431 1.959 5.5156 1.2125 1.1862 3.0508 1.5488 4.332 1.5488 1.765 0 3.1946-0.60406 4.2559-1.5703 1.575-1.3088 1.9638-3.1254 1.9375-5.4941v-11.176h-2.8301v11.176c0 1.16-0.000234 2.1531-0.67773 3.1719-0.48375 0.82-1.4752 1.377-2.709 1.377-1.235 0-2.2248-0.58398-2.7598-1.4277-0.65125-1.0412-0.65039-2.0073-0.65039-3.1211v-11.176h-2.8574zm58.811 0v17.902h2.8555v-17.902h-2.8555zm17.051 0 6.7012 17.902h2.8262l6.7539-17.902h-2.9512l-5.2051 14.416-5.1738-14.416h-2.9512zm30.494 0v17.902h10.012v-2.5195h-7.1602v-5.2969h7.0703v-2.4922h-7.0703v-5.0801h7.1602v-2.5137h-10.012zm25.246 0v17.902h2.8555v-15.389h2.4434c1.2812 0 2.2756 0.09633 3.0469 0.58008 0.945 0.63 1.5234 1.8147 1.5234 3.0234 0 1.1612-0.40992 2.2022-1.2324 2.9297-0.8475 0.725-2.3444 0.77344-3.5781 0.77344h-0.63086l4.9121 8.082h3.0254l-4.2129-6.6523c1.38-0.24125 2.5415-0.67969 3.459-1.9609 0.65625-0.945 1.0176-2.1541 1.0176-3.4141 0-2.0062-0.89359-3.8697-2.3711-4.8359-0.945-0.65125-2.3955-1.0391-5.1992-1.0391h-5.0586zm53.105 0v17.902h2.8535v-17.902h-2.8535zm41.52 0 5.6113 11.537v6.3652h2.8555v-6.3652l5.6094-11.537h-3.0918l-3.9453 8.8555-3.9434-8.8555h-3.0957zm60.975 0.21289c-1.48 0.02-3.918 0.17547-3.918 3.3242v0.71094h-1.4219v1.5547h1.4219v8.8965h1.9961v-8.8965h1.9219v-1.5547h-1.9219v-0.61523c0-1.8238 1.2481-1.8238 1.9219-1.8438v-1.5762zm-16.238 3.7305c-3.515 0-5.5684 2.723-5.5684 5.5117v0.01563c0 2.8062 2.0534 5.5156 5.5684 5.5156 3.5162 0 5.5703-2.7094 5.5703-5.5156 0-2.805-2.0541-5.5273-5.5703-5.5273zm0 1.8809c2 0 3.5742 1.5565 3.5742 3.6465 0 2.095-1.5742 3.6523-3.5742 3.6523-1.9938 0-3.5742-1.5559-3.5742-3.6309v-0.02148c0-2.09 1.5805-3.6465 3.5742-3.6465z" transform="matrix(.8 0 0 -.8 0 113)" fill="#888b8d"/></g></g></svg>
