<svg xmlns="http://www.w3.org/2000/svg" height="58.179" width="250" viewBox="0 0 249.99995 58.179314">
 <g>
  <path fill="#ae9142" d="m0.932 1.518v0.079745 20.255c0 19.373 12.726 29.7 23.055 35.385 10.324-5.684 23.049-16.011 23.049-35.385v-20.335h-23.055-23.055z"/>
  <path d="m184.09 1.0586c-0.1 0-0.2 0.0186-0.28 0.0586-0.08 0.6405-0.41 1.842-0.66 2.9629 0 0.1601 0.33 0.2402 0.58 0.0801 0.66-1.6812 1.32-1.8418 2.81-1.8418h0.82c0.5 0 0.58 0.0001 0.58 0.6406v6.8047c0 1.6813-0.08 1.8423-1.24 2.0023l-0.66 0.08c-0.16 0.16-0.16 0.56 0.08 0.64 1.08-0.08 1.99-0.08 2.81-0.08 0.83 0 1.74 0 2.81 0.08 0.25-0.08 0.25-0.48 0.08-0.64l-0.66-0.08c-1.07-0.16-1.24-0.241-1.24-2.0023v-6.8047c0-0.6405 0.09-0.6406 0.58-0.6406h0.91c1.57 0 2.23 0.1606 2.4 1.8418 0.08 0.1601 0.49 0.1601 0.66 0-0.08-0.9607 0.08-2.2406 0.25-2.8809-0.25-0.2402-0.42-0.2422-0.58-0.1621-0.17 0.4803-0.41 0.4805-1.32 0.4805h-7.11c-0.99 0-1.41-0.0002-1.41-0.4805-0.04-0.04-0.12-0.0586-0.21-0.0586zm-22.6 0.0586c-2.56 0-4.04 1.2816-4.04 3.123 0 1.361 1.07 2.4007 2.31 2.961l1.16 0.5625c1.48 0.7205 1.81 1.5198 1.81 2.3203 0 1.121-0.82 1.762-2.15 1.762-1.73 0-2.89-1.762-3.05-2.6429-0.17-0.2401-0.58-0.2382-0.66 0.0821 0 1.2808 0.33 2.2408 0.49 2.5608 0.33 0.4 1.33 0.881 2.9 0.881 2.56 0 4.21-1.202 4.21-3.1235 0-1.6812-1.16-2.7227-2.07-3.2031l-1.57-0.8008c-0.99-0.5604-1.73-1.0393-1.73-2 0-0.8806 0.58-1.6816 2.06-1.6816 1.49 0 2.15 1.2815 2.4 2.1621 0.09 0.1601 0.58 0.1601 0.66-0.0801 0-1.0408-0.16-2.0022-0.33-2.4824-0.91-0.1602-1.48-0.4004-2.39-0.4004h-0.01zm65.53 0.0801c-3.72 0-6.36 2.5633-6.36 5.8457 0 3.122 2.39 5.603 6.36 5.603 3.63 0 6.28-2.481 6.28-5.7632-0.08-3.0422-2.15-5.6855-6.28-5.6855zm-122.55 0.2402c-0.17 0.1601-0.17 0.4825 0 0.6426l0.74 0.2383c0.58 0.1601 0.75 0.2405 1.49 1.9218l2.9 6.2458c0.33 0.721 0.58 1.52 0.83 2.16 0.08 0.081 0.16 0.081 0.33 0.081 0.16 0 0.25 0 0.33-0.081 0.33-0.8 1.07-2.642 1.81-4.2437l1.99-4.082c0.83-1.6812 1-1.9219 1.74-2.082l0.74-0.1582c0.17-0.1601 0.17-0.5625-0.16-0.6426-0.42 0.0801-0.99 0.0801-1.82 0.0801-0.66 0-1.32 0-2.07-0.0801-0.16 0.1601-0.24 0.4825-0.08 0.6426l0.41 0.0781c0.75 0.1601 0.83 0.3204 0.58 0.8008-0.25 0.7205-0.99 2.4827-1.48 3.6035-0.5 1.0409-0.91 2.0822-1.41 3.123-0.41-0.8006-0.83-1.762-1.49-3.123l-1.24-2.7227c-0.58-1.2007-0.58-1.5195 0.09-1.6796l0.57-0.0801c0.25-0.1601 0.25-0.5625 0-0.6426-0.82 0.0801-1.57 0.0801-2.48 0.0801-0.82 0-1.65 0-2.31-0.0801h-0.01zm18.59 0c-0.16 0.0801-0.25 0.4825-0.08 0.6426l0.33 0.0781c0.99 0.1601 1.07 0.2406 1.07 2.002v5.6035c0 1.7613-0.08 1.8423-1.24 2.0023l-0.66 0.08c-0.16 0.16-0.16 0.56 0.08 0.64 1.33-0.08 2.15-0.08 2.98-0.08h2.23 2.15c0.74 0 1.49 0 2.23 0.08 0.25-0.48 0.66-1.76 0.74-2.8005-0.08-0.2401-0.49-0.2421-0.66-0.082-0.74 2.0015-1.73 2.0825-3.3 2.0825-1.49 0-1.9-0.081-2.15-0.321-0.24-0.24-0.24-1.041-0.24-1.7615v-1.8398c0-0.4804-0.01-0.5625 0.49-0.5625h1.24c1.4 0 1.49 0.1623 1.73 0.9629l0.17 0.4785c0.17 0.1601 0.49 0.162 0.66-0.0781-0.08-0.7206-0.08-1.2034-0.08-1.7637 0-0.5604 0-1.0393 0.08-1.7598-0.17-0.1601-0.49-0.2402-0.66 0l-0.33 0.4004c-0.25 0.7205-0.33 0.959-1.73 0.959h-1.24c-0.5 0-0.5-0.0782-0.5-0.4785v-2.8028c0-0.8005 0-0.8007 0.91-0.8007h1.16c0.57 0 1.73 0.0021 2.14 0.5625 0.17 0.2401 0.33 0.5587 0.5 1.1992 0.17 0.1601 0.58 0.1601 0.66-0.0801-0.17-1.0408-0.25-2.2404-0.25-2.5605-0.25 0.08-1.24 0.0781-2.39 0.0781h-3.64-1.24c-0.41 0-0.74 0.0019-1.16-0.0781v-0.002zm115.28 0c-0.25 0.0801-0.25 0.4825-0.08 0.6426l0.33 0.0781c0.99 0.2402 1.07 0.2406 1.07 2.002v5.6035c0 1.6813-0.08 1.8423-1.24 2.0023l-0.49 0.08c-0.08 0.08-0.08 0.56 0.16 0.64 1-0.08 1.82-0.08 2.65-0.08 0.82 0 1.65 0 2.89 0.08 0.16-0.08 0.25-0.48 0.08-0.64l-0.82-0.08c-1.08-0.08-1.24-0.241-1.24-2.0023v-1.8418c0-0.4804 0-0.5586 0.49-0.5586h1.41c1.32 0 1.48 0.2384 1.73 0.959l0.17 0.4804c0.16 0.1602 0.49 0.1601 0.66-0.08v-1.7598-1.7617c-0.15-0.1605-0.48-0.2402-0.64-0.0801l-0.17 0.4785c-0.16 0.7205-0.33 0.9629-1.73 0.9629h-1.41c-0.49 0-0.49-0.0001-0.49-0.4805v-2.8828c0-0.8806 0.08-0.8808 0.91-0.8808h0.99c0.57 0 1.73 0.0021 2.14 0.5625 0.17 0.2401 0.34 0.5587 0.5 1.1992 0.17 0.2401 0.58 0.2401 0.66-0.0801-0.08-1.0408-0.08-2.2424-0.16-2.5625-0.33 0.0801-1.32 0.0801-2.48 0.0801h-3.56-1.23c-0.42 0-0.75 0-1.08-0.0801h-0.02zm-184.27 0.0801c-0.248 0.08-0.249 0.4805-0.084 0.6406l0.414 0.0801c1.075 0.2402 1.239 0.2406 1.239 2.0019v4.002c0 1.6012 0.332 2.8028 1.076 3.5238 0.744 0.72 1.982 1.039 3.635 1.039 3.305 0 4.793-1.681 4.793-4.8831v-2.4805c0-2.4817 0.165-3.1231 0.826-3.2031l0.744-0.0801c0.165-0.1601 0.165-0.4805 0-0.6406-0.826 0.08-1.405 0.0801-2.149 0.0801-0.743 0-1.322-0.0001-2.148-0.0801-0.248 0.1601-0.247 0.4805-0.082 0.6406l0.578 0.0801c1.074 0.1601 1.238 0.7213 1.238 3.2031v2.3223c0 2.4813-0.99 4.1623-3.304 4.1623-2.479 0-3.305-1.681-3.305-4.1623v-3.5235c0-1.6812 0.081-1.8418 1.238-2.0019l0.496-0.0801c0.166-0.1601 0.166-0.5606-0.082-0.6406-0.991 0.08-1.818 0.0801-2.644 0.0801s-1.652-0.0001-2.479-0.0801zm19.09 0c-0.248 0.08-0.249 0.4805-0.084 0.6406l0.414 0.0801c0.248 0.08 0.743 0.1602 0.908 0.3203 0.496 0.4003 0.579 0.7209 0.579 1.5215v4.4844c0 2.4815-0.248 3.1215-0.909 3.2015l-0.744 0.08c-0.165 0.16-0.165 0.48 0 0.64 0.909-0.08 1.405-0.08 2.149-0.08 0.743 0 1.323 0 2.314 0.08 0.165-0.16 0.247-0.48 0.082-0.64l-0.834-0.08c-0.908-0.08-1.072-0.722-1.072-3.2035v-3.2813c0-0.8005 0.001-1.041 0.084-1.041 0.33 0.2402 0.991 0.9611 1.982 1.9219l3.883 4.0019c1.57 1.681 2.068 2.161 2.399 2.561 0.248 0.08 0.494-0.079 0.494-0.239-0.083-0.4-0.082-2.402-0.082-2.8825v-4.1621c0-2.4817 0.164-3.1231 0.908-3.2031l0.744-0.0801c0.165-0.1601 0.165-0.4805 0-0.6406-0.826 0.08-1.405 0.0801-2.148 0.0801-0.744 0-1.323-0.0001-2.315-0.0801-0.248 0.1601-0.247 0.4805-0.082 0.6406l0.826 0.0801c0.909 0.08 1.075 0.7213 1.075 3.2031v2.8809c0 0.5604 0.001 0.9609-0.165 0.9609-0.247-0.1607-1.734-1.762-2.312-2.3223l-2.395-2.4004c-1.076-1.0406-1.984-2.0823-2.48-3.0429-0.331 0.08-0.662 0.0801-0.992 0.0801-0.578 0-1.238-0.0004-2.227-0.0801zm20.078 0c-0.248 0.08-0.247 0.4805-0.082 0.6406l0.494 0.0801c1.075 0.1601 1.241 0.2406 1.241 2.0019v5.6036c0 1.6812-0.166 1.7612-1.241 1.9222l-0.494 0.08c-0.165 0.16-0.166 0.56 0.082 0.64 0.992-0.08 1.818-0.08 2.645-0.08 0.826 0 1.653 0 2.644 0.08 0.166-0.08 0.248-0.48 0.082-0.64l-0.496-0.08c-1.081-0.16-1.246-0.241-1.246-2.0023v-5.5235c0-1.6812 0.084-1.8418 1.24-2.0019l0.495-0.0801c0.165-0.1601 0.165-0.5606-0.082-0.6406-0.992 0.08-1.817 0.0801-2.643 0.0801-0.824 0-1.651-0.0007-2.639-0.0801zm78.254 0c-0.16 0.08-0.24 0.4805-0.08 0.6406l0.5 0.0801c1.07 0.1601 1.24 0.2406 1.24 2.0019v5.6036c0 1.6812-0.09 1.7612-1.24 1.9222l-0.5 0.08c-0.16 0.16-0.16 0.56 0.08 0.64 1-0.08 1.82-0.08 2.65-0.08 0.82 0 1.65 0 2.64 0.08 0.17-0.08 0.25-0.48 0-0.64l-0.49-0.08c-1.08-0.16-1.24-0.241-1.24-2.0023v-5.5235c0-1.6812 0.08-1.8418 1.24-2.0019l0.49-0.0801c0.17-0.1601 0.17-0.5606 0-0.6406-0.99 0.08-1.82 0.0801-2.64 0.0801-0.83 0-1.57-0.0001-2.65-0.0801zm28.68 0c-0.17 0.08-0.25 0.4805-0.09 0.6406l0.67 0.0801c0.66 0.1601 0.9 0.3206 1.48 1.3613l1.9 3.3633c0.67 1.1208 0.75 1.3596 0.75 2.0801v0.961c0 1.441-0.08 1.602-1.24 1.762l-0.66 0.08c-0.17 0.16-0.17 0.56 0.08 0.64 1.16-0.08 1.98-0.082 2.81-0.082s1.65 0.002 2.81 0.082c0.25-0.08 0.25-0.48 0.08-0.64l-0.66-0.08c-1.07-0.16-1.24-0.241-1.24-1.762v-1.2813c0-0.7206 0.08-0.9594 0.99-2.4004l1.57-2.4825c0.83-1.2808 0.91-1.3613 1.74-1.5214l0.58-0.0801c0.16-0.1601 0.16-0.5606-0.09-0.6406-0.74 0.08-1.24 0.082-1.81 0.082-0.58 0-1.16-0.002-1.99-0.082-0.25 0.08-0.25 0.4805-0.08 0.6406l0.58 0.0801c0.58 0.08 0.57 0.3205 0.16 0.9609l-0.99 1.7617c-0.41 0.8006-0.83 1.3596-1.24 2.0801-0.41-0.6405-0.74-1.2795-1.16-2.0801l-0.96-1.7598c-0.41-0.8005-0.33-0.9629 0.25-1.0429l0.34-0.0781c0.24-0.1602 0.16-0.5626 0-0.6426-0.83 0.08-1.41 0.0801-2.15 0.0801-0.91 0-1.49-0.0001-2.4-0.0801h-0.03zm-56.11 0.0801c-1.41 0-2.81 0.0801-4.3 0.1601-0.25 0.0801-0.25 0.5606 0 0.6406l0.74 0.0821c0.58 0.08 0.58 0.4789 0.58 2.08v5.2833c0 1.7612-0.08 1.7622-1.24 2.0022l-0.41 0.08c-0.25 0-0.17 0.48 0.08 0.56 0.91-0.08 1.74-0.08 2.48-0.08 0.83 0 1.65 0 2.73 0.08 0.16-0.08 0.25-0.48 0.08-0.64l-0.58-0.08c-1.07-0.161-1.24-0.241-1.24-2.0023v-1.7617c0-0.3203 0.09-0.4004 0.75-0.4004 0.41 0 0.82 0.0801 0.99 0.4004 0.49 0.8005 1.24 1.9221 1.9 2.723 1.16 1.361 2.06 1.841 3.63 1.841 0.5 0 0.83-0.08 1.08-0.08 0.08-0.08 0.08-0.32 0-0.4-0.41 0-0.91-0.16-1.32-0.481-0.83-0.64-1.98-1.922-3.31-4.0034-0.08-0.1602-0.08-0.2403 0-0.4004 0.99-0.3203 2.32-1.0395 2.32-2.6407 0-2.6418-2.57-2.9628-4.96-2.9628zm82.73 0.2402c2.81 0 4.13 2.7213 4.13 5.3633 0 3.4428-1.82 4.7248-3.8 4.7248-2.98 0-4.22-2.8015-4.22-5.3635 0-3.5226 2.07-4.7246 3.89-4.7246zm-82.64 0.4004c1.82 0 2.73 1.1215 2.73 2.3222 0 1.6812-0.91 2.4024-2.56 2.4024-1.24 0-1.33-0.0021-1.33-0.6426v-3.3613c0-0.6405 0.17-0.7207 1.16-0.7207zm-140.05 2.4004v17.531c0 8.246 2.6422 14.731 6.4433 19.853 0 0 0.745-0.24 1.902-0.24 2.397 0 3.057 1.362 5.95 1.362 1.735 0 2.479-0.721 3.884-1.122v-3.363s0.412 0.561 1.817 0.561 1.818-0.561 1.818-0.561v3.363c1.405 0.401 2.15 1.122 3.885 1.122 2.809 0 3.553-1.362 5.949-1.362 1.074 0 1.818 0.24 1.818 0.24 3.719-5.123 6.364-11.608 6.364-19.853v-17.531l-19.916-0.0003h-19.914zm5.4531 1.1211s0.7432 2.2403 0.9082 2.6406c0.413-0.0801 2.811-0.5606 2.811-0.5606s-1.572 1.7618-1.903 2.0821c0.331 0.3201 1.903 2.0801 1.903 2.0801s-2.397-0.479-2.893-0.559c-0.165 0.401-0.9082 2.643-0.9082 2.643s-0.7449-2.242-0.9102-2.643c-0.4132 0.08-2.8086 0.559-2.8086 0.559s1.6525-1.76 1.9004-2.0801c-0.3306-0.3203-1.9004-2.0821-1.9004-2.0821s2.3954 0.4805 2.8086 0.5606c0.1653-0.4003 0.9922-2.6406 0.9922-2.6406zm11.074 0.7988h6.775l-1.57 2.6426v5.9238h7.932l2.646-1.521v6.085l-2.646-1.521h-7.932v3.123s-1.075 0.158-1.818 0.559c-0.744-0.481-1.819-0.559-1.819-0.559v-3.123h-7.933l-2.643 1.521v-6.085l2.643 1.521h7.933v-5.9238l-1.568-2.6426zm-11.074 1.2012c-0.1653 0.5604-0.4961 1.3613-0.4961 1.3613s-0.9099-0.2403-1.4883-0.3203c0.4132 0.4803 0.9922 1.1211 0.9922 1.1211s-0.579 0.7211-0.9922 1.1211c0.5785-0.16 1.4883-0.32 1.4883-0.32s0.3308 0.801 0.4961 1.361c0.1653-0.56 0.4962-1.283 0.4962-1.283s0.91 0.162 1.488 0.242c-0.413-0.48-0.994-1.1211-0.994-1.1211s0.581-0.7208 0.994-1.1211c-0.578 0.1601-1.488 0.3203-1.488 0.3203s-0.3309-0.8009-0.4962-1.3613zm90.303 10.81c-0.166 0-0.248-0.002-0.331 0.078-0.165 0.961-0.661 2.643-1.074 4.164 0.083 0.401 0.661 0.481 0.908 0.321 1.073-2.242 1.823-2.563 4.383-2.563h0.82c0.75 0 0.75 0.081 0.75 1.201v11.848c0 2.882-0.25 2.963-1.57 3.123l-1.16 0.162c-0.17 0.16-0.16 0.719 0.08 0.799 1.82-0.08 3.14-0.08 4.38-0.08s2.57 0 4.22 0.08c0.25-0.08 0.25-0.639 0.08-0.799l-0.99-0.082c-1.32-0.16-1.57-0.239-1.57-3.121v-11.93c0-1.12 0-1.199 0.74-1.199h0.83c3.06 0 3.55 0.479 3.96 2.641 0.25 0.16 0.75 0.16 0.91-0.08-0.08-0.881 0.17-3.282 0.42-4.403-0.08-0.08-0.17-0.16-0.33-0.16-0.09 0-0.25 0.08-0.33 0.08-0.33 0.641-0.75 0.721-2.15 0.721h-10.25c-1.9 0-2.31 0-2.48-0.721-0.08-0.08-0.164-0.08-0.246-0.08zm-13.223 0.479c-5.95 0-10.162 4.163-10.162 9.767 0 4.884 3.717 9.288 10.08 9.288 5.702 0 9.998-4.004 9.998-9.448 0-5.043-3.305-9.607-9.916-9.607zm108.5 0l-0.02 0.002c0.01 0 0.01 0.002 0.01 0.002 0.01 0 0.01-0.004 0.01-0.004zm-0.01 0.004c-0.08 0.009-0.99 1.118-1.97 1.277 0.08 0.48-0.17 1.121-0.58 2.002l-3.89 9.768c-0.57 1.521-1.07 2.64-1.4 3.361-0.41 0.881-0.74 1.121-1.57 1.281l-0.83 0.16c-0.16 0.241-0.16 0.641 0 0.801 0.99-0.08 1.9-0.08 2.81-0.08 1.16 0 2.07 0 2.98 0.08 0.25-0.08 0.25-0.641 0.08-0.801l-0.83-0.16c-1.07-0.16-1.15-0.238-0.57-1.84l1.15-3.285c0.25-0.72 0.25-0.719 0.99-0.719h3.8c0.83 0 0.92-0.001 1.16 0.719l1.32 3.764c0.42 1.201 0.25 1.361-0.74 1.441l-0.66 0.08c-0.17 0.16-0.16 0.641 0.08 0.801 0.99 0 2.23-0.08 3.47-0.08 1.49 0 2.57 0 3.72 0.08 0.17-0.16 0.17-0.641 0-0.801l-0.41-0.08c-1.41-0.24-1.57-0.401-2.23-2.242l-4.15-11.525c-0.42-1.201-0.83-2.561-1.24-3.762-0.08-0.157-0.25-0.237-0.49-0.24zm-120.72 0.236c-0.989 0.159-1.648 0.16-2.886 0.16-1.075 0-2.15 0-3.307-0.08-0.248 0.08-0.33 0.641-0.082 0.801l0.66 0.08c0.744 0.08 1.159 0.32 1.407 0.721 0.495 0.8 0.578 3.36 0.578 5.441v5.365c0 0.481 0 0.561-0.082 0.641-0.331-0.16-2.894-3.041-4.133-4.322l-2.815-3.043c-0.991-1.041-4.049-4.483-4.545-5.684-0.743 0.08-1.404 0.078-1.982 0.078-0.744 0-2.314 0.002-3.389-0.078-0.33 0.08-0.33 0.639-0.082 0.799l0.414 0.08c0.414 0.08 1.156 0.32 1.487 0.561 0.991 0.8 0.91 1.201 0.91 3.363v6.484c0 2.162-0.002 4.563-0.332 5.444-0.165 0.4-0.743 0.56-1.238 0.64l-0.663 0.16c-0.247 0.161-0.165 0.641 0.082 0.801 0.992-0.08 1.738-0.08 2.977-0.08 1.074 0 2.229 0 3.221 0.08 0.248-0.08 0.332-0.641 0.084-0.801l-0.662-0.08c-0.744-0.08-1.158-0.24-1.489-0.72-0.496-0.801-0.494-3.362-0.494-5.444v-5.363c0-1.441 0-1.762 0.082-1.762 0.496 0.401 1.405 1.44 3.223 3.442l6.611 7.365c2.066 2.241 2.892 3.203 3.305 3.764 0.33 0 0.744-0.081 0.992-0.401-0.083-0.64-0.084-4.002-0.084-4.803v-6.566c0-2.161 0.001-4.563 0.414-5.443 0.165-0.401 0.662-0.561 1.24-0.641l0.661-0.158c0.247-0.16 0.165-0.641-0.083-0.801zm50.764 0.078c-2.32 0-4.72 0.08-6.53 0.24-0.25 0.161-0.25 0.561 0 0.801l0.74 0.08c1.32 0.16 1.32 0.48 1.32 3.121v10.088c0 2.882-0.24 2.961-1.65 3.121l-0.66 0.082c-0.25 0.161-0.17 0.721 0.08 0.801 1.32-0.08 2.56-0.082 3.8-0.082s2.56 0.002 3.8 0.082c0.25-0.08 0.25-0.641 0.09-0.801l-0.58-0.082c-1.32-0.16-1.57-0.239-1.57-3.121v-3.521c0-0.561 0-0.641 0.91-0.641s1.24 0.08 1.73 0.961c0.66 1.041 1.49 2.561 2.24 3.762 1.73 2.562 3.22 3.603 5.94 3.603 1 0 1.57-0.08 1.9-0.16 0.09-0.16 0.09-0.402-0.08-0.562-0.33 0-1.15-0.159-1.98-0.879-1.32-1.041-2.73-3.443-5.04-7.125-0.09-0.16-0.17-0.401 0-0.481 1.4-0.56 3.39-1.842 3.39-4.324 0-2.001-1.08-3.281-2.48-4.002-1.24-0.64-3.14-0.961-5.37-0.961zm46.85 0c-2.81 0-5.04 0.08-7.11 0.24-0.24 0.161-0.24 0.641 0 0.801l0.58 0.08c1.32 0.16 1.32 0.48 1.32 3.121v10.088c0 2.882-0.24 2.961-1.57 3.121l-0.66 0.082c-0.16 0.161-0.16 0.721 0.08 0.801 1.24-0.08 2.57-0.082 3.64-0.082 0.5 0 1.16 0.002 1.82 0.082 0.66 0 1.49 0.08 2.31 0.08 2.57 0 5.04-0.32 7.03-1.281 3.47-1.761 5.04-4.884 5.04-7.926 0-4.083-2.4-6.965-5.79-8.246-2.06-0.72-3.96-0.961-6.69-0.961zm52.39 0l-0.01 0.002h0.01v-0.002zm0 0.002c-0.49 1.841-1.4 3.443-2.31 5.283l-2.65 5.284c-0.66 1.28-0.99 2.08-1.48 2.88-0.34-0.64-1.08-2-1.33-2.48l-3.15-6.324c-0.74-1.521-1.4-2.882-1.56-4.563-1.08 0.08-2.07 0.08-3.06 0.08-1.08 0-1.82 0-2.65-0.08-0.25 0.08-0.24 0.641-0.08 0.801l0.99 0.16c1.08 0.16 1.49 0.719 1.49 2 0 1.681-0.17 4.004-0.25 5.846-0.16 2.882-0.16 4.643-0.41 6.404-0.17 1.681-0.41 2.082-1.74 2.242l-0.49 0.08c-0.17 0.161-0.17 0.641 0.08 0.801 1.08-0.08 2.15-0.08 3.06-0.08 1.07 0 1.9 0 2.97 0.08 0.25-0.08 0.25-0.64 0-0.801l-0.91-0.16c-1.24-0.16-1.24-0.641-1.24-2.482 0-2.242 0.09-4.723 0.17-6.404 0.08-1.121 0.08-3.282 0.16-4.643h0.09c0.33 0.801 1.07 2.561 1.65 3.682l2.56 5.283c0.66 1.361 1.9 4.084 2.31 5.525 0.17 0.08 0.67 0.08 0.75 0 0.49-1.281 1.9-4.325 2.89-6.246l2.48-4.803c0.5-1.12 0.91-1.92 1.73-3.441h0.09v2.561 8.646c0 1.841-0.08 2.082-1.24 2.242l-0.75 0.16c-0.24 0.16-0.16 0.721 0.09 0.801 1.24-0.08 2.48-0.082 3.8-0.082 1.16 0 2.23 0.002 3.47 0.082 0.33-0.08 0.33-0.721 0.08-0.801l-0.82-0.16c-0.91-0.08-1.24-0.321-1.33-2.162-0.16-4.083-0.24-8.167-0.24-12.17-0.34-1.441 0-1.92 1.24-2.08l0.9-0.16c0.25-0.16 0.25-0.721-0.08-0.801-0.82 0.08-1.82 0.08-2.97 0.08-0.58 0-1.56-0.001-2.31-0.08zm-84.95 0.078c-0.25 0.08-0.25 0.641-0.08 0.801l0.5 0.08c1.32 0.16 1.57 0.241 1.57 3.203v10.248c0 2.882-0.25 2.961-1.57 3.121l-1.08 0.08c-0.16 0.161-0.16 0.721 0.09 0.801 1.32-0.08 2.97-0.08 4.29-0.08h3.22c1.66-0.08 3.06-0.08 4.22-0.08 1.15 0 2.06 0 2.73 0.08 0.41-0.72 0.99-2.801 1.15-4.002-0.16-0.24-0.66-0.322-0.91-0.162-0.99 2.242-1.65 3.043-5.2 2.963-2.4 0-2.9-0.24-3.23-0.641-0.41-0.48-0.49-1.439-0.49-2.88v-3.524c0-0.72 0-0.721 0.66-0.721h1.32c2.48 0 2.98 0.081 3.14 1.202l0.17 1.121c0.25 0.16 0.74 0.16 0.91 0 0-0.881-0.09-1.842-0.09-2.883s0.09-2 0.09-2.721c-0.17-0.24-0.66-0.24-0.91 0l-0.17 0.959c-0.16 1.201-0.66 1.201-3.14 1.201h-1.32c-0.66 0-0.66 0.002-0.66-0.718v-4.645c0-1.601 0-1.602 1.24-1.602h1.9c0.74 0 1.65 0.083 2.23 0.243 0.91 0.24 1.32 0.879 1.82 2.48 0.25 0.16 0.82 0.08 0.91-0.08-0.17-1.201-0.33-3.363-0.42-3.844-0.33 0.08-1.98 0.08-3.8 0.08h-5.45-1.9c-0.66 0-1.24 0-1.74-0.08zm94.37 0c-0.24 0.082-0.24 0.641-0.08 0.801l0.5 0.08c1.32 0.16 1.56 0.241 1.56 3.203v10.248c0 2.882-0.24 2.961-1.56 3.121l-1.08 0.08c-0.16 0.161-0.16 0.721 0.08 0.801 1.33-0.08 2.98-0.08 4.3-0.08h3.22 4.3c1.16 0 2.07 0 2.73 0.08 0.41-0.72 0.99-2.801 1.16-4.002-0.25-0.32-0.75-0.402-1-0.242-0.99 2.242-1.65 3.043-5.2 2.963-2.4 0-2.9-0.24-3.23-0.641-0.41-0.48-0.49-1.439-0.49-2.88v-3.524c0-0.72 0-0.721 0.66-0.721h1.32c2.48 0 2.98 0.081 3.14 1.202l0.17 1.121c0.24 0.16 0.74 0.16 0.91 0 0-0.881-0.09-1.842-0.09-2.883s0.09-2 0.09-2.721c-0.17-0.24-0.67-0.24-0.91 0l-0.17 0.959c-0.25 1.201-0.66 1.201-3.14 1.201h-1.32c-0.66 0-0.66 0.002-0.66-0.718v-4.645c0-1.601 0-1.602 1.24-1.602h1.9c0.74 0 1.65 0.083 2.23 0.243 0.91 0.24 1.32 0.879 1.82 2.48 0.25 0.16 0.82 0.08 0.91-0.08-0.17-1.201-0.33-3.363-0.42-3.844-0.33 0.08-1.98 0.08-3.8 0.08h-5.45-1.9c-0.66 0-1.24 0-1.74-0.08zm-147.51 0.721c4.545 0 6.444 4.804 6.444 8.967 0 5.524-2.643 7.845-5.865 7.845-4.876 0-6.53-5.204-6.53-8.966 0-5.844 3.142-7.846 5.951-7.846zm39.086 0.322c2.48 0 3.88 1.921 3.88 4.082 0 2.642-1.24 3.924-4.05 3.924-1.32 0-1.32-0.082-1.32-0.963v-5.683c0-1.281 0-1.36 1.49-1.36zm47.27 0c4.71 0 8.01 2.64 8.01 8.084 0 4.644-2.31 8.086-7.35 8.086-2.98 0-3.23-1.44-3.23-4.082v-9.687c0-1.281 0-1.84 0.25-2 0.17-0.16 1.16-0.401 2.32-0.401zm-161.05 1.36s2.479 1.04 6.694 0.48c4.049-0.56 5.701 0.481 5.701 0.481s1.654-1.041 5.703-0.481c4.297 0.56 6.775-0.48 6.775-0.48v1.841h1.074v13.93h-11.734s-0.579 0.721-1.818 0.721c-1.24 0-1.819-0.721-1.819-0.721h-11.734v-13.93h1.158v-1.841zm15.572 1.267c-2.031 0.034-2.683 0.574-2.683 0.574v12.569s1.406-0.959 5.455-0.479c4.049 0.481 5.537-0.4 5.537-0.4v-12.25s-1.736 0.64-5.785 0.16c-1.012-0.14-1.844-0.185-2.522-0.174h-0.002zm-14.666 0.014v12.25s1.488 0.881 5.538 0.4c4.049-0.56 5.455 0.401 5.455 0.401v-12.491s-1.158-0.88-5.207-0.4c-4.05 0.48-5.786-0.16-5.786-0.16zm180.97 0.4h0.08c0.17 0.16 0.33 0.721 0.83 2.162l1.15 3.282c0.25 0.64 0.09 0.72-0.66 0.72h-2.97c-0.66-0.08-0.74-0.078-0.41-0.799l1.15-3.203c0.5-1.281 0.75-2.002 0.83-2.162zm-175.84 2.801c0 0.08 0.083 0.08 0.331 0.08h1.406c0.165 0 0.165 0 0.248-0.08h0.082 0.084c-0.083 0.16-0.084 0.482-0.084 0.563h-0.082c-0.083-0.241-0.166-0.321-0.496-0.321h-0.164c-0.083 0-0.084-0.002-0.084 0.158v1.522c0 0.4 0 0.4 0.166 0.4h0.164v0.08h-0.496-0.577v-0.08h0.165c0.165 0 0.164 0 0.164-0.4v-1.442c0-0.159 0-0.158-0.082-0.158h-0.164c-0.248 0-0.415 0-0.663 0.241 0 0.08-0.082 0-0.082 0 0.083-0.241 0.164-0.403 0.164-0.563zm3.473 0v0.002h0.082c0.083 0.16 0.084 0.32 0.166 0.48l0.496 1.44s0.081 0.32 0.246 0.32h0.082v0.08h-0.496-0.412v-0.08h0.082c0.083 0 0.167 0 0.084-0.16l-0.166-0.4c0-0.08-0.081-0.08-0.164-0.08h-0.496c-0.083 0-0.166 0-0.166 0.08l-0.166 0.4c-0.083 0.24-0.081 0.24 0.084 0.24h0.082v0.08h-0.414-0.33v-0.08h0.084c0.082 0 0.081-0.078 0.164-0.158 0-0.08 0.081-0.24 0.164-0.4l0.498-1.284c0-0.08-0.002-0.158 0.246-0.318 0.083 0 0.25-0.162 0.25-0.162zm-7.437 0.08h0.41 0.496v0.082h-0.082c-0.083 0-0.082 0.078-0.082 0.078 0 0.08-0.001 0.16 0.164 0.481l0.25 0.642c0 0.16 0.166 0.399 0.166 0.479 0.165-0.4 0.411-0.881 0.576-1.362 0-0.08 0.001-0.158-0.082-0.158h-0.082v-0.08h0.414 0.33v0.08h-0.082c-0.083 0-0.165 0.078-0.248 0.158-0.083 0.161-0.167 0.401-0.332 0.721l-0.164 0.401c-0.083 0.32-0.248 0.72-0.33 0.88h-0.166c-0.083-0.16-0.166-0.32-0.166-0.56l-0.66-1.442c-0.083-0.239-0.083-0.318-0.248-0.318h-0.082v-0.082zm19.75 0c0.743 0 1.156 0.561 1.156 1.201 0 0.721-0.495 1.201-1.156 1.201-0.744 0-1.159-0.56-1.159-1.201 0-0.64 0.498-1.201 1.159-1.201zm-17.024 0.082h0.496 0.496v0.08h-0.082c-0.165 0-0.166 0-0.166 0.401v1.279c0 0.4 0.001 0.4 0.166 0.4h0.082v0.08h-0.496-0.496s0.002-0.08 0.084-0.08c0.165 0 0.164-0.4 0.164-0.4v-1.279c0-0.401 0.001-0.401-0.164-0.401h-0.084v-0.08zm11.156 0h0.248 0.248 0.579 0.496c0 0.08 0.082 0.32 0.082 0.481h-0.082c-0.083-0.241-0.166-0.321-0.248-0.321h-0.248-0.164c-0.166 0-0.166 0.08-0.166 0.241v0.638c0 0.08-0.001 0.08 0.082 0.08h0.084c0.33 0 0.412 0 0.412-0.16v-0.158h0.082v0.318 0.401h-0.082v-0.16c-0.083-0.161-0.082-0.159-0.412-0.159h-0.084c-0.083 0-0.082 0-0.082 0.08v0.399c0 0.24-0.001 0.32 0.082 0.4 0 0.08-0.001 0.08 0.33 0.08 0.413 0 0.497-0.08 0.58-0.4 0-0.08 0.082 0 0.082 0 0 0.08-0.084 0.4-0.166 0.48h-0.248-0.494-0.415-0.496v-0.08h0.166c0.166 0 0.165 0 0.082-0.4v-1.279c0-0.401 0.002-0.401-0.164-0.401h-0.084v-0.08zm2.233 0h0.742c0.331 0 0.496 0 0.744 0.08 0.413 0.16 0.66 0.559 0.66 1.039 0 0.401-0.163 0.801-0.576 1.041-0.248 0.08-0.413 0.16-0.744 0.16h-0.25c-0.083 0-0.164 0-0.164-0.08h-0.412v-0.08h0.082c0.165 0 0.164 0 0.164-0.4v-1.279c0-0.321 0.001-0.401-0.164-0.401h-0.082v-0.08zm3.551 0.08c-0.248 0-0.661 0.239-0.661 1.039 0 0.481 0.166 1.121 0.745 1.121 0.33 0 0.66-0.318 0.66-1.039 0-0.48-0.249-1.121-0.744-1.121zm-6.776 0.08c0.248 0 0.413-0.002 0.578 0.078h0.084c0.083 0.08 0.082 0.241 0.082 0.481h-0.082c0-0.16-0.167-0.481-0.58-0.481s-0.826 0.323-0.826 0.963c0 0.721 0.413 1.039 0.826 1.039s0.58-0.24 0.662-0.48c0-0.08 0.082 0 0.082 0 0 0.16-0.081 0.4-0.164 0.48h-0.084c-0.082 0-0.33 0.082-0.578 0.162-0.33 0-0.578-0.082-0.826-0.242s-0.412-0.478-0.412-0.879c0-0.4 0.164-0.72 0.412-0.88 0.165-0.161 0.496-0.241 0.826-0.241zm3.967 0c-0.165 0-0.166 0.078-0.166 0.078v0.243 1.201c0 0.32-0.081 0.478 0.25 0.558 0.578 0 0.826-0.478 0.826-1.039 0-0.72-0.332-1.041-0.91-1.041zm-9.834 0.321c0 0.08-0.082 0.158-0.082 0.238l-0.166 0.4c0 0.16-0.001 0.162 0.082 0.162h0.332c0.083 0 0.165-0.082 0.082-0.162l-0.164-0.4c-0.083-0.16-0.084-0.238-0.084-0.238zm6.363 3.361c0.166 0 0.331 0.08 0.496 0.08 0.083 0.08 0.084 0.32 0.084 0.48h-0.084c-0.082-0.16-0.165-0.4-0.496-0.4-0.33 0-0.414 0.24-0.414 0.4 0 0.081 0.084 0.241 0.332 0.401l0.248 0.08c0.166 0.16 0.414 0.32 0.496 0.641 0 0.4-0.33 0.72-0.826 0.72-0.33 0-0.497-0.08-0.58-0.16 0-0.08-0.082-0.32-0.082-0.56h0.082c0.083 0.16 0.25 0.56 0.58 0.56 0.248 0 0.412-0.16 0.412-0.4 0-0.16-0.082-0.321-0.33-0.481l-0.164-0.08c-0.248-0.08-0.498-0.32-0.498-0.64 0-0.321 0.249-0.641 0.744-0.641zm2.975 0h0.248 0.248 0.66 0.496c0 0.08 0.084 0.32 0.084 0.48h-0.084c-0.082-0.24-0.163-0.32-0.246-0.32h-0.25-0.246c-0.165 0-0.166 0.08-0.166 0.24v0.641c0 0.08-0.001 0.08 0.082 0.08h0.166c0.331 0 0.414 0 0.414-0.16v-0.08h0.082v0.32 0.401h-0.082v-0.161c-0.082-0.16-0.083-0.16-0.414-0.16h-0.166c-0.083 0-0.082 0-0.082 0.08v0.401c0 0.24-0.001 0.32 0.082 0.4s0.084 0.08 0.414 0.08c0.413 0 0.496-0.08 0.496-0.48 0-0.08 0.082 0 0.082 0 0 0.08-0.083 0.4-0.166 0.48h-0.328-0.084-0.414-0.414-0.494v-0.08h0.166c0.165 0 0.164 0 0.164-0.4v-1.282c0-0.4 0.001-0.4-0.164-0.4h-0.084v-0.08zm3.141 0c0.165 0 0.33 0.08 0.496 0.08 0.082 0.08 0.082 0.32 0.082 0.48h-0.082c-0.083-0.16-0.166-0.4-0.496-0.4-0.331 0-0.415 0.24-0.415 0.4 0 0.081 0.085 0.241 0.333 0.401l0.246 0.08c0.248 0.16 0.498 0.32 0.498 0.641 0 0.4-0.331 0.72-0.827 0.72-0.33 0-0.497-0.08-0.58-0.16-0.082-0.08-0.082-0.32-0.082-0.56h0.082c0.083 0.16 0.25 0.56 0.58 0.56 0.248 0 0.413-0.16 0.413-0.4 0-0.16-0.083-0.321-0.33-0.481l-0.166-0.08c-0.248-0.08-0.497-0.32-0.497-0.64 0-0.321 0.249-0.641 0.745-0.641zm-18.758 0.08h0.828c0.248 0 0.494 0 0.742 0.08 0.413 0.16 0.662 0.561 0.744 0.961 0 0.4-0.165 0.801-0.578 1.041-0.248 0.08-0.496 0.16-0.826 0.16h-0.25-0.246-0.414v-0.08h0.084c0.165 0 0.164 0 0.164-0.4v-1.282c0-0.32 0.001-0.4-0.164-0.4h-0.084v-0.08zm4.049 0h0.414c0.165 0 0.246 0 0.412 0.08v0.08h-0.082c-0.083 0-0.164 0-0.164 0.08-0.083 0.16-0.084 0.481-0.084 0.721v0.4c0 0.321-0.083 0.641-0.248 0.801-0.166 0.16-0.415 0.238-0.663 0.238-0.329 0-0.576-0.078-0.742-0.238-0.165-0.16-0.248-0.4-0.248-0.721v-0.88c0-0.401 0.001-0.401-0.164-0.401h-0.084v-0.08h0.412 0.498v0.08h-0.084c-0.165 0-0.164 0-0.164 0.401v0.8c0 0.481 0.165 0.881 0.66 0.881 0.496 0 0.661-0.32 0.661-0.881v-0.48c0-0.32 0-0.641-0.082-0.721 0-0.08-0.082-0.08-0.164-0.08h-0.084v-0.08zm0.992 0h0.496 0.496v0.08h-0.084c-0.165 0-0.164 0-0.164 0.4v1.202c0 0.24-0.001 0.32 0.082 0.4s0.166 0.08 0.414 0.08c0.413 0 0.496 0 0.496-0.4h0.082c-0.083 0.08-0.083 0.4-0.166 0.48h-0.33-0.496-0.33-0.496v-0.08h0.082c0.165 0 0.166 0 0.166-0.4v-1.282c0-0.4-0.001-0.4-0.166-0.4h-0.082v-0.08zm8.677 0h0.745c0.33 0 0.577 0 0.66 0.08 0.248 0.16 0.33 0.32 0.33 0.561 0 0.48-0.496 0.64-0.744 0.64h-0.082v-0.08c0.33-0.08 0.412-0.24 0.412-0.56 0-0.321-0.164-0.561-0.494-0.561-0.166 0-0.166 0-0.166 0.16v1.522c0 0.4 0 0.4 0.166 0.4h0.164v0.08h-0.496-0.495v-0.08h0.083c0.165 0 0.164 0 0.164-0.4v-1.282c0-0.32 0.001-0.4-0.164-0.4h-0.083v-0.08zm-12.974 0.08c-0.083 0-0.248 0.08-0.248 0.08v0.24 1.202c0 0.4 0.083 0.56 0.414 0.56 0.661 0 0.909-0.48 0.744-1.041 0-0.72-0.332-1.041-0.91-1.041zm6.197 0.721c0.083 0 0.165 0 0.33 0.08 0.248 0.16 0.25 0.16 0.332 0.16 0.166 0 0.248-0.08 0.248-0.24h0.082c0 0.32-0.164 0.4-0.33 0.4-0.082 0-0.166 0-0.414-0.16-0.165-0.08-0.165-0.08-0.248-0.08-0.165 0-0.248 0.16-0.248 0.24h-0.082c0-0.4 0.33-0.4 0.33-0.4zm2.725 13.609c-2.81 0-3.39 1.362-5.703 1.362-2.727 0-3.306-1.282-5.453-1.282 1.073 1.201 2.065 2.243 3.222 3.203 0.579 0.561 0.826 0.721 1.404 0.801 0.248 0.08 0.829 0.078 0.829 0.078 2.313 0 2.808-1.361 5.701-1.361 2.809 0 3.389 1.361 5.703 1.361 0 0 0.578 0.002 0.826-0.078 0.579-0.16 0.826-0.32 1.404-0.801 1.157-0.96 2.149-2.002 3.223-3.203-2.149 0-2.644 1.282-5.453 1.282-2.314 0-2.811-1.362-5.703-1.362zm-0.082 5.844c-1.653 0-2.48 0.561-3.389 0.961 1.157 0.8 2.232 1.441 3.389 2.082 1.157-0.641 2.229-1.362 3.386-2.082-0.909-0.4-1.734-0.961-3.386-0.961z" transform="translate(-.00069428)" fill="#0c2340"/>
 </g>
</svg>