<?xml version="1.0" encoding="UTF-8" standalone="no"?>
<svg xmlns:rdf="http://www.w3.org/1999/02/22-rdf-syntax-ns#" xmlns="http://www.w3.org/2000/svg" xml:space="preserve" height="127.27" viewBox="0 0 301.0918 127.27149" width="301.09" version="1.1" xmlns:cc="http://creativecommons.org/ns#" xmlns:dc="http://purl.org/dc/elements/1.1/"><g transform="matrix(1.25 0 0 -1.25 -598.84 505.34)"><path d="m479.65 403.54v-2.3344c6.866-0.987 6.5609-0.53738 6.5609-8.8844v-26.744c0-15.054 4.3304-24.475 17.898-25.775v-23.859c0-9.389 0.34431-8.8843-7.3797-9.9953v-2.625h0.0859 25.917c21.284 0 33.9 17.165 33.9 37.358 0 16.305-6.543 27.519-19.375 31.605-0.024 0.543-0.0406 1.0297-0.0406 1.3047v16.803c5.578-7.299 11.224-14.789 16.664-21.936h1.1625v21.48c0 0.798 0.13669 1.4451 0.20469 2.0531 0.168 1.34 1.2899 1.8756 2.8469 2.0766 2.958-0.398 2.8312-0.26 2.8312-3.75v-17.108c0-3.535 0.13625-3.3445-2.9438-3.7625v-0.98906h9.2047v0.98906c-3.079 0.418-2.9438 0.2275-2.9438 3.7625v17.108c0 3.19-0.10206 3.3492 2.1359 3.6562 1.228-0.365 2.1424-1.7451 3.1984-5.1391 2.088-6.462 4.4146-13.8 6.5016-20.377h1.7453c2.874 7.794 5.7823 15.55 8.6563 23.344 0.528 1.396 1.2772 1.9686 2.0312 2.1766 2.28-0.311 2.175-0.45194 2.175-3.6609v-17.108c0-3.535 0.13838-3.3445-2.9406-3.7625v-0.98906h16.833l0.10157 0.67656v-0.67656h9.2047v0.98906c-3.08 0.418-2.9422 0.2275-2.9422 3.7625v7.0344h3.2156c4.14-7.642 5.2341-11.786 7.2531-11.786h3.525v0.49375c-1.198 0.798-3.114 3.4609-4.825 6.2359l-3.3531 5.6641c2.635 1.14 4.7906 3.8397 4.7906 7.7547 0 4.448-3.4559 6.4641-6.9109 6.4641h-9.9578v-0.98906c3.08-0.418 2.9422-0.22807 2.9422-3.7641v-17.108c0-3.516 0.13325-3.3472-2.8938-3.7562l0.87813 5.8484h-0.89063c-1.574-4.068-1.3333-5.6266-6.2953-5.6266-3.079 0-4.4141 0.26587-4.4141 3.4969v8.5922h2.8734c2.293 0 3.0804-1.3304 3.1484-3.5734h0.88906v8.0969h-0.88906c-0.068-2.357-0.99243-3.3062-3.1484-3.3062h-2.8734v10.872h4.6516c2.464 0 3.1502-2.0901 3.4922-4.9031h0.88905v6.1203h-13.719-1.5422-0.0328-5.8156v-0.98906c2.327 0 3.2154-1.1784 2.3594-3.5734-2.121-5.816-4.2069-11.67-6.3969-17.488-1.779 5.779-3.765 12.317-5.1 16.803-1.128 3.65 0.23988 4.2578 2.1219 4.2578v0.98906h-7.7281-1.5781-7.4172-0.20938-8.1734v-0.98906c2.258-0.19 3.4212-0.72163 3.5922-2.0906 0.068-0.608 0.20625-1.2551 0.20625-2.0531v-15.625h-0.0688c-5.098 6.881-10.402 13.877-15.5 20.758h-6.2281v-0.98906c1.951 0 3.0108-1.2164 3.9688-2.5844v-17.906c0-0.198-0.008-0.50662-0.0219-0.86562-2.444 0.65-5.1043 1.049-7.9703 1.2v17.5c0 1.885 0.30325 3.4093 0.45625 4.8453 0.381 3.231 2.8989 4.4879 6.5609 4.9359v2.3344h-18.003v-2.3344c3.586-0.448 6.1789-1.7049 6.5609-4.9359 0.153-1.436 0.45781-2.9603 0.45781-4.8453v-17.427h-27.091v-2.6234c7.724-1.111 7.3797-0.60688 7.3797-9.9969v-17.105c-8.258 1.959-10.498 10.711-10.498 21.753v26.295c0 8.347-0.30406 7.8974 6.5609 8.8844v2.3344h-20.522zm153.63-8.0141c-3.935 0-7.3563-2.6993-7.3563-6.1203 0-4.145 2.2936-5.6263 4.1406-6.9953 5.132-3.764 6.3297-5.778 6.3297-8.25 0-2.775-1.985-4.8281-4.414-4.8281-2.635 0-5.1334 1.6722-5.5094 5.8922h-0.88906v-5.475c0-0.304 0.10306-0.45525 0.23906-0.53125 1.779-0.76 3.6616-1.2172 5.8516-1.2172 4.106 0 8.2797 2.5104 8.2797 7.0344 0 3.155-1.1621 5.0939-4.7891 8.0969-3.422 2.852-5.8172 4.4484-5.8172 7.1094 0 2.813 1.7791 3.9547 3.7641 3.9547 2.737 0 4.0379-2.1296 4.3109-4.7906h0.88906v4.9797c0 0.19-0.0341 0.34275-0.23906 0.41875-1.369 0.532-3.3196 0.72188-4.7906 0.72188zm7.3562-0.45625v-0.98906c3.08-0.418 2.9438-0.2275 2.9438-3.7625v-17.109c0-3.535 0.13624-3.3445-2.9438-3.7625v-0.98906h9.2047v0.98906c-3.079 0.418-2.9422 0.2275-2.9422 3.7625v17.109c0 3.535-0.13681 3.3445 2.9422 3.7625v0.98906h-9.2047zm9.5078 0-0.92187-5.8172h0.85469c1.129 2.509 1.8131 4.6 4.7891 4.6h3.0812v-20.644c0-3.535 0.13525-3.3445-2.9438-3.7625v-0.98906h9.2047v0.98906c-3.079 0.418-2.9422 0.2275-2.9422 3.7625v20.644h3.0781c2.977 0 3.6606-2.091 4.7906-4.6h0.85468l-0.92343 5.8172h-18.922zm19.705 0v-0.98906c1.574 0 2.5314-0.94932 3.6594-3.4203l5.2719-11.595v-5.8562c0-3.535 0.13524-3.3445-2.9438-3.7625v-0.98906h9.2047v0.98906c-3.08 0.418-2.9438 0.2275-2.9438 3.7625v4.2594c0 0.95 0.0699 2.015 0.41094 2.775l5.7141 11.519c0.924 1.825 1.8472 2.3188 2.8062 2.3188v0.98906h-7.0484v-0.98906c2.019 0 3.113-1.1013 1.95-3.4203l-4.7219-9.5438-4.1391 9.5438c-0.856 1.977-1.0953 3.4203 1.5047 3.4203v0.98906h-8.725zm-58.906-1.2172h2.6328c2.498 0 4.5516-1.4435 4.5516-5.5875 0-4.296-1.3693-6.8062-4.3453-6.8062h-2.8391v12.394zm90.077-7.6453c-4.668 0-8.4359-3.9644-8.4359-9.3484 0-4.837 3.3431-8.7 7.6281-8.7 4.958 0 8.5016 4.2869 8.5016 9.5469 0 3.84-2.8258 8.5016-7.6938 8.5016zm7.875-0.29844v-0.64844c2.019-0.275 1.9281-0.15075 1.9281-2.4688v-11.219c0-2.318 0.0909-2.1932-1.9281-2.4672v-0.64844h6.0344v0.64844c-2.019 0.274-1.9281 0.14918-1.9281 2.4672v5.1109h2.1297c1.505 0 1.997-0.89719 2.064-2.3672h0.58438v5.3344h-0.58438c-0.045-1.546-0.64905-2.1688-2.064-2.1688h-2.1297v7.6281h3.05c1.615 0 1.997-1.3706 2.289-3.2156h0.58282v4.0141h-10.028zm-8.3687-0.57344c2.737 0 5.6312-2.4196 5.6312-8.3766 0-3.341-1.1661-7.9281-5.3391-7.9281-2.894 0-5.6766 3.092-5.6766 9.125 0 3.391 1.5694 7.1797 5.3844 7.1797zm-188.09-14.567h9.1828c0.753 0 1.4831-0.0316 2.2031-0.0766v-4.2156c0-12.102-3.9019-19.87-11.386-22.012v26.305zm15.353-0.59063c12.481-2.519 19.061-13.073 19.061-29.7 0-25.443-10.556-33.923-24.116-33.923-8.153 0-10.298 0.10125-10.298 11.106v22.612c8.106 2.116 15.353 9.7778 15.353 25.844v4.0609zm75.891-7.9297c-3.632-10.743-8.7508-26.64-10.633-30.919-0.428-0.982-1.071-1.6692-1.775-2.0562-2.3 0.22-3.3422 1.0089-3.3422 3.6609v22.653c0 4.522-0.17707 4.2791 3.7609 4.8141v1.2641h-11.769v-1.2641c3.938-0.535 3.7641-0.29206 3.7641-4.8141v-21.877c0-4.52 0.17393-4.2775-3.7641-4.8125v-1.2641h9.975 7.9641 3.5438l1.3125 8.7516h-1.0938c-1.657-4.284-1.7752-6.3906-5.3062-7.0016-0.77701 0.616-1.0253 1.7486-0.64532 3.0156l2.0141 6.5141h11.155l1.8828-6.2719c0.7-2.139 0.43725-3.7438-2.3188-3.7438v-1.2641h10.194v1.2641c-1.881 0-2.5808 1.5561-3.5438 4.2781-1.487 4.327-5.95 19.301-8.925 29.072h-2.45zm57.741 0c-3.632-10.743-8.7492-26.64-10.631-30.919-0.7-1.604-1.969-2.4312-3.15-2.4312v-1.2625h7.9625v1.2625c-1.925 0-2.7565 1.6046-2.1875 3.5016l2.0125 6.5141h11.156l1.8812-6.2719c0.7-2.139 0.43825-3.7438-2.3188-3.7438v-1.2625h6.425 3.7688 8v1.2625c-3.938 0.534-3.7609 0.2925-3.7609 4.8125v8.9953h4.1109c5.294-9.772 6.693-15.07 9.275-15.07h1.8328 2.675 18.85l1.3125 8.75h-1.1375c-2.013-5.202-1.706-7.1953-8.05-7.1953-3.937 0-5.6437 0.34088-5.6437 4.4719v10.988h3.675c2.931 0 3.937-1.7023 4.025-4.5703h1.1375v10.356h-1.1375c-0.088-3.014-1.269-4.2297-4.025-4.2297h-3.675v13.905h5.95c3.15 0 4.0261-2.6754 4.4641-6.2734h1.1375v7.8281h-19.514-0.0438v-1.2641c3.937-0.535 3.7625-0.29206 3.7625-4.8141v-21.877c0-3.75 0.11837-4.2211-2.0906-4.5781-1.483 1.503-3.4086 4.2568-5.1656 7.1078l-4.2891 7.2422c3.368 1.459 6.125 4.9102 6.125 9.9172 0 5.688-4.4175 8.2656-8.8375 8.2656h-12.731v-1.2641c3.937-0.535 3.7625-0.29206 3.7625-4.8141v-21.877c0-3.274 0.0907-4.0492-1.3563-4.4312-0.941 0.615-1.4947 1.9579-2.1797 3.8969-1.488 4.327-5.9516 19.301-8.9266 29.072h-2.45zm-50.355-0.58281v-1.2641c2.319 0 3.7615-1.9938 4.9875-6.7578l6.6062-26.008h1.8812l8.7516 26.397 8.7938-26.397h2.0125l8.1391 28.973c0.744 2.674 2.4927 3.7922 3.8047 3.7922v1.2641h-9.625v-1.2641c3.544-0.049 4.2882-1.5079 3.4562-4.5219-1.925-6.903-3.7613-13.806-5.7313-20.611h-0.0875l-8.6625 25.958h-1.6625l-8.7953-26.298h-0.0875l-5.2062 20.903c-0.875 3.306 0.13151 4.5703 2.8875 4.5703v1.2641h-11.463zm-53.673-0.002v-1.2625c3.938-0.534 3.7625-0.2915 3.7625-4.8125v-21.877c0-4.521 0.17549-4.2785-3.7625-4.8125v-1.2641h21.527l1.3125 8.75h-1.1375c-2.013-5.202-1.7066-7.1953-8.0516-7.1953-3.938 0-5.6437 0.34088-5.6437 4.4719v10.988h3.675c2.932 0 3.9396-1.7008 4.0266-4.5688h1.1375v10.355h-1.1375c-0.087-3.015-1.2696-4.2297-4.0266-4.2297h-3.675v13.903h5.95c3.151 0 4.0255-2.6733 4.4625-6.2703h1.1391v7.825h-19.514-0.0438zm123.19-1.5531h3.3672c3.194 0 5.8188-1.8494 5.8188-7.1484 0-5.493-1.7502-8.7016-5.5562-8.7016h-3.6297v15.85zm-77.03-3.55h0.0875l4.6359-15.8h-9.9312l5.2078 15.8zm57.741 0h0.0875l4.6391-15.8h-9.9328l5.2062 15.8z" fill="#00539f"/></g></svg>
