<?xml version="1.0" encoding="UTF-8" standalone="no"?>
<svg xmlns:rdf="http://www.w3.org/1999/02/22-rdf-syntax-ns#" xmlns="http://www.w3.org/2000/svg" version="1.0" xmlns:cc="http://creativecommons.org/ns#" xmlns:dc="http://purl.org/dc/elements/1.1/" viewBox="0 0 276.31 56.354" height="57" width="277">
 <g transform="translate(-.32411 .013509)">
  <path d="m104.85 1.7109-0.0606 0.00391c-0.004 0-0.0879 0.00977-0.0879 0.00977l-0.23047 0.017578-0.67383 0.050781c0.001 0-0.0371 0.00195-0.0371 0.00195-0.39274 0.015081-0.65431 0.023179-1.2324-0.00195-0.002 0-0.17773-0.00781-0.17773-0.00781l-0.0449 0.17383c-0.15835 0.61078-0.52102 1.6045-0.84375 2.4805l-0.15 0.3847-0.33 0.9258c0 0.00251-4.1543 11.926-4.1543 11.926-0.34611 0.96518-1.1134 1.5391-2.0547 1.5391h-0.37305v1.2305l0.24609-0.01367c0.9119-0.04901 1.8496-0.10547 2.7773-0.10547 1.0334 0 2.1182 0.05701 3.0742 0.10352l0.0586 0.002 0.22852 0.01758v-1.2012h-0.50196c-0.52041 0-1.7305-0.07041-1.7305-0.72266 0-0.26894 0.12567-0.63601 0.28516-1.1035l0.0098-0.02539c0-0.0013 0.26953-0.83398 0.26953-0.83398s0.61982-2.0176 0.7793-2.543h5.5742c0.076 0.2237 0.96485 2.8633 0.96485 2.8633 0.26756 0.77416 0.50586 1.4947 0.50586 1.7988 0 0.52532-0.96254 0.56641-1.2559 0.56641h-0.50782v1.1934l0.82227-0.03125c1.0726-0.04147 2.0888-0.08398 3.1602-0.08398 1.2408 0 2.4161 0.05646 3.5547 0.10547l0.25391 0.01172v-1.2285h-0.37695c-0.7905 0-1.244-0.2709-1.5117-0.9043-0.28013-0.64597-0.54472-1.4223-0.79883-2.1738l-0.15625-0.45898c0-0.005-4.6738-13.154-4.6738-13.154s0.003 0.00948 0.004 0.019531c-0.0147-0.05027-0.0669-0.18567-0.2461-0.6582-0.0713-0.20359-0.21277-0.18891-0.36132-0.17383zm153.37 0.00195v0.19727 0.097656c0 0.56177-0.0255 0.85235-0.0996 1.5059 0 0.00126-0.0156 0.16016-0.0156 0.16016l-0.26758 2.127-0.0391 0.25195h1.2305l0.0332-0.18555c0.38205-1.8487 0.44157-2.1353 2.2148-2.1504h3.4941v13.535c0 1.8814-0.5939 1.9629-1.9336 1.9629h-0.71875v1.2168h0.21875l1.752-0.04297 0.27735-0.0078c0.74777-0.02388 1.5978-0.05469 2.3594-0.05469 0.69624 0 1.5179 0.03081 2.248 0.05469l0.19141 0.0059c0.003 0 1.7969 0.04492 1.7969 0.04492h0.2207v-1.2168h-0.71484c-1.1323 0-1.9336-0.14684-1.9336-2.0156v-13.482h3.6055c1.6124 0.015081 1.6929 1.439 1.7344 2.2031 0 0.00377 0.008 0.2793 0.008 0.2793l1.1992-0.29688v-0.17383l0.0312-1.9004 0.004-0.16602c0.0188-0.50898 0.0507-1.0846 0.10351-1.625l0.0312-0.26367-0.27929 0.023437-0.55078 0.042969c-0.004 0-0.0859 0.00586-0.0859 0.00586 0.003 0-1.1562 0.021484-1.1562 0.021484h-12.475c-0.65979 0-1.0676-0.032338-1.4609-0.0625-0.0101 0-0.0645-0.00195-0.0645-0.00195 0.006 0-0.76172-0.072266-0.76172-0.072266l-0.19727-0.017578zm-79.555 0.14453-0.19336 0.00977h-0.041c0.004 0-2.7578 0.042969-2.7578 0.042969l-0.25977 0.00586c-1.2253 0.023878-2.4914 0.056641-3.625 0.056641-1.1374 0-2.4491-0.032066-3.6016-0.054687l-0.12695-0.00391c-1.0242-0.026392-2.0038-0.046875-2.7402-0.046875h-0.2207v1.2188h0.58398c1.0795 0 1.7031 0.20605 1.7031 1.2617v13.605c0 1.1097-0.55825 1.3281-1.5234 1.3281h-0.58594v1.1504h0.22266l2.6406-0.04102 0.44922-0.01172c1.1637-0.02136 2.4843-0.05273 3.6367-0.05273 1.1675 0 2.4961 0.03081 3.6699 0.05469l0.30664 0.0059 2.8672 0.04492h0.20117l0.0156-0.19336 0.21484-1.4219c0.12065-0.87847 0.23641-1.7091 0.45508-2.5977 0 0.0013 0.008-0.03711 0.008-0.03711l0.0469-0.17383-1.1465-0.28906-0.0625 0.19922c-0.372 1.4226-0.78076 2.1053-1.4531 2.4434-0.68996 0.34309-1.6821 0.34375-3.1914 0.34375h-0.0605c-1.8298 0-2.9473-0.07181-2.9473-1.4668v-5.6855h2.9766c1.5659 0 1.6959 0.64236 1.8555 2.2246 0-0.0013 0.006 0.04687 0.006 0.04687l0.0176 0.19922 1.1504-0.24609v-0.17774c-0.0565-1.0783-0.082-1.9159-0.082-2.8145 0-0.99157 0.0273-1.6981 0.0801-2.7324l0.0137-0.23633-1.1055 0.021484-0.0156 0.19727c-0.16 1.3768-0.59 1.778-1.95 1.778h-2.9512v-6.2148h3.3887c2.5889 0 2.7786 0.85339 2.9043 2.4922 0 0.00126 0.0156 0.26367 0.0156 0.26367l1.1426-0.30469-0.006-0.17773c-0.0653-0.99911-0.005-2.3087 0.043-3.3594l0.0274-0.6543zm-103.41 0.00977v1.2188h0.48047c1.0567 0 1.5156 0.20193 1.9746 1.3418 0 0.00251 6.7539 16.396 6.7539 16.396h1.2461l0.06055-0.12891c0.1865-0.42478 1.0632-2.5578 2.1738-5.2598l0.50391-1.2246c1.3415-3.2688 4.1343-10.069 4.2754-10.328 0.3681-0.73897 0.75486-0.79688 1.1855-0.79688h0.48047v-1.2188h-0.17774-0.04297c-0.38532 0-0.8077 0.025086-1.209 0.052734 0.0013 0-0.09375 0.00391-0.09375 0.00391-0.39034 0.021365-0.79723 0.048828-1.168 0.048828-0.57559 0-1.1124-0.032763-1.6328-0.056641-0.01596-0.00251-0.09766-0.00391-0.09766-0.00391l-1.2832-0.044922h-0.21484v1.2188h0.65625c1.2003 0 1.4434 0.24336 1.4434 0.63672 0 0.25009-0.05639 0.68756-0.32031 1.375 0 0-3.2991 8.3627-4.082 10.35-0.30803-0.78798-4.3594-11.102-4.3594-11.102-0.13623-0.35189-0.2168-0.67711-0.2168-0.75 0-0.24758 0.39496-0.50977 1.1289-0.50977h0.81836v-1.2188h-0.2207l-1.457 0.042969-0.03516 0.00195c-0.77189 0.026392-1.6446 0.060547-2.3516 0.060547-0.67864 0-1.4067-0.032626-1.9922-0.052734l-0.05273-0.00195c-0.6432-0.025135-1.3064-0.050781-1.9531-0.050781h-0.2207zm40.713 0 0.0234 1.123 0.54102 0.03125c0.49893 0 0.99227 0.2092 1.3555 0.57617 0.41096 0.40342 0.63671 0.97388 0.63671 1.6035l-0.0801 10.934c0 1.9718-0.32005 3.1133-1.9551 3.1133-0.008 0-0.58399 0.02344-0.58399 0.02344v1.1602h0.22071c0.58187 0 1.1549-0.0237 1.7129-0.04883h0.0215c0.49767-0.02513 1.1154-0.05664 1.7148-0.05664 0.57308 0 1.1759 0.0315 1.666 0.05664h0.0312c0.54166 0.02388 1.1019 0.04883 1.6524 0.04883h0.22265v-1.2168h-0.66406c-1.6715-0.01005-2.1562-0.64042-2.1562-2.8184 0-0.0013-0.0481-8.0676-0.0605-10.121 1.9919 2.2182 12.877 14.354 12.996 14.488l0.0527 0.06055h1.3438l-0.043-0.25391c-0.13321-0.83197-0.15039-1.7767-0.15039-2.5898l0.0703-11.816c0-3.0778 1.1426-3.0781 1.9746-3.0781 0.008 0 0.60742-0.027344 0.60742-0.027344v-1.1738h-0.21875c-0.55549 0-1.1244 0.024118-1.5781 0.042969-0.48133 0.017594-1.0267 0.044922-1.5684 0.044922-0.62335 0-1.2531-0.031369-1.8086-0.052734l-0.0449-0.00195c-0.58188-0.025135-1.1832-0.050781-1.7852-0.050781h-0.0391-0.17774v1.2188h0.78906c0.73771 0 1.9766 0.28657 1.9766 2.2207 0 0.086716 0.0492 7.353 0.0605 9.2695-0.55-0.656-11.25-12.71-11.25-12.71h-0.0977c-0.40844 0-0.8123 0.024814-1.168 0.044922-0.35314 0.020108-0.74867 0.042969-1.1445 0.042969-0.49893 0-0.98411-0.022862-1.4102-0.042969-0.42855-0.020108-0.91512-0.044922-1.4316-0.044922h-0.22071zm25.586 0v1.2188h0.58399c1.0783 0 1.7012 0.20605 1.7012 1.2617v13.605c0 1.1813-0.71209 1.2773-1.5742 1.2773l-0.58008 0.02734v1.1738h0.21484l1.1856-0.03125c0.74274-0.02891 1.8599-0.07422 2.9746-0.07422 1.7745 0 3.5988 0.05771 4.7148 0.10547 2.5776 0.15332 5.0366-0.7411 6.918-2.5156 1.8738-1.7657 2.9473-4.2521 2.9473-6.8184 0-2.746-0.98029-5.0638-2.834-6.7051-1.865-1.6526-4.5265-2.5254-7.6973-2.5254l-1.5957 0.042969-0.30469 0.00977c-0.68115 0.021365-1.4561 0.052734-2.2793 0.052734-0.93251 0-1.8972-0.036108-2.6738-0.0625l-0.12695-0.00586-0.35938-0.011719-0.99609-0.025391h-0.21875zm43.281 0v1.2188h0.68555c0.88727 0 1.623 0.132 1.623 1.752v13.197c0 1.126-1.156 1.2129-1.5117 1.2129l-0.68555 0.02148v1.1621h0.21875c0.64848 0 1.2582-0.02495 1.8477-0.04883h0.0273c0.53789-0.02513 1.1477-0.05664 1.7773-0.05664 0.7641 0 1.5743 0.0315 2.2266 0.05664h0.0293c0.73017 0.02388 1.4795 0.04883 2.2109 0.04883h0.22266v-1.2168h-0.68946c-1.1813 0-1.9082-0.09169-1.9082-1.8574v-4.959c0.0654 0.0013 0.13867 0.0039 0.13867 0.0039l1.043 0.02539c0.35441 0.02388 0.65531 0.11613 0.91797 0.50195 1.0305 1.5659 2.346 3.5105 4.2852 6.0566 1.0469 1.4252 2.3769 1.4258 3.3496 1.4258l2.9316 0.0059v-1.1875h-0.2168c-1.3573-0.06912-1.7965-0.22234-2.6172-1.459-0.0239-0.03393-0.83835-1.145-1.9883-2.7109l-1.3418-1.8262c-0.56428-0.74022-1.0558-1.2255-1.4668-1.4492 1.7896-0.80306 3.7148-2.5371 3.7148-5.0469 0-1.7783-0.65979-3.0871-1.9668-3.8965-1.0469-0.64723-2.5377-0.97461-4.4316-0.97461-0.67236 0-1.3014 0.023693-1.9688 0.048828-0.64848 0.023878-1.3885 0.056641-2.2129 0.056641-0.91365 0-1.8535-0.0375-2.6113-0.066406-0.006 0-0.26367-0.00977-0.26367-0.00977l-1.1504-0.029297h-0.21875zm22.078 0v1.2188h0.58398c1.0758 0 1.7031 0.20605 1.7031 1.2617v13.605c0 1.0557-0.62735 1.2617-1.7031 1.2617h-0.58398v1.2168h0.2207l1.7539-0.03906 0.23437-0.0059c0.82694-0.02639 1.7643-0.06055 2.6113-0.06055 0.84202 0 1.6983 0.03164 2.5039 0.06055 0.75279 0.02639 1.4276 0.04492 2.0371 0.04492 1.6853 0 3.2719-0.55542 4.4746-1.5684 1.2077-1.018 1.875-2.3646 1.875-3.791 0-1.258-0.46194-2.3718-1.3379-3.2227-0.83574-0.81186-2.0659-1.3659-3.4043-1.5645 1.8097-0.54166 3.5957-1.6855 3.5957-4.1211 0-1.2894-0.47179-2.3209-1.4043-3.0586-1.0431-0.82191-2.6331-1.2383-4.7344-1.2383l-1.7363 0.042969-0.14453 0.00586c-0.73897 0.023878-1.5011 0.056641-2.2715 0.056641-0.75405 0-1.5007-0.032763-2.2246-0.056641l-0.15429-0.00586-1.6738-0.042969h-0.2207zm20.943 0v1.2188h0.58398c1.0783 0 1.7012 0.20605 1.7012 1.2617v13.605c0 1.0557-0.62288 1.2617-1.7012 1.2617h-0.58398v1.2168h0.2207c0.47882 0 1.0541-0.01853 1.7051-0.04492 0.69876-0.02891 1.4372-0.06055 2.1133-0.06055 0.60324 0 1.2686 0.02496 1.9121 0.04883l0.18359 0.0078c0.66482 0.02388 1.3488 0.04883 1.957 0.04883h0.2168v-1.2168h-0.57813c-1.0783 0-1.7012-0.20605-1.7012-1.2617v-13.605c0-1.0557 0.62288-1.2617 1.7012-1.2617h0.57813v-1.2188h-0.17578-0.041c-0.62209 0-1.3086 0.025086-1.957 0.052734l-0.16016 0.00391c-0.64094 0.021365-1.305 0.048828-1.9082 0.048828-0.66105 0-1.3905-0.031506-2.0918-0.056641l-0.17578-0.00586-1.5781-0.042969h-0.2207zm14.434 0v1.2188h0.58203c1.0946 0 1.7285 0.20605 1.7285 1.2617v13.348c0 1.4038-0.81737 1.5195-1.7285 1.5195h-0.58203v1.2168h0.21875c1.126 0 2.2684-0.02495 3.373-0.04883h0.0586c1.0004-0.02513 2.2432-0.05664 3.4258-0.05664 1.1763 0 2.3351 0.0315 3.2676 0.05664h0.043c1.0356 0.02388 2.1065 0.04883 3.2363 0.04883h0.18164l0.0332-0.17578c0.21239-0.99283 0.38294-1.9203 0.54883-2.8164l0.33594-1.7617h-1.1934l-0.041 0.16211c-0.15584 0.57182-0.32303 1.01-0.70508 1.5391-0.47379 0.65728-1.3247 1.1142-2.2773 1.2285-1.0971 0.12065-1.9332 0.13568-3.0781 0.05273-0.9589-0.12065-1.3535-0.47893-1.3535-1.2305v-13.16c0-1.1826 0.58169-1.1836 1.5469-1.1836h0.86914v-1.2188h-0.17773-0.0449c-0.64597 0-1.3054 0.025646-1.9375 0.050781l-0.041 0.00195c-0.57308 0.020108-1.2869 0.052734-1.9668 0.052734-0.7063 0-1.4146-0.031369-2.043-0.052734l-0.0469-0.00195c-0.65728-0.025135-1.3375-0.050781-2.0137-0.050781h-0.21875zm-29.326 1.5215h1.3359c1.6124 0 3.2598 0.38781 3.2598 3.2695 0 2.0812-1.1533 3.0898-3.5273 3.0898 0 0-0.73029-0.018547-1.0684-0.027344v-6.332zm-20.795 0.015625c2.2006 0 3.5703 1.3394 3.5703 3.4922 0 1.3812-0.33574 2.4155-0.99805 3.0703-0.61957 0.61078-1.5381 0.9163-2.7383 0.90625-0.0126-0.0013-0.84491-0.06513-1.0938-0.08399v-7.3008c0.0654-0.00754 0.13477-0.013672 0.13477-0.013672 0.2878-0.036446 0.60596-0.070312 1.125-0.070312zm-43.02 0.0333c2.3401 0 4.0511 0.51186 5.2324 1.5625 1.4704 1.3083 2.1856 3.4663 2.1856 6.5918 0 1.9882-0.5844 3.7904-1.6426 5.0723-1.1562 1.3975-2.829 2.1367-4.8398 2.1367-1.7645 0-2.4824-0.16628-2.4824-1.834v-13.42c0.10431-0.011311 0.20703-0.021484 0.20703-0.021484l0.0723-0.00977c0.4185-0.038959 0.84657-0.078125 1.2676-0.078125zm-46.471 2.1855c0.47254 1.449 1.7863 5.4883 2.1152 6.5h-4.25c0.13623-0.41096 1.9225-5.8503 2.1348-6.5zm110.29 5.6191c0.28529 0.0063 1.4375 0.02539 1.4375 0.02539 1.2957 0 2.3624 0.32281 3.0976 0.93359 0.79929 0.66733 1.209 1.6701 1.209 2.9746 0 2.1566-1.5282 3.7227-3.627 3.7227-1.8424 0-2.1172-0.26221-2.1172-1.9902v-5.666zm48.219 24.629-0.17578 0.0918-1.6875 0.87305s6.3745 9.3388 6.4512 9.4531c-0.001 0.13824-0.0801 8.4629-0.0801 8.4629h2.125s0.0729-8.524 0.0742-8.666c0.0842-0.11311 6.6992-9.25 6.6992-9.25l-1.8203-0.91211-4.5762 6.4316c-0.38079 0.53035-1.012 1.465-1.3262 1.9375-0.24883-0.4009-0.71096-1.1367-1.127-1.75l-4.5566-6.6719zm-107.35 0.05859-0.0762 0.19922-5.75 14.371c-0.21868 0.558-0.39607 1.0527-0.54688 1.5215-0.17217-0.55925-0.33411-1.0491-0.5-1.4902-0.001-0.0038-5.5898-14.596-5.5898-14.596l-2.0977 0.66016 7.0918 18.156h1.9746l7.4648-18.148-1.9707-0.67383zm58.131 0.03516c-2.7096 0-5.4512 1.6455-5.4512 4.7949 0 3.2135 2.4068 4.3492 4.5332 5.3496 1.8902 0.88852 3.6738 1.731 3.6738 3.875 0 1.9417-1.4216 3.1973-3.6172 3.1973-1.4528 0-2.984-0.38807-4.0938-1.0391l-0.1875-0.10938-1.041 1.6738 0.18164 0.11914c1.1738 0.78798 3.484 1.2109 5.0625 1.2109 3.6282 0 5.9707-2.0336 5.9707-5.1855 0-3.304-2.5364-4.5078-4.7734-5.5723-1.855-0.88349-3.457-1.643-3.457-3.3887 0-1.8361 1.3585-3.1211 3.3027-3.1211 1.4792 0 2.5366 0.26371 3.8926 0.96875l0.18555 0.0957 1.0176-1.6641-0.21094-0.10938c-1.4817-0.77793-2.926-1.0957-4.9883-1.0957zm-107.23 0.01367-0.15625 0.04883-1.9883 0.59766-0.1582 18.127h2.0117l0.006-0.2207c0-0.0842 0.10156-8.593 0.10156-12.832 0-0.80055-0.01-1.5756-0.0391-2.3535 0.54858 0.92874 1.1438 1.8317 1.7207 2.6875 0.001 0.0013 8.793 12.988 8.793 12.988l2.1445-0.61133 0.16211-18.156h-2.0176l-0.0527 5.4883c-0.0251 2.4469-0.0547 4.9762-0.0547 7.457 0 0.82568 0.0212 1.6507 0.0488 2.4727-0.56805-0.96518-1.1806-1.8888-1.7285-2.7031-0.001-0.0013-8.793-12.99-8.793-12.99zm85.807 0.06445c-1.2869 0-2.583 0.06677-3.8359 0.13086l-1.2168 0.0625-0.004 0.21094-0.1582 18.305h2.1191s0.0724-7.8244 0.0762-8.2441c0.30916-0.0013 1.1328-0.0039 1.1328-0.0039l0.0273 0.002-0.008 0.002c0.8659-0.0075 1.606 0.29693 2.0371 0.83984 0.34309 0.45369 5.3964 7.4758 5.4492 7.5449l0.10547 0.15039 1.959-0.89648-5.1484-7.1094-0.002-0.002c-0.18331-0.26115-0.53193-0.67568-1-0.96094 2.2948-0.55046 4.5703-2.4417 4.5703-5.1387 0-3.1997-2.1096-4.8926-6.1035-4.8926zm-110.21 0.20898-0.22656 0.002h-1.8926l-0.05078 4.9473c-0.02702 2.242-0.05664 4.5604-0.05664 6.8477 0 4.836 2.0913 6.9883 6.7832 6.9883 4.7926 0 6.9572-2.3847 7.0137-7.7422l0.10742-11.041h-2.041l-0.10742 11.191c-0.02828 4.004-1.5003 5.7891-4.7637 5.7891-3.461 0-4.873-1.519-4.873-5.2402 0-2.2998 0.02906-4.6395 0.05859-6.9004l0.04883-4.8418zm47.951 0.002-0.16211 18.498h2.1211l0.16211-18.498h-0.22851-1.8926zm36.287 0-0.16016 18.498h10.088v-1.8848h-7.9394c0.003-0.41096 0.0483-6.2789 0.0508-6.6836h7.8379v-1.8848h-7.8106c0.004-0.40593 0.0437-5.7632 0.0488-6.1641h7.8398v-1.8809h-0.22265-9.7324zm63.08 0-0.16015 18.498h2.1191l0.16211-18.498h-0.22852-1.8926zm11.852 0v1.9102h5.6953c-0.004 0.43861-0.13281 16.588-0.13281 16.588h2.123s0.1264-16.157 0.12891-16.588h5.6953v-1.9102h-0.22265-13.287zm-48.932 1.5703c2.5738 0 3.875 1.11 3.875 3.293 0 2.5411-2.2036 3.5408-4.0938 3.625l-1.334 0.01172h-1.4746c0.003-0.41221 0.06-6.4514 0.0625-6.8359 0.92245-0.0465 1.9394-0.09375 2.9648-0.09375z"/>
  <path d="m1.9494 1.6894-0.00391 3.4707c0.7166-0.01 1.2866 0.019238 2.1348 0.085937 2.4201 0.21315 4.2445 1.3836 6.166 6.3223 1.6864 4.4296 15.554 39.56 16.977 43.303 0.38615-0.009 14.057 0 14.057 0 1.2121-3.0953 14.754-37.882 16.953-43.445 1.9635-4.9655 4.0613-5.9358 6.3945-6.125 0.55404-0.0451 1.2402-0.071706 1.8184-0.066406v-3.5137l-28.75-0.011719c0 0.87472 0.0013 3.0367 0.0039 3.4531 0.2502 0.003 0.96114-0.00195 1.3555-0.00195 1.3468-0.005 3.2497-0.00519 3.998 0.73242 1.4574 1.5504-0.44217 2.9656-2.1895 5.3281-2.7542 3.6625-1.047 6.0573 0.76953 4.7715 1.0524-0.77107 3.3223-2.4598 4.4316-3.0215 2.3087-1.0977 3.7901 1.8295 1.3848 5.0059-0.9496 1.3042-2.7744 2.948-3.9492 4.6875-1.4474 2.0937-0.77074 4.9028 2.0234 2.8145 3.2218-2.4242 4.3622 1.333 0.95898 4.8652-3.1232 3.3512-5.0215 5.7663-4.1055 8.6855 0.34111 1.063 0.7454 2.2319 1.0996 3.252 0.04708 0.11342 0.12109 0.18359 0.12109 0.18359l-0.07813 0.13477s-0.0743-0.03927-0.29297-0.04297h-1.9531c-0.1077-0.29073-1.133-3.0637-2.2305-6.0391-0.34602-0.88449-0.78416-1.5126-2.9258-2.1543-0.46067-0.13718-0.84742-0.25253-1.0645-0.31641-0.36239-0.0958-0.5497-0.04499-0.81055 0.13476-0.50244 0.37018-1.1471 0.84364-1.3789 1.0156-1.2862 0.94674-1.919 1.2454-2.4727 1.1074-0.4275-0.11875-0.64778-0.44152-0.63672-0.99023v-0.15039c0.61505-0.99875 1.0961-2.0748 1.4355-3.2148 0.3411-1.14 0.52933-2.3012 0.5625-3.4707 0.01719-0.0237 0.05469-0.07988 0.08008-0.11719 0.29156-0.466 0.65131-0.61447 1.0723-0.47852 0.54052 0.18918 0.90762 0.78417 1.4629 2.2812 0.09746 0.26494 0.36397 0.98431 0.57812 1.5625 0.13186 0.34357 0.26907 0.49674 0.70312 0.62695 0.37263 0.10934 1.0679 0.32175 1.8164 0.54492 0.07698 0.0213 0.14258 0.09466 0.16797 0.11719 0.02503-0.0242 0.13281-0.13477 0.13281-0.13477s-0.08919-0.07953-0.12891-0.18359c-0.76451-2.0708-1.3571-3.6795-1.4062-3.8184-0.90347-2.3947-1.5103-3.372-3.1953-4.6152-1.6396-1.1666-4.1561-2.0745-5.584-2.9004-4.3418-2.4692-3.6043-6.0363-1.1367-5.9004 0.94878 0.0131 3.1024 0.81795 4.6367 1.4121 2.6613 0.98318 2.7443-2.299-0.70117-4.8242-4.3782-3.2123-5.2124-4.8846-4.1895-6.1914 0.54748-0.69621 2.0482-0.70218 3.5371-0.69141 0.26617-0.003 1.0166-0.003 1.1992 0 0-0.86177 0.0078-2.5115 0.0078-3.4629l-28.856-0.0186zm25.514 26.018c0.50041-0.02652 1.0713 0.0699 1.7832 0.24219 0.21416 0.0479 1.0097 0.22138 1.6465 0.35937-0.02006 1.1429-0.19597 2.2763-0.5293 3.3926-0.3325 1.1158-0.81319 2.171-1.4258 3.1406-0.60891-0.233-1.3659-0.52417-1.5723-0.60156-1.8378-0.65805-2.5396-1.2279-2.7559-3.1328-0.05692-0.47704-0.07031-1.1406-0.07031-1.1406s0.37516-0.5448 0.68555-0.91211c0.76497-0.92084 1.4043-1.3035 2.2383-1.3477z" fill="#d8ab4c"/>
 </g>
</svg>
