<svg xmlns="http://www.w3.org/2000/svg" height="62.421" viewBox="0 0 259.70053 62.42144" width="259.7"><g transform="matrix(1.25 0 0 -1.25 -253.03 527.16)"><g><path d="m256.5 416.18s-13.225 4.9204-26.494 4.9204-26.495-4.9204-26.495-4.9204-3.6788-25.267 26.495-43.443c30.173 18.176 26.494 43.443 26.494 43.443" fill="#ffd969"/><path d="m230.01 421.1c13.269 0 26.494-4.9204 26.494-4.9204s3.6788-25.267-26.494-43.443v48.363" fill-opacity=".94118" fill="#fc3"/><g><path d="m230.01 377.69v39.627c-10.281 0-22.681-3.9027-22.681-3.9027s-0.69871-21.64 22.681-35.724" fill="#457165"/><path d="m34.48 5.5137v49.535c29.224-17.605 28.352-44.656 28.352-44.656s-15.5-4.8793-28.352-4.8793zm153.01 9.0213c-1.24 0.036-2.94 0.293-4.24 1.301-1.27 0.975-1.96 2.162-1.96 3.684 0 1.042 0.28 1.958 0.84 2.716 0.48 0.654 1.23 1.28 2.23 1.862l3.36 1.937c0.85 0.475 1.48 0.93 1.87 1.356 0.49 0.522 0.72 1.112 0.72 1.8 0 0.994-0.35 1.732-1.07 2.258-0.75 0.548-1.82 0.826-3.18 0.826-0.91 0-1.69-0.081-2.29-0.238-0.59-0.151-1.17-0.466-1.75-0.937l-0.67-0.553v3.08c2.09 1.031 6.9 1.07 9.53-0.356 1.7-0.917 2.54-2.413 2.54-4.396 0-1.057-0.21-1.948-0.64-2.646-0.33-0.566-0.89-1.101-1.66-1.606-0.7-0.389-1.39-0.786-2.06-1.184l-2.93-1.697c-0.63-0.365-1.09-0.711-1.38-1.023-0.35-0.38-0.54-0.819-0.58-1.305 0-0.826 0.34-1.481 1.06-2.008 0.75-0.554 1.6-0.824 2.58-0.824 0.7 0 1.31 0.086 1.81 0.258 0.49 0.166 0.96 0.467 1.4 0.894l0.7 0.676v-3.137l-0.26-0.105c-0.8-0.335-1.76-0.508-2.4-0.572-0.24-0.024-0.82-0.082-1.57-0.061zm-110.43 0.19s0.715 0.288 1.183 0.701c0.468 0.412 0.843 0.912 1.082 1.56 0.24 0.648 6.733 18.116 6.733 18.116l4.742-13.059 4.849 12.963s6.432-17.943 6.492-18.096c0.05-0.153 0.21-0.467 0.39-0.762 0.19-0.294 1.08-1.423 1.08-1.423h-4.264l0.373 0.621c0.034 0.057 0.148 0.256 0.148 0.453 0.001 0.095-0.014 0.194-0.045 0.293-0.041 0.135-3.939 11.75-3.939 11.75s-4.08-11.331-4.131-11.475c-0.113-0.32-0.016-0.794 0.062-1.004 0.078-0.206 0.381-0.638 0.381-0.638h-5.121s0.556 0.432 1.008 0.921c0.38 0.412 0.67 0.889 0.689 0.944l0.833 2.195-3.391 9.065s-4.021-11.439-4.119-11.746c-0.099-0.308 0.045-0.569 0.16-0.741l0.428-0.638h-5.623zm31.061 0s0.07 0.283 0.11 0.496c0.05 0.212 0.09 0.947-0.02 1.207-0.11 0.259-6.38 14.888-6.38 14.888-0.09 0.201-0.37 0.823-0.83 1.375-0.55 0.667-1.285 1.262-1.285 1.262h4.215s-0.08-0.294-0.11-0.428c-0.04-0.133-0.11-0.402-0.05-0.55 0.07-0.149 2.48-6.073 2.48-6.073h7.11l2.26 5.098c0.02 0.075 0.17 0.39 0.2 0.73 0.03 0.27-0.05 0.573-0.08 0.655l-0.23 0.568h4.66s-0.52-0.623-0.97-1.291c-0.39-0.578-0.71-1.2-0.79-1.377-0.14-0.289-7.28-16.56-7.28-16.56h-3.01zm9.21 0s1.1 0.932 1.29 1.218c0.2 0.287 5.38 8.411 5.38 8.411v8.386c0 0.103-0.01 0.137-0.01 0.139l-0.01 0.055c0 0.04-0.03 0.165-0.14 0.459l-0.22 0.558h3.56l-0.22-0.558c-0.11-0.294-0.14-0.419-0.14-0.459l-0.01-0.055c0-0.001-0.01-0.036-0.01-0.139v-8.385s5.37-8.136 5.56-8.412 1.29-1.218 1.29-1.218h-4.05l0.01 0.064 0.03 0.375c0.01 0.14 0 0.27-0.02 0.389-0.01 0.015-0.01 0.029-0.02 0.043-0.08 0.231-0.17 0.421-0.27 0.603l-3.69 5.84-3.48-5.668c-0.14-0.239-0.27-0.471-0.37-0.775s0-0.871 0-0.871h-4.46zm78.07 0l-0.66 3.209s0.82-0.506 1.06-0.647c0.23-0.14 0.53-0.294 1.14-0.285 0.27 0.005 4.22 0.016 4.22 0.016v15.293c0 0.531-0.39 1.226-0.6 1.642h4.24c-0.22-0.416-0.61-1.111-0.61-1.642v-15.293s3.91-0.012 4.16-0.016c0.61-0.01 0.91 0.145 1.14 0.285 0.23 0.141 1.05 0.647 1.05 0.647l-0.65-3.209h-14.49zm21.75 0s0.06 0.283 0.11 0.496c0.04 0.212 0.09 0.947-0.02 1.207-0.11 0.259-6.38 14.888-6.38 14.888-0.09 0.201-0.38 0.823-0.83 1.375-0.56 0.667-1.29 1.262-1.29 1.262h4.22s-0.09-0.294-0.12-0.428c-0.03-0.133-0.11-0.402-0.04-0.55 0.06-0.149 2.48-6.073 2.48-6.073h7.11l2.25 5.098c0.03 0.075 0.18 0.39 0.21 0.73 0.03 0.27-0.05 0.573-0.08 0.655l-0.23 0.568h4.66s-0.53-0.623-0.98-1.291c-0.39-0.578-0.7-1.2-0.79-1.377-0.14-0.289-7.28-16.56-7.28-16.56h-3zm11.22 0l-0.66 3.209s0.83-0.506 1.06-0.647c0.24-0.14 0.53-0.294 1.14-0.285 0.27 0.005 4.22 0.016 4.23 0.016v15.293c0 0.531-0.39 1.226-0.61 1.642h4.24c-0.22-0.416-0.61-1.111-0.61-1.642v-15.293c0.52 0 3.91-0.012 4.16-0.016 0.61-0.01 0.91 0.145 1.14 0.285 0.24 0.141 1.06 0.647 1.06 0.647l-0.66-3.209h-14.49zm17.47 0s0.62 0.66 0.67 0.736c0.06 0.077 0.22 0.293 0.29 0.461 0.06 0.175 0.09 0.373 0.09 0.586v15.928c0 0.643-0.67 1.515-0.67 1.515h11.62l1.08-3.478-0.96 0.646c-0.13 0.086-0.6 0.356-1.2 0.5-0.55 0.13-1.23 0.137-1.45 0.137h-5.47v-7.414h4.7c0.53 0 1.17 0.219 1.48 0.357l0.58 0.266v-2.797h-6.85v-5.23h5.03c0.55 0 0.85 0.13 1.18 0.453l0.64 0.601v-3.267h-10.76zm-110.55 0.002c0.63 0.417 1.34 0.961 1.45 1.23 0.11 0.27 0.14 0.568 0.14 0.795l-0.01 15.24c0 0.175 0.01 0.663-0.22 1.092-0.25 0.46-0.55 0.869-0.55 0.869h3.68s-0.29-0.848-0.42-1.443c-0.14-0.604-0.13-0.957-0.13-1.114v-12.595l14.83 16.404v-18.41c0.01-0.193 0.05-0.462 0.13-0.82 0.13-0.596 0.42-1.248 0.42-1.248h-3.4s0.28 0.652 0.41 1.248c0.08 0.358 0.11 0.627 0.12 0.82v11.99l-12.3-14.058h-4.15zm23.08 0s0.62 0.66 0.68 0.736 0.22 0.293 0.28 0.461c0.06 0.175 0.1 0.372 0.1 0.586v15.928c0 0.642-0.68 1.515-0.68 1.515h11.63l1.07-3.478-0.96 0.646c-0.13 0.086-0.59 0.357-1.2 0.5-0.54 0.13-1.23 0.137-1.44 0.137h-5.48v-7.414h4.71c0.52 0 1.17 0.219 1.47 0.357l0.58 0.266v-2.797h-6.84v-5.231h5.03c0.55 0 0.85 0.131 1.17 0.454l0.64 0.601v-3.267h-10.76zm-48.65 3.824l2.73 6.261h-5.34l2.61-6.261zm109.03 0l2.72 6.261h-5.33l2.61-6.261zm-27.94 22.637c-0.74-0.017-2.25 0.053-3.23 0.812-0.85 0.653-1.26 1.429-1.26 2.373 0 0.671 0.18 1.262 0.55 1.752 0.3 0.418 0.77 0.813 1.41 1.18l2.05 1.187c0.51 0.283 0.88 0.55 1.1 0.799 0.27 0.29 0.4 0.618 0.4 0.998 0 0.555-0.19 0.967-0.59 1.258-0.43 0.315-1.05 0.474-1.85 0.474-0.55 0-1.01-0.046-1.37-0.138-0.33-0.087-0.67-0.271-1-0.545l-0.66-0.543v2.301l0.08 0.043c0.61 0.303 1.6 0.468 2.65 0.468 1.18 0 2.44-0.213 3.32-0.687 1.08-0.588 1.63-1.538 1.63-2.824 0-0.675-0.14-1.247-0.42-1.698-0.21-0.366-0.57-0.713-1.06-1.031l-0.01-0.006c-0.42-0.236-0.84-0.477-1.25-0.722l-1.79-1.037c-0.37-0.216-0.65-0.417-0.81-0.596-0.19-0.203-0.29-0.442-0.32-0.695 0-0.46 0.19-0.811 0.59-1.106 0.43-0.32 0.92-0.475 1.49-0.475 0.41 0 0.77 0.051 1.06 0.151 0.27 0.094 0.54 0.266 0.79 0.512l0.69 0.664v-2.381l-0.25-0.104c-0.51-0.212-1.02-0.333-1.51-0.361-0.03-0.003-0.19-0.018-0.43-0.023zm-86.28 0.171s0.52 0.884 0.52 1.067v0.955 5.914c0 1.254 0.48 2.291 1.44 3.078 0.93 0.769 2.09 1.158 3.45 1.158 1.26 0 2.35-0.397 3.23-1.181 0.89-0.795 1.34-1.807 1.34-3.004v-5.965-0.955c0-0.183 0.52-1.067 0.52-1.067h-3.02s0.4 0.97 0.42 1.053c0.01 0.064 0.02 0.133 0.02 0.207v6.625c0 0.715-0.24 1.298-0.71 1.785-0.47 0.484-1.06 0.717-1.8 0.717-0.78 0-1.43-0.25-2.01-0.767-0.57-0.506-0.84-1.103-0.84-1.825l-0.01-6.535c0-0.074 0.01-0.143 0.02-0.207 0.02-0.083 0.42-1.053 0.42-1.053h-2.99zm17.15 0l-3.1 0.004 0.95 0.67c0.12 0.083 0.25 0.213 0.28 0.278 0.03 0.063 0.07 0.266 0.07 0.416v9.236c0 0.072-0.01 0.16-0.01 0.264 0 0.087 0 0.282-0.16 0.507-0.16 0.226-0.45 0.635-0.45 0.635h2.74s-0.15-0.443-0.24-0.787c-0.1-0.348-0.14-0.733-0.14-0.924v-7.287l9.04 10.008v-11.664c0-0.052 0.01-0.233 0.04-0.408 0.03-0.193 0.09-0.381 0.1-0.414l0.17-0.532h-2.32l0.22 0.942v0.004c0.03 0.146 0.06 0.265 0.06 0.355 0.01 0.105 0.02 0.247 0.02 0.422v6.576l-7.27-8.301zm13.93 0l0.41 0.633c0.09 0.137 0.15 0.258 0.18 0.36 0.04 0.149 0.06 0.225 0.06 0.253 0.01 0.07 0.01 0.155 0.01 0.256v9.118c0 0.113 0 0.211-0.01 0.292-0.01 0.057-0.02 0.119-0.05 0.186-0.02 0.05-0.05 0.135-0.14 0.26l-0.42 0.637h3.34l-0.49-0.657c-0.04-0.061-0.08-0.119-0.12-0.166 0-0.001-0.01-0.039-0.02-0.144-0.02-0.129-0.03-0.312-0.03-0.549-0.01-0.247-0.01-0.505-0.01-0.774v-8.242c0-0.049 0.01-0.113 0.03-0.197 0.01-0.101 0.04-0.207 0.07-0.318 0.03-0.105 0.08-0.223 0.15-0.354l0.3-0.594h-3.26zm7.18 0l0.4 0.303c0.21 0.143 0.74 0.485 0.83 0.674 0.09 0.188 5.77 11.801 5.77 11.801s5.31-11.293 5.41-11.481c0.09-0.189 0.91-1.297 0.91-1.297h-2.99s0.31 0.565 0.31 0.692c0.01 0.126-0.07 0.249-0.15 0.388l-3.46 7.403-3.52-7.403c-0.08-0.14-0.15-0.262-0.15-0.388s0.31-0.692 0.31-0.692h-3.67zm16.72 0l0.69 0.69c0.05 0.052 0.09 0.118 0.12 0.199 0.03 0.09 0.05 0.191 0.05 0.303v9.726c0 0.279-0.27 0.694-0.38 0.83l-0.19 0.247h7.52l0.82-2.643-0.95 0.635c-0.01 0.007-0.29 0.19-0.68 0.283-0.3 0.072-0.69 0.08-0.85 0.08h-3.19v-4.223h2.72c0.29 0 0.66 0.123 0.84 0.205l0.57 0.262v-2.098h-4.18v-2.888h2.92c0.28 0 0.43 0.057 0.61 0.236l0.65 0.608v-2.452h-7.09zm12.6 0l0.7 0.7c0.05 0.051 0.09 0.116 0.12 0.197 0.03 0.09 0.04 0.188 0.04 0.301v9.744c0 0.183-0.52 1.064-0.52 1.064h2.99l-0.25-0.574c-0.07-0.165-0.15-0.396-0.16-0.479-0.02-0.063-0.02-0.133-0.02-0.207v-4.396l4.37 5.682h3.37s-1.1-0.684-1.4-0.922c-0.3-0.24-0.55-0.509-0.72-0.709-0.06-0.066-0.21-0.261-0.46-0.584l-3.05-3.819c0.61-0.107 1.15-0.397 1.61-0.865 0.58-0.603 0.88-1.326 0.88-2.148 0-0.902-0.31-1.636-0.94-2.182-0.6-0.532-1.35-0.803-2.22-0.803h-4.34zm26.97 0c0.14 0.27 0.39 0.719 0.39 1.063v9.869c0 0.344-0.25 0.794-0.39 1.063h2.84c-0.14-0.269-0.39-0.719-0.39-1.063v-9.869c0-0.344 0.25-0.793 0.39-1.063h-2.84zm8.18 0l-0.49 2.391 0.29-0.18s0.5-0.307 0.65-0.392c0.14-0.085 0.29-0.16 0.61-0.155 0.15 0.003 1.9 0.008 2.44 0.01v9.194c0 0.261-0.2 0.627-0.32 0.869l-0.15 0.283h3.09l-0.15-0.283c-0.13-0.242-0.32-0.607-0.32-0.869v-9.194s2.24-0.007 2.39-0.01c0.32-0.005 0.48 0.07 0.62 0.155s0.64 0.392 0.64 0.392l0.29 0.18-0.46-2.266-0.02-0.125h-9.11zm13.42 0l0.31 0.27c0.25 0.214 0.68 0.596 0.76 0.711 0.11 0.163 2.96 4.624 3.25 5.082v5.064 0.055l-0.01 0.049c0 0.002-0.01 0.062-0.08 0.24l-0.21 0.549h2.61l-0.21-0.549c-0.07-0.178-0.08-0.239-0.08-0.252l-0.01-0.037v-0.055-5.06c0.31-0.462 3.25-4.922 3.36-5.086 0.08-0.115 0.51-0.497 0.76-0.711l0.32-0.27h-3.04l0.03 0.432c0 0.08 0 0.153-0.02 0.217-0.02 0.065-0.04 0.127-0.07 0.187-0.01 0.014-0.02 0.031-0.03 0.051l-2.17 3.434-1.99-3.241c-0.08-0.14-0.12-0.207-0.14-0.244-0.03-0.06-0.05-0.122-0.07-0.187-0.01-0.065-0.02-0.137-0.01-0.217l0.03-0.432h-3.29zm-44.9 1.504c0.7 0 1.2 0.161 1.47 0.481 0.21 0.234 0.31 0.585 0.31 1.039 0 0.539-0.16 0.955-0.5 1.275-0.33 0.321-0.83 0.483-1.48 0.483-0.19 0-0.37-0.001-0.55-0.006-0.01-0.001-0.01 0.001-0.02 0v-3.196c0.08-0.027 0.52-0.076 0.77-0.076z" transform="matrix(.8 0 0 -.8 202.42 421.73)" fill="#0c5449"/><path d="m234.7 405.29-1.6835-3.7765 1.6835-3.7166c5.8172 4.1288 6.8512 8.3922 6.8512 8.3922l-3.3297 3.7765h9.3614c0-6.4364-4.1856-13.988-14.207-22.06l-3.3736 8.6102-3.3723-8.6102c-10.021 8.0714-14.207 15.623-14.207 22.06h9.3618l-3.3297-3.7765s1.0336-4.2634 6.8508-8.3922l1.6839 3.7166-1.6839 3.7765h9.3934" fill="#fff"/></g></g></g></svg>
